<svg width="48" height="48" viewBox="0 0 48 48" fill="none" xmlns="http://www.w3.org/2000/svg">
<path d="M24 9.15656C15.8156 9.15656 9.15656 15.8156 9.15656 24C9.15656 32.1844 15.8156 38.8434 24 38.8434C32.1844 38.8434 38.8434 32.1853 38.8434 24C38.8434 15.8147 32.1844 9.15656 24 9.15656ZM24 37.7184C16.4353 37.7184 10.2816 31.5647 10.2816 24C10.2816 16.4353 16.4353 10.2816 24 10.2816C31.5637 10.2816 37.7184 16.4353 37.7184 24C37.7184 31.5637 31.5647 37.7184 24 37.7184ZM46.5938 20.1534C46.5938 19.8797 46.3969 19.6462 46.1278 19.5994L42.4547 18.9581C42.0319 17.4075 41.4141 15.9159 40.6134 14.5162L42.7584 11.4637C42.9159 11.2397 42.8897 10.9359 42.6956 10.7428L37.2562 5.30438C37.0631 5.11125 36.7584 5.085 36.5353 5.24156L33.4828 7.38656C32.0831 6.58594 30.5925 5.96813 29.0409 5.54531L28.3997 1.87219C28.3528 1.60312 28.1184 1.40625 27.8456 1.40625H24H20.1534C19.8797 1.40625 19.6462 1.60312 19.5994 1.87219L18.9581 5.54531C17.4066 5.96813 15.915 6.58687 14.5162 7.38656L11.4647 5.24156C11.2406 5.08406 10.9369 5.11125 10.7437 5.30438L5.30438 10.7437C5.11125 10.9369 5.085 11.2416 5.24156 11.4647L7.38656 14.5162C6.58594 15.9159 5.96812 17.4066 5.54437 18.9581L1.87219 19.5994C1.60312 19.6462 1.40625 19.8806 1.40625 20.1534V24V27.8466C1.40625 28.1203 1.60312 28.3538 1.87219 28.4006L5.54531 29.0419C5.96813 30.5934 6.58594 32.0841 7.38656 33.4837L5.24156 36.5363C5.08406 36.7603 5.11031 37.0641 5.30438 37.2572L10.7437 42.6966C10.9369 42.8897 11.2416 42.9159 11.4647 42.7594L14.5172 40.6144C15.9169 41.415 17.4075 42.0328 18.9591 42.4556L19.6003 46.1287C19.6472 46.3978 19.8816 46.5947 20.1544 46.5947H24.0009H27.8475C28.1213 46.5947 28.3547 46.3978 28.4016 46.1287L29.0428 42.4556C30.5944 42.0328 32.085 41.415 33.4847 40.6144L36.5363 42.7594C36.7603 42.9169 37.0641 42.8897 37.2572 42.6966L42.6966 37.2572C42.8897 37.0641 42.9159 36.7594 42.7594 36.5363L40.6144 33.4847C41.415 32.0859 42.0328 30.5944 42.4566 29.0428L46.1287 28.4016C46.3978 28.3547 46.5947 28.1203 46.5947 27.8475V24.0009L46.5938 20.1534ZM45.4688 27.3731L41.9062 27.9947C41.6878 28.0331 41.5116 28.1962 41.4572 28.4109C41.0306 30.1022 40.3594 31.7203 39.4622 33.2212C39.3478 33.4116 39.3572 33.6516 39.4847 33.8334L41.565 36.7941L36.7941 41.565L33.8334 39.4847C33.6516 39.3572 33.4125 39.3478 33.2212 39.4622C31.7194 40.3594 30.1012 41.0306 28.4109 41.4563C28.1953 41.5106 28.0322 41.6859 27.9947 41.9053L27.3731 45.4678L24 45.4688H20.6269L20.0053 41.9062C19.9669 41.6878 19.8037 41.5116 19.5891 41.4572C17.8988 41.0316 16.2806 40.3603 14.7787 39.4631C14.5884 39.3497 14.3484 39.3581 14.1666 39.4856L11.2059 41.5659L6.435 36.795L8.51531 33.8344C8.64281 33.6525 8.65219 33.4125 8.53781 33.2222C7.64062 31.7212 6.96938 30.1022 6.54375 28.4119C6.48938 28.1962 6.31406 28.0331 6.09469 27.9956L2.53219 27.3741L2.53125 24V20.6269L6.09375 20.0053C6.31219 19.9669 6.48844 19.8037 6.54281 19.5891C6.96938 17.8978 7.64062 16.2797 8.53781 14.7787C8.65219 14.5884 8.64281 14.3484 8.51531 14.1666L6.435 11.2059L11.2059 6.435L14.1666 8.51531C14.3484 8.64281 14.5884 8.65219 14.7787 8.53781C16.2797 7.64062 17.8978 6.96938 19.5891 6.54375C19.8047 6.48938 19.9678 6.31406 20.0053 6.09469L20.6269 2.53219L24 2.53125H27.3731L27.9947 6.09375C28.0331 6.31219 28.1962 6.48844 28.4109 6.54281C30.1012 6.96844 31.7194 7.63969 33.2212 8.53687C33.4116 8.65031 33.6516 8.64187 33.8334 8.51437L36.7941 6.43406L41.565 11.205L39.4847 14.1656C39.3572 14.3475 39.3478 14.5875 39.4622 14.7778C40.3594 16.2797 41.0306 17.8978 41.4563 19.5881C41.5106 19.8038 41.6859 19.9669 41.9053 20.0044L45.4678 20.6259V23.9991L45.4688 27.3731ZM32.0466 15.5184L30.5916 16.1334C30.1631 16.3144 29.9569 16.8038 30.1209 17.235C28.9678 17.5781 27.8822 17.3203 26.8275 17.0709C25.7306 16.8112 24.6938 16.5656 23.73 17.055C23.7122 17.0644 23.6944 17.0747 23.6766 17.0859C23.2453 17.3681 22.8816 17.6484 22.5675 17.9091C22.1513 17.7347 21.6375 17.7816 21.1369 17.8284C20.3925 17.8978 19.5628 17.9738 18.7481 17.5097C18.9422 17.1122 18.8044 16.6237 18.4181 16.3912L17.0653 15.5747C16.8684 15.4556 16.6359 15.4209 16.4109 15.4762C16.1869 15.5316 15.9975 15.6712 15.8784 15.8681L11.8162 22.5947C11.6972 22.7925 11.6616 23.0241 11.7178 23.2491C11.7731 23.4731 11.9128 23.6625 12.1097 23.7816L13.4625 24.5981C13.6022 24.6825 13.7559 24.7219 13.9078 24.7219C14.2003 24.7219 14.4872 24.5728 14.6494 24.3047L14.8481 23.9747C15.4294 24.1266 15.8484 24.39 16.0669 24.5897L15.5803 25.1438C15.2794 25.4859 15.1294 25.9266 15.1594 26.3841C15.1894 26.8416 15.3938 27.2588 15.7369 27.5597C16.0612 27.8447 16.4644 27.9853 16.8656 27.9853C16.8881 27.9853 16.9097 27.9825 16.9313 27.9816C16.9856 28.3931 17.1816 28.7662 17.4956 29.0409C17.82 29.3259 18.2231 29.4666 18.6244 29.4666C18.6347 29.4666 18.645 29.4656 18.6544 29.4647C18.7022 29.8894 18.9 30.2756 19.2225 30.5588C19.5469 30.8438 19.95 30.9844 20.3512 30.9844C20.3653 30.9844 20.3784 30.9825 20.3925 30.9825C20.4403 31.3875 20.6306 31.7766 20.9597 32.0662C21.2738 32.3428 21.6703 32.4909 22.0866 32.4909C22.1241 32.4909 22.1616 32.49 22.2 32.4872C22.5056 32.4675 22.7925 32.3672 23.04 32.2022C23.3569 32.4347 23.7253 32.55 24.0891 32.55C24.5644 32.55 25.0303 32.3559 25.3641 31.9762C25.5506 31.7634 25.6744 31.5169 25.7381 31.2581C25.8675 31.2891 25.9997 31.3059 26.1356 31.3059C26.1731 31.3059 26.2116 31.305 26.2491 31.3022C26.7066 31.2731 27.1238 31.0678 27.4247 30.7247C27.615 30.5081 27.7406 30.255 27.8025 29.9906C27.9244 30.0178 28.0481 30.0319 28.1709 30.0319C28.6462 30.0319 29.1206 29.835 29.4581 29.4506C29.6672 29.2125 29.7966 28.9322 29.8519 28.6416C29.9325 28.6528 30.0131 28.6603 30.0938 28.6603C30.5691 28.6603 31.0434 28.4634 31.3809 28.0791C31.8694 27.5231 31.9303 26.7384 31.5928 26.1244C32.2237 25.7428 32.4572 25.3725 32.6512 25.0603C32.7881 24.8409 32.8931 24.6741 33.1941 24.5119C33.3356 24.8362 33.6525 25.0312 33.9872 25.0312C34.0988 25.0312 34.2131 25.0097 34.3228 24.9628L35.7778 24.3478C36.2166 24.1622 36.4228 23.6541 36.2372 23.2153L33.1772 15.9769C32.9934 15.5391 32.4853 15.3328 32.0466 15.5184ZM13.8206 23.5003L12.9141 22.9528L16.7062 16.6725L17.6128 17.22L13.8206 23.5003ZM16.4794 26.715C16.3622 26.6119 16.2928 26.4694 16.2825 26.3119C16.2722 26.1544 16.3238 26.0034 16.4259 25.8862L17.6475 24.4959C17.7638 24.3638 17.9259 24.2962 18.0891 24.2962C18.2269 24.2962 18.3647 24.3441 18.4762 24.4416C18.7191 24.6553 18.7434 25.0275 18.5297 25.2703L17.34 26.625L17.3081 26.6606C17.0944 26.9044 16.7222 26.9287 16.4794 26.715ZM18.2381 28.1963C18.1209 28.0941 18.0516 27.9506 18.0413 27.7931C18.0309 27.6356 18.0816 27.4856 18.1838 27.3684L19.3744 26.0138C19.3847 26.0016 19.3941 25.9884 19.4044 25.9762L19.4062 25.9781C19.62 25.7353 19.9922 25.7109 20.235 25.9247C20.4778 26.1384 20.5022 26.5106 20.2884 26.7534L19.9097 27.1847L19.0669 28.1438C18.8531 28.3866 18.4819 28.41 18.2381 28.1963ZM19.9659 29.7141C19.8488 29.6109 19.7794 29.4684 19.7691 29.3109C19.7587 29.1534 19.8103 29.0025 19.9125 28.8853L20.7553 27.9263C20.9691 27.6834 21.3403 27.6591 21.5841 27.8728C21.7013 27.9759 21.7706 28.1184 21.7809 28.2759C21.7913 28.4334 21.7397 28.5844 21.6375 28.7016L20.9353 29.5003C20.9353 29.5003 20.9353 29.5003 20.9344 29.5012L20.8453 29.6034L20.7956 29.6606C20.5809 29.9044 20.2087 29.9278 19.9659 29.7141ZM22.1287 31.3641C21.9712 31.3753 21.8203 31.3237 21.7031 31.2206C21.4603 31.0069 21.4359 30.6347 21.6497 30.3919L21.6572 30.3834L21.7791 30.2447C21.8953 30.1134 22.0575 30.0459 22.2197 30.0459C22.3575 30.0459 22.4953 30.0937 22.6069 30.1922C22.8497 30.4059 22.8741 30.7781 22.6603 31.0209L22.5309 31.1691C22.4288 31.2844 22.2853 31.3547 22.1287 31.3641ZM24.5203 31.2337C24.3375 31.4419 24.03 31.4813 23.7778 31.3425C24.0225 30.8044 23.9709 30.1716 23.64 29.6784L24.4669 30.405L24.4678 30.4059C24.7097 30.6197 24.7331 30.9909 24.5203 31.2337ZM30.5372 27.3375C30.3234 27.5803 29.9513 27.6047 29.7084 27.3909L29.3044 27.0366L29.3034 27.0356C29.3034 27.0356 29.3025 27.0356 29.3025 27.0347L26.4844 24.5578C26.2509 24.3525 25.8956 24.3759 25.6903 24.6094C25.485 24.8428 25.5084 25.1981 25.7419 25.4034L28.5619 27.8812C28.8047 28.095 28.8281 28.4663 28.6144 28.7091C28.4006 28.9519 28.0294 28.9762 27.7856 28.7625L24.8766 26.2059C24.6431 26.0006 24.2878 26.0241 24.0825 26.2575C23.8772 26.4909 23.9006 26.8462 24.1341 27.0516L26.5312 29.1581C26.7703 29.3719 26.7919 29.7422 26.58 29.9831C26.4769 30.1003 26.3344 30.1697 26.1769 30.18C26.0194 30.1894 25.8684 30.1388 25.7512 30.0366L24.2325 28.7016C23.9991 28.4963 23.6437 28.5197 23.4384 28.7531C23.2922 28.92 23.2622 29.1478 23.3419 29.34C23.1666 29.1872 22.9688 29.0766 22.7606 29.0072C23.055 28.3416 22.9003 27.5334 22.3256 27.0281C22.0931 26.8237 21.8194 26.6953 21.5353 26.6381C21.6253 26.0766 21.4359 25.4822 20.9775 25.0791C20.6353 24.7781 20.2059 24.6403 19.7831 24.6562C19.7306 24.2606 19.5413 23.8809 19.2188 23.5969C18.5119 22.9753 17.4328 23.0437 16.8084 23.7459C16.4794 23.4459 16.0134 23.1684 15.4491 22.9791L18.1697 18.4744C18.9066 18.8991 19.6491 19.0031 20.2959 19.0031C20.6438 19.0031 20.9644 18.9731 21.2419 18.9478C21.2756 18.945 21.3131 18.9412 21.3506 18.9375C20.1084 19.9322 20.2734 21.0309 20.4075 21.9178C20.5041 22.5581 20.5875 23.1103 20.2247 23.6756C20.1309 23.8209 20.1094 24.0019 20.1666 24.1659C20.2237 24.33 20.3531 24.4575 20.5172 24.5128C21.2072 24.7463 21.9844 24.585 22.6509 24.0722C23.3972 23.4975 23.8444 22.6097 23.79 21.8091C23.775 21.5822 23.9119 21.2119 24.0938 21.105C24.1238 21.0872 24.1997 21.0422 24.3919 21.1566L30.4828 26.5088C30.7275 26.7225 30.7509 27.0947 30.5372 27.3375ZM31.6987 24.4659C31.5244 24.7453 31.3688 24.9928 30.795 25.2844L25.1006 20.2809C25.0791 20.2622 25.0566 20.2453 25.0331 20.2303C24.3375 19.7841 23.7881 19.98 23.5228 20.1375C22.9153 20.4966 22.6294 21.3056 22.6688 21.8859C22.6969 22.3088 22.4081 22.8412 21.9656 23.1825C21.8813 23.2481 21.7284 23.3512 21.54 23.4216C21.6816 22.8141 21.5944 22.2422 21.5203 21.7519C21.3956 20.925 21.3131 20.3784 22.1128 19.7709C22.32 19.6144 22.5319 19.4278 22.7559 19.2319C23.1675 18.8709 23.6334 18.4631 24.2644 18.0478C24.8578 17.7628 25.6519 17.9503 26.5678 18.1678C27.6956 18.435 29.0691 18.7603 30.5588 18.2784L32.7562 23.4759C32.1797 23.76 31.935 24.0863 31.6987 24.4659ZM34.1259 23.8266L31.2694 17.0691L32.2444 16.6566L35.1009 23.4141L34.1259 23.8266Z" fill="#0454A7"/>
</svg>
