<svg width="48" height="48" viewBox="0 0 48 48" fill="none" xmlns="http://www.w3.org/2000/svg">
<g clip-path="url(#clip0_148_825)">
<path d="M46.6491 31.0778H46.396V29.5109C46.396 28.7914 45.8106 28.206 45.0912 28.206H43.7668L38.0521 22.4913C38.0277 22.467 38.0017 22.4456 37.975 22.4255V14.601H42.0995C42.3697 14.601 42.6163 14.4471 42.7351 14.2043C42.8538 13.9615 42.824 13.6723 42.6581 13.459L39.8275 9.81869C39.6934 9.64631 39.4873 9.54545 39.2689 9.54545H37.773L14.7577 0.409988C14.7354 0.401024 14.7124 0.393193 14.689 0.386494C14.6815 0.384323 14.6739 0.382908 14.6664 0.381021C14.6523 0.37753 14.6383 0.37385 14.6239 0.371208C14.6104 0.368661 14.5968 0.367057 14.5832 0.365358C14.5748 0.36432 14.5665 0.362905 14.558 0.36215C14.5414 0.360641 14.525 0.360074 14.5085 0.359791C14.5037 0.359697 14.4991 0.359131 14.4943 0.359131H14.4838C14.4815 0.359131 14.4791 0.359131 14.4768 0.359131H12.735C12.368 0.359131 12.0619 0.639646 12.03 1.00517L11.2838 9.54554H6.50864C6.48533 8.63144 5.73607 7.89453 4.8164 7.89453H1.69441C0.760117 7.89444 0 8.65455 0 9.58885V14.6589C0 15.5932 0.760117 16.3533 1.69441 16.3533H4.8164C5.75069 16.3533 6.51081 15.5932 6.51081 14.6589V14.6011H11.0011L10.161 42.5536H9.51533C8.1187 42.5536 6.98249 43.6898 6.98249 45.0865V46.9333C6.98249 47.3242 7.29933 47.641 7.69014 47.641H8.96062C9.35143 47.641 9.66828 47.3242 9.66828 46.9333C9.66828 46.5425 9.35143 46.2257 8.96062 46.2257H8.3978V45.0865C8.3978 44.4702 8.8991 43.9689 9.51533 43.9689H11.6075H18.4731C19.0893 43.9689 19.5906 44.4702 19.5906 45.0865V46.2257H11.7911C11.4003 46.2257 11.0835 46.5425 11.0835 46.9333C11.0835 47.3242 11.4003 47.641 11.7911 47.641H20.2983C20.6891 47.641 21.006 47.3242 21.006 46.9333V45.0865C21.006 43.6898 19.8697 42.5536 18.4731 42.5536H17.0715L16.2314 14.6011H20.1448V18.1306C20.1448 19.1419 20.9676 19.9647 21.9788 19.9647H27.4083C28.4195 19.9647 29.2423 19.1419 29.2423 18.1306V14.6011H36.5594V22.3665C36.4987 22.3986 36.4416 22.4402 36.3905 22.4913L30.6757 28.206H29.2545C28.535 28.206 27.9497 28.7914 27.9497 29.5109V31.0778H27.2908C26.5459 31.0778 25.9399 31.6837 25.9399 32.4287V33.7598C25.9399 34.5047 26.5459 35.1106 27.2908 35.1106H29.1896C29.5804 35.1106 29.8972 34.7938 29.8972 34.4029C29.8972 34.0121 29.5804 33.6953 29.1896 33.6953H27.3552V32.4931H46.5844V33.6953H32.0205C31.6297 33.6953 31.3128 34.0121 31.3128 34.4029C31.3128 34.7938 31.6297 35.1106 32.0205 35.1106H46.6491C47.394 35.1106 48 34.5047 48 33.7598V32.4287C48 31.6838 47.394 31.0778 46.6491 31.0778ZM13.3835 1.77444H13.8458L14.5248 9.54554H12.7045L13.3835 1.77444ZM5.0955 14.6589C5.0955 14.8128 4.97029 14.938 4.8164 14.938H1.69441C1.54052 14.938 1.41531 14.8128 1.41531 14.6589V9.58885C1.41531 9.43496 1.54052 9.30975 1.69441 9.30975H4.8164C4.97029 9.30975 5.0955 9.43496 5.0955 9.58885V10.2532V13.8935V14.6589ZM6.51081 10.9609H20.8526C21.2434 10.9609 21.5603 10.644 21.5603 10.2532C21.5603 9.86238 21.2434 9.54554 20.8526 9.54554H15.9454L15.299 2.14752L33.9367 9.54554H23.6833C23.2924 9.54554 22.9756 9.86238 22.9756 10.2532C22.9756 10.644 23.2924 10.9609 23.6833 10.9609H37.6334C37.6347 10.9609 37.6361 10.961 37.6374 10.961C37.6382 10.961 37.639 10.9609 37.6398 10.9609H38.9226L40.6526 13.1858H28.5348H20.8525H6.51072L6.51081 10.9609ZM12.2476 20.2413L14.3832 21.7875L12.1067 24.932L12.2476 20.2413ZM12.3704 34.9806L15.3174 31.2987L15.4961 37.2453L12.3704 34.9806ZM12.5896 26.6784L15.0754 23.2448L15.2362 28.5958L12.5896 26.6784ZM12.0142 28.0093L14.624 29.9001L11.8533 33.3615L12.0142 28.0093ZM14.624 38.3611L11.5891 42.1526L11.7653 36.29L14.624 38.3611ZM12.7908 18.8874L14.862 16.1406L14.9925 20.4814L12.7908 18.8874ZM14.2501 14.6011L12.341 17.133L12.4171 14.6011H14.2501ZM13.0811 42.5535L15.5626 39.4534L15.6557 42.5535H13.0811ZM27.8273 18.1306C27.8273 18.3615 27.6394 18.5494 27.4085 18.5494H21.9791C21.7482 18.5494 21.5604 18.3615 21.5604 18.1306V14.6011H27.8273V18.1306ZM41.7653 28.206H37.975V24.4157L41.7653 28.206ZM36.5597 24.324V28.2061H32.6776L36.5597 24.324ZM29.3653 29.6214H44.9807V31.0778H29.3653V29.6214Z" fill="#0454A7"/>
</g>
<defs>
<clipPath id="clip0_148_825">
<rect width="48" height="48" fill="white"/>
</clipPath>
</defs>
</svg>
