<svg width="48" height="48" viewBox="0 0 48 48" fill="none" xmlns="http://www.w3.org/2000/svg">
<path d="M26.0364 25.0182C25.1637 26.0363 25.2364 27.4909 26.1091 28.3636C26.5455 28.8 27.2 29.0909 27.8546 29.0909C28.5091 29.0909 29.091 28.8727 29.6 28.3636L39.1273 18.8363C40.0728 17.8909 40.0728 16.3636 39.1273 15.4182C38.2546 14.5454 36.7273 14.4727 35.7819 15.3454L27.1273 6.83634C28.0728 5.81816 28 4.36362 27.0546 3.49089C26.1091 2.54544 24.5091 2.54544 23.6364 3.49089L14.1819 12.9454C13.2364 13.8909 13.2364 15.4182 14.1819 16.3636C15.0546 17.3091 16.5819 17.3091 17.5273 16.4363L20.0728 18.9818L1.7455 36.2909C0.436408 37.5273 0.436407 39.5636 1.67277 40.8C2.90914 42.0363 5.01823 42.0363 6.18186 40.7273L23.491 22.4L26.0364 25.0182ZM38.0364 16.4363C38.4 16.8 38.4 17.4545 38.0364 17.8182L28.5091 27.3454C28.1455 27.7091 27.491 27.7091 27.1273 27.3454C26.7637 26.9818 26.7637 26.3273 27.1273 25.9636L36.6546 16.4363C37.0182 16 37.6728 16.0727 38.0364 16.4363ZM15.2 15.3454C14.8364 14.9818 14.8364 14.3273 15.2 13.9636L24.6546 4.50907C25.0182 4.14544 25.6 4.07271 26.0364 4.50907C26.4 4.87271 26.4 5.52725 26.0364 5.89089L16.5819 15.3454C16.2182 15.7091 15.5637 15.7818 15.2 15.3454ZM23.9273 10.0363L26.1819 7.7818L34.691 16.2909L27.0546 24L18.5455 15.4182L23.9273 10.0363ZM5.09095 39.7818C4.43641 40.5091 3.3455 40.5091 2.69095 39.7818C2.03641 39.1273 2.03641 38.0363 2.76368 37.3818L21.091 20.0727L22.4728 21.4545L5.09095 39.7818Z" fill="#0454A7"/>
<path d="M46.5457 43.7818H45.7457V40.4363C45.7457 39.2727 44.8003 38.3272 43.6366 38.3272H42.6184V37.0181C42.6184 35.8545 41.673 34.9091 40.5093 34.9091H26.1093C24.9457 34.9091 24.0002 35.8545 24.0002 37.0181V38.3272H22.9821C21.8184 38.3272 20.873 39.2727 20.873 40.4363V43.7818H20.073C19.6366 43.7818 19.3457 44.0727 19.3457 44.5091C19.3457 44.9454 19.6366 45.2363 20.073 45.2363H46.6184C47.0548 45.2363 47.3457 44.9454 47.3457 44.5091C47.3457 44.0727 46.9821 43.7818 46.5457 43.7818ZM25.4548 36.9454C25.4548 36.5818 25.7457 36.2909 26.1093 36.2909H40.4366C40.8002 36.2909 41.0912 36.5818 41.0912 36.9454V38.2545H25.4548V36.9454ZM22.2548 43.7818V40.4363C22.2548 40.0727 22.5457 39.7818 22.9093 39.7818H43.5639C43.9275 39.7818 44.2184 40.0727 44.2184 40.4363V43.7818H22.2548Z" fill="#0454A7"/>
</svg>
