<svg width="48" height="48" viewBox="0 0 48 48" fill="none" xmlns="http://www.w3.org/2000/svg">
<path fill-rule="evenodd" clip-rule="evenodd" d="M4.268 4.034H43.732C44.494 4.034 45.186 4.3455 45.6875 4.8465C46.189 5.348 46.5 6.04 46.5 6.802V31.0295V33.679C46.5 34.441 46.189 35.133 45.6875 35.6345C45.186 36.136 44.494 36.447 43.732 36.447H28.9835L30.0345 39.8035H32.6815C33.0335 39.8035 33.319 40.089 33.319 40.441V43.3285C33.319 43.6805 33.0335 43.966 32.6815 43.966H15.3185C14.9665 43.966 14.681 43.6805 14.681 43.3285V40.441C14.681 40.089 14.9665 39.8035 15.3185 39.8035H17.9655L19.0165 36.447H4.268C3.506 36.447 2.814 36.136 2.3125 35.6345C1.8115 35.133 1.5 34.4405 1.5 33.6785V31.029V6.802C1.5 6.04 1.811 5.348 2.3125 4.8465C2.814 4.345 3.506 4.034 4.268 4.034ZM12.228 21.3785V14.867L15.477 16.315V23.5855C15.477 23.794 15.577 23.979 15.7315 24.095C17.998 26.191 20.877 27.239 23.7545 27.239C26.653 27.239 29.5535 26.1755 31.8275 24.0485C31.961 23.9235 32.0285 23.7545 32.0285 23.585H32.032V16.315L36.1755 14.4685C36.3135 14.407 36.4305 14.296 36.497 14.147C36.64 13.8265 36.4965 13.4505 36.1755 13.3075L24.014 7.8875C23.855 7.8165 23.6675 7.811 23.496 7.8875L11.3345 13.3075C11.1965 13.369 11.0795 13.48 11.013 13.629C10.9715 13.721 10.9545 13.818 10.958 13.9125V21.3785C10.738 21.39 10.5335 21.472 10.3685 21.605C10.1895 21.749 10.0595 21.9515 10.0075 22.1885L9.2815 25.507C9.2675 25.5595 9.26 25.615 9.26 25.6725C9.26 26.0245 9.5455 26.3105 9.8975 26.3105H13.2885C13.333 26.3105 13.378 26.3055 13.423 26.2955C13.767 26.221 13.9855 25.882 13.9115 25.5385L13.179 22.189C13.127 21.952 12.997 21.7495 12.8185 21.6055C12.6525 21.472 12.448 21.3905 12.228 21.3785ZM11.9755 22.6525H11.21L10.689 25.0345H12.4965L11.9755 22.6525ZM30.7565 16.883L24.0135 19.888C23.842 19.9645 23.6545 19.959 23.4955 19.888L16.7525 16.883V23.308C18.746 25.0785 21.2495 25.964 23.7545 25.964C26.2595 25.964 28.763 25.0785 30.7565 23.308V16.883ZM29.576 11.7585L23.7545 9.164L13.1545 13.888L16.8 15.5125C16.834 15.524 16.8665 15.539 16.8975 15.556L23.7545 18.612L30.6115 15.5565C30.6425 15.5395 30.675 15.5245 30.709 15.513L34.3545 13.8885L29.576 11.7585ZM27.6495 36.447H20.3505L19.299 39.8035H28.7005L27.6495 36.447ZM19.883 35.1715H28.1165H28.1185H43.7315C44.1415 35.1715 44.5145 35.003 44.7855 34.7325C45.0565 34.462 45.2245 34.089 45.2245 33.679V31.6675H2.7755V33.679C2.7755 34.089 2.9435 34.462 3.2145 34.7325C3.4855 35.0035 3.8585 35.1715 4.2685 35.1715H19.883ZM29.5675 41.0785H18.4325H18.4305H15.956V42.691H32.044V41.0785H29.5675ZM2.7755 30.392H45.225V6.802C45.225 6.392 45.0565 6.019 44.786 5.748C44.515 5.4775 44.142 5.309 43.732 5.309H4.268C3.858 5.309 3.485 5.477 3.214 5.748C2.9435 6.019 2.775 6.392 2.775 6.802L2.7755 30.392Z" fill="#0454A7"/>
</svg>
