<svg width="48" height="48" viewBox="0 0 48 48" fill="none" xmlns="http://www.w3.org/2000/svg">
<path fill-rule="evenodd" clip-rule="evenodd" d="M39.8649 33.2095C37.7288 35.2567 34.1043 38.3495 31.3503 40.134C29.2571 41.4865 27.0461 42.7637 24.9762 42.933C23.3058 43.0707 21.4304 42.4025 19.6605 42.1544C17.3555 41.8158 14.9799 41.7922 12.3691 41.8157V35.1782C13.0277 35.0253 13.6627 34.8653 14.3213 34.696C15.121 34.4772 15.803 34.1315 16.4852 33.7904C17.7083 33.1836 18.7432 32.6591 20.1074 33.0636L25.6348 34.7312C26.1993 34.9006 26.505 35.491 26.3404 36.0413C26.1522 36.6506 25.5172 36.8434 24.9762 36.7352C23.7585 36.4866 22.5444 36.1359 21.3305 36.0155C20.187 35.9021 18.9529 36.1813 17.8024 36.6153C17.4732 36.7423 17.3085 37.1069 17.4261 37.4362C17.5437 37.7655 17.8965 37.9278 18.2493 37.8078C19.2714 37.4438 20.2198 37.1787 21.2129 37.2763C21.9185 37.3446 22.9064 37.5632 23.7767 37.7655C24.2304 37.8717 24.86 38.0383 25.282 38.0383C26.1757 38.0383 26.9755 37.5702 27.3754 36.827C28.081 36.7612 28.7395 36.6247 29.3747 36.4131C31.6797 35.6345 35.2548 33.6306 38.4066 31.8548L38.7359 31.6689C39.1122 31.4502 39.5826 31.5442 39.8649 31.89L39.9354 31.9747C40.2412 32.3369 40.1941 32.8803 39.8649 33.2095ZM11.099 43.3799C11.099 43.5327 10.9814 43.6597 10.8403 43.6597H8.1119C7.97078 43.6597 7.85318 43.5327 7.85318 43.3799V34.3244C7.85318 34.1739 7.97078 34.0539 8.1119 34.0539H10.8403C10.9814 34.0539 11.099 34.1739 11.099 34.3244V43.3799ZM13.7804 29.7849V33.5224C15.1758 33.1968 16.3504 32.2959 17.7319 31.8713V29.7849C17.7319 29.6156 17.3556 29.3098 16.744 29.3098H14.7683C14.1567 29.3097 13.7804 29.6156 13.7804 29.7849ZM23.2593 26.3933V32.6921L26.0112 33.5224C26.5051 33.6729 26.9285 33.9787 27.2107 34.3832V26.3933C27.2107 26.2239 26.8344 25.9205 26.2229 25.9205H24.2471C23.6356 25.9205 23.2593 26.2239 23.2593 26.3933ZM32.7381 20.2802V33.5059C34.0082 32.8543 35.3724 32.1017 36.6896 31.3561V20.2802C36.6896 20.1108 36.3132 19.8074 35.7017 19.8074H33.726C33.1144 19.8075 32.7381 20.1108 32.7381 20.2802ZM40.9233 31.1632L40.8527 31.0785C40.1706 30.267 39.0181 30.046 38.1008 30.5705L37.9596 30.6458V20.2802C37.9596 19.3087 36.9718 18.5396 35.7016 18.5396H33.7259C32.4792 18.5396 31.4678 19.3087 31.4678 20.2802V34.1479C30.4395 34.649 29.3724 35.1181 28.4807 35.3475V26.3933C28.4807 25.4124 27.4929 24.6528 26.2227 24.6528H24.2469C23.0003 24.6528 21.9889 25.4125 21.9889 26.3933V32.3135L20.4835 31.8548C19.9426 31.6949 19.4486 31.636 19.0018 31.6525V29.7849C19.0018 28.8041 17.9903 28.0421 16.7437 28.0421H14.7683C13.4982 28.0421 12.5102 28.8041 12.5102 29.7849V33.8423C12.4397 33.8587 12.3691 33.8752 12.3221 33.894C12.1339 33.2519 11.5224 32.7862 10.8403 32.7862H8.1119C7.26518 32.7862 6.58301 33.4707 6.58301 34.3245V43.38C6.58301 44.2338 7.26509 44.9276 8.1119 44.9276H10.8403C11.687 44.9276 12.3692 44.2337 12.3692 43.38V43.0859C14.933 43.06 17.238 43.0859 19.4724 43.4058C21.3341 43.668 23.1305 44.357 25.0939 44.1914C27.4225 44.0055 29.798 42.646 32.0325 41.1995C34.808 39.4073 37.7951 36.82 39.8413 34.9595C40.1471 34.689 40.4529 34.4092 40.7351 34.1316C41.5584 33.3436 41.6525 32.0429 40.9233 31.1632ZM10.5346 18.6667C10.417 18.335 10.5816 17.9728 10.9109 17.8528C20.2016 14.4799 28.7161 9.99924 36.2192 4.52839L34.6197 4.66241C34.2669 4.69764 33.9611 4.43421 33.9376 4.08852C33.9141 3.74042 34.1493 3.42756 34.5256 3.40404L38.336 3.07476C38.5476 3.05594 38.7593 3.15002 38.9004 3.32647C39.018 3.50522 39.0416 3.74042 38.971 3.94509L37.4891 7.5978C37.348 7.92708 36.9952 8.08001 36.666 7.953C36.3367 7.81658 36.172 7.45197 36.3131 7.12509L36.9483 5.56797C29.3511 11.1071 20.7425 15.6372 11.3578 19.0453C10.9955 19.1607 10.6596 19.0134 10.5346 18.6667ZM35.6076 14.2848C35.5136 14.0237 35.6076 13.7344 35.8428 13.5768L36.666 12.9676L35.6312 12.9746C35.3489 12.9746 35.1137 12.7981 35.0432 12.5347L34.7139 11.5539L34.4081 12.5347C34.314 12.7981 34.0788 12.9746 33.7966 12.9746L32.7617 12.9676L33.6084 13.5768C33.8201 13.7344 33.9142 14.0237 33.8436 14.2848L33.5144 15.2585L34.3376 14.6587C34.5756 14.4864 34.8573 14.4923 35.0902 14.6587L35.9369 15.2585L35.6076 14.2848ZM38.6418 11.6975H36.1016L35.3254 9.29604C35.1253 8.71044 34.2981 8.71514 34.1259 9.29604L33.3497 11.6975H30.8095C30.5272 11.6975 30.292 11.8762 30.198 12.1373C30.1274 12.4008 30.2215 12.6877 30.4331 12.8477L32.4795 14.3271L31.7033 16.7285C31.5019 17.3182 32.1923 17.7919 32.6912 17.4389L34.714 15.95L36.7603 17.4389C37.0007 17.6128 37.2771 17.6039 37.513 17.4389C37.7482 17.2789 37.8187 16.9896 37.7482 16.7285L36.9485 14.3271L38.9948 12.8477C39.5132 12.484 39.2266 11.6975 38.6418 11.6975ZM26.1288 20.3908L26.4346 21.3716L25.6114 20.7624C25.3853 20.6067 25.0848 20.6067 24.8587 20.7624L24.0355 21.3716L24.3413 20.3908C24.4354 20.1273 24.3413 19.8404 24.1296 19.6805L23.2829 19.0783H24.3178C24.5765 19.0783 24.8352 18.9019 24.9293 18.6409L25.235 17.6671L25.5408 18.6409C25.6349 18.902 25.8936 19.0783 26.1523 19.0783H27.1872L26.364 19.6805C26.1288 19.8404 26.0347 20.1273 26.1288 20.3908ZM29.751 18.2433C29.8451 18.5044 29.751 18.7914 29.5158 18.9513L27.4694 20.4402L28.2691 22.8416C28.3397 23.1051 28.2456 23.392 28.0339 23.5519C27.8084 23.7182 27.4959 23.7073 27.2813 23.5519L25.2349 22.0655L23.1886 23.5519C22.6935 23.9214 22.0344 23.3959 22.2008 22.8416L23.0004 20.4402L20.9541 18.9513C20.7424 18.7914 20.6483 18.5045 20.7189 18.2433C20.813 17.9799 21.0482 17.8035 21.3304 17.8035L23.8472 17.8105L24.6233 15.4019C24.8216 14.8181 25.6481 14.8181 25.8464 15.4019L26.6225 17.8105L29.1393 17.8035C29.4217 17.8035 29.6804 17.9799 29.751 18.2433ZM16.65 23.78L16.9557 24.7609L16.1325 24.1517C15.9153 23.9931 15.597 23.9931 15.3799 24.1517L14.5567 24.7609L14.8624 23.78C14.9565 23.5189 14.8624 23.232 14.6272 23.0697L13.804 22.4699H14.8389C15.1212 22.4699 15.3564 22.2935 15.4504 22.0301L15.7562 21.0492L16.062 22.0301C16.156 22.2935 16.3912 22.4699 16.6735 22.4699H17.7084L16.8616 23.0697C16.65 23.2321 16.5559 23.519 16.65 23.78ZM20.2721 21.6326C20.3427 21.896 20.2486 22.183 20.0369 22.3429L17.9906 23.8224L18.7668 26.2332C18.9737 26.8399 18.2513 27.2873 17.8024 26.9435L15.7561 25.4453L13.7098 26.9435C13.4746 27.1035 13.1923 27.1035 12.9571 26.9435C12.7454 26.7812 12.6514 26.4942 12.7219 26.2332L13.5216 23.8224L11.4753 22.3429C10.9567 21.9793 11.2433 21.1927 11.8281 21.1927L14.3683 21.2021L15.1445 18.7913C15.3394 18.2198 16.1665 18.1915 16.344 18.7913L17.1202 21.2021L19.6604 21.1927C19.9428 21.1928 20.178 21.3716 20.2721 21.6326Z" fill="#0454A7"/>
</svg>
