<svg width="48" height="48" viewBox="0 0 48 48" fill="none" xmlns="http://www.w3.org/2000/svg">
<g clip-path="url(#clip0_148_809)">
<path d="M12.7803 23.25C12.6572 23.2501 12.5359 23.22 12.4272 23.1622C12.3185 23.1044 12.2257 23.0207 12.157 22.9185C10.8052 20.8983 9.99255 18.5659 9.79645 16.1431C9.60035 13.7202 10.0273 11.2875 11.0366 9.07621C12.046 6.86493 13.6043 4.94859 15.5632 3.50944C17.5222 2.07029 19.8167 1.15617 22.2286 0.854005C24.6405 0.551836 27.0896 0.871666 29.343 1.78308C31.5965 2.6945 33.5793 4.1672 35.103 6.06114C36.6266 7.95508 37.6405 10.2073 38.0482 12.6036C38.4558 15 38.2437 17.4608 37.432 19.752C37.3989 19.8448 37.3479 19.9301 37.2818 20.0032C37.2157 20.0762 37.1359 20.1356 37.0469 20.1778C36.9579 20.22 36.8614 20.2442 36.7631 20.2492C36.6647 20.2541 36.5663 20.2396 36.4735 20.2065C36.3807 20.1734 36.2954 20.1224 36.2223 20.0563C36.1493 19.9902 36.09 19.9104 36.0478 19.8214C36.0055 19.7324 35.9813 19.6359 35.9764 19.5375C35.9714 19.4392 35.9859 19.3408 36.019 19.248C36.5042 17.8843 36.7513 16.4474 36.7495 15C36.7507 13.0085 36.2853 11.0443 35.3907 9.26505C34.4961 7.48575 33.1972 5.94076 31.5979 4.7539C29.9987 3.56704 28.1436 2.77131 26.1815 2.43049C24.2193 2.08967 22.2046 2.21323 20.2988 2.79128C18.393 3.36932 16.6491 4.38578 15.2069 5.75917C13.7647 7.13257 12.6642 8.82472 11.9938 10.7C11.3233 12.5753 11.1015 14.5816 11.346 16.558C11.5906 18.5345 12.2947 20.4262 13.402 22.0815C13.4779 22.1943 13.5216 22.3256 13.5286 22.4614C13.5356 22.5972 13.5056 22.7323 13.4417 22.8523C13.3779 22.9723 13.2826 23.0727 13.1661 23.1428C13.0496 23.2128 12.9162 23.2499 12.7803 23.25Z" fill="#0454A7"/>
<path d="M24.0001 8.706C20.613 8.7064 17.337 7.49791 14.7616 5.298C14.6867 5.23398 14.6252 5.15585 14.5805 5.06806C14.5359 4.98027 14.509 4.88454 14.5013 4.78634C14.4936 4.68814 14.5054 4.5894 14.5359 4.49574C14.5664 4.40209 14.615 4.31536 14.6791 4.2405C14.8084 4.08933 14.9924 3.99571 15.1907 3.98024C15.2889 3.97258 15.3877 3.98433 15.4813 4.01483C15.575 4.04534 15.6617 4.09398 15.7366 4.158C18.0404 6.12532 20.9705 7.20611 24.0001 7.206C27.0297 7.20649 29.9602 6.12596 32.2643 4.15875C32.3392 4.09473 32.4259 4.04609 32.5195 4.01558C32.6132 3.98508 32.7119 3.97333 32.8101 3.98099C32.9083 3.98865 33.0041 4.01558 33.0919 4.06023C33.1797 4.10489 33.2578 4.1664 33.3218 4.24125C33.3858 4.31611 33.4345 4.40284 33.465 4.49649C33.4955 4.59015 33.5072 4.68889 33.4996 4.78709C33.4919 4.88529 33.465 4.98102 33.4203 5.06881C33.3757 5.1566 33.3142 5.23473 33.2393 5.29875C30.6636 7.49855 27.3873 8.70679 24.0001 8.706Z" fill="#0454A7"/>
<path d="M18.1429 23.25C17.9874 23.25 17.8357 23.2016 17.7088 23.1116C17.582 23.0216 17.4862 22.8943 17.4349 22.7475C16.5999 20.2507 16.1853 17.6326 16.2079 15C16.2079 7.0095 19.6309 0.75 24.0004 0.75C28.3699 0.75 31.7929 7.0095 31.7929 15C31.796 16.5553 31.6561 18.1076 31.3752 19.6373C31.3589 19.7357 31.3232 19.8299 31.2701 19.9143C31.217 19.9988 31.1476 20.0718 31.066 20.1291C30.9843 20.1864 30.892 20.2269 30.7945 20.2481C30.6971 20.2693 30.5963 20.2708 30.4983 20.2526C30.4002 20.2344 30.3067 20.1968 30.2233 20.142C30.1399 20.0872 30.0683 20.0164 30.0127 19.9336C29.957 19.8508 29.9185 19.7577 29.8992 19.6598C29.88 19.5619 29.8805 19.4612 29.9007 19.3635C30.1647 17.9241 30.296 16.4634 30.2929 15C30.2929 8.08875 27.4114 2.25 24.0004 2.25C20.5894 2.25 17.7079 8.08875 17.7079 15C17.685 17.4641 18.0713 19.9149 18.8509 22.2525C18.8904 22.3656 18.9023 22.4864 18.8855 22.605C18.8688 22.7236 18.8238 22.8364 18.7545 22.9341C18.6852 23.0318 18.5935 23.1114 18.4871 23.1664C18.3807 23.2213 18.2627 23.25 18.1429 23.25Z" fill="#0454A7"/>
<path d="M24 20.25C23.8011 20.25 23.6103 20.171 23.4697 20.0303C23.329 19.8897 23.25 19.6989 23.25 19.5V1.5C23.25 1.30109 23.329 1.11032 23.4697 0.96967C23.6103 0.829018 23.8011 0.75 24 0.75C24.1989 0.75 24.3897 0.829018 24.5303 0.96967C24.671 1.11032 24.75 1.30109 24.75 1.5V19.5C24.75 19.6989 24.671 19.8897 24.5303 20.0303C24.3897 20.171 24.1989 20.25 24 20.25Z" fill="#0454A7"/>
<path d="M37.5 15.75H10.5C10.3011 15.75 10.1103 15.671 9.96967 15.5303C9.82902 15.3897 9.75 15.1989 9.75 15C9.75 14.8011 9.82902 14.6103 9.96967 14.4697C10.1103 14.329 10.3011 14.25 10.5 14.25H37.5C37.6989 14.25 37.8897 14.329 38.0303 14.4697C38.171 14.6103 38.25 14.8011 38.25 15C38.25 15.1989 38.171 15.3897 38.0303 15.5303C37.8897 15.671 37.6989 15.75 37.5 15.75Z" fill="#0454A7"/>
<path d="M34.4996 36.75C34.3007 36.75 34.1099 36.6709 33.9693 36.5303L23.0943 25.6553C22.9577 25.5138 22.8821 25.3243 22.8838 25.1277C22.8855 24.9311 22.9644 24.7429 23.1035 24.6039C23.2425 24.4648 23.4306 24.386 23.6273 24.3842C23.8239 24.3825 24.0134 24.4581 24.1548 24.5948L35.0298 35.4698C35.1347 35.5746 35.2061 35.7083 35.235 35.8537C35.2639 35.9992 35.2491 36.15 35.1923 36.287C35.1356 36.424 35.0395 36.5411 34.9162 36.6236C34.7929 36.706 34.6479 36.75 34.4996 36.75Z" fill="#0454A7"/>
<path d="M35.2496 42.6195C34.8726 42.6202 34.4991 42.5464 34.1507 42.4024C33.8023 42.2584 33.4858 42.0469 33.2193 41.7803L32.0718 40.6327C31.9352 40.4913 31.8596 40.3018 31.8613 40.1052C31.863 39.9086 31.9419 39.7204 32.081 39.5814C32.22 39.4423 32.4081 39.3635 32.6048 39.3617C32.8014 39.36 32.9909 39.4356 33.1323 39.5723L34.2798 40.7197C34.5373 40.9765 34.886 41.1207 35.2496 41.1207C35.6132 41.1207 35.9619 40.9765 36.2193 40.7197C36.4727 40.4605 36.6145 40.1125 36.6145 39.75C36.6145 39.3875 36.4727 39.0395 36.2193 38.7803L23.0943 25.6553C22.9577 25.5138 22.8821 25.3243 22.8838 25.1277C22.8855 24.9311 22.9644 24.7429 23.1035 24.6039C23.2425 24.4648 23.4306 24.386 23.6273 24.3842C23.8239 24.3825 24.0134 24.4581 24.1548 24.5948L37.2798 37.7198C37.6816 38.1211 37.9553 38.6326 38.0662 39.1895C38.1771 39.7465 38.1203 40.3238 37.9029 40.8484C37.6855 41.3731 37.3174 41.8214 36.845 42.1367C36.3727 42.4519 35.8175 42.62 35.2496 42.6195Z" fill="#0454A7"/>
<path d="M30.8473 44.25C30.466 44.2511 30.0882 44.1766 29.7359 44.0307C29.3835 43.8849 29.0636 43.6706 28.7946 43.4002L26.8746 41.4795C26.738 41.338 26.6624 41.1486 26.6641 40.9519C26.6658 40.7553 26.7447 40.5672 26.8837 40.4281C27.0228 40.2891 27.2109 40.2102 27.4075 40.2085C27.6042 40.2068 27.7936 40.2824 27.9351 40.419L29.8551 42.3397C30.1227 42.5944 30.4779 42.7364 30.8473 42.7364C31.2168 42.7364 31.572 42.5944 31.8396 42.3397C31.9701 42.2096 32.0736 42.055 32.144 41.8847C32.2144 41.7144 32.2504 41.5318 32.2498 41.3475C32.2488 41.0552 32.1573 40.7705 31.9881 40.5322C31.9436 40.4686 31.8934 40.4091 31.8381 40.3545L27.2713 35.7795C27.2017 35.7098 27.1465 35.6271 27.1088 35.5361C27.0712 35.445 27.0518 35.3475 27.0518 35.249C27.0519 35.1505 27.0713 35.0529 27.109 34.9619C27.1468 34.8709 27.202 34.7882 27.2717 34.7186C27.3414 34.649 27.4241 34.5938 27.5151 34.5561C27.6062 34.5184 27.7037 34.499 27.8022 34.4991C27.9007 34.4991 27.9983 34.5186 28.0893 34.5563C28.1803 34.594 28.263 34.6493 28.3326 34.719L32.9001 39.294C33.0169 39.4109 33.123 39.5379 33.2173 39.6735C33.5246 40.1078 33.7066 40.6183 33.7432 41.1491C33.7799 41.6799 33.6699 42.2106 33.4252 42.683C33.1805 43.1555 32.8106 43.5516 32.356 43.8279C31.9013 44.1043 31.3794 44.2503 30.8473 44.25Z" fill="#0454A7"/>
<path d="M9 39H1.5C1.30109 39 1.11032 38.921 0.96967 38.7803C0.829018 38.6397 0.75 38.4489 0.75 38.25V21C0.75 20.8011 0.829018 20.6103 0.96967 20.4697C1.11032 20.329 1.30109 20.25 1.5 20.25H9C9.19891 20.25 9.38968 20.329 9.53033 20.4697C9.67098 20.6103 9.75 20.8011 9.75 21V38.25C9.75 38.4489 9.67098 38.6397 9.53033 38.7803C9.38968 38.921 9.19891 39 9 39ZM2.25 37.5H8.25V21.75H2.25V37.5Z" fill="#0454A7"/>
<path d="M46.5 36H39C38.8011 36 38.6103 35.921 38.4697 35.7803C38.329 35.6397 38.25 35.4489 38.25 35.25V18C38.25 17.8011 38.329 17.6103 38.4697 17.4697C38.6103 17.329 38.8011 17.25 39 17.25H46.5C46.6989 17.25 46.8897 17.329 47.0303 17.4697C47.171 17.6103 47.25 17.8011 47.25 18V35.25C47.25 35.4489 47.171 35.6397 47.0303 35.7803C46.8897 35.921 46.6989 36 46.5 36ZM39.75 34.5H45.75V18.75H39.75V34.5Z" fill="#0454A7"/>
<path d="M34.5001 36.75C34.3518 36.75 34.2068 36.706 34.0835 36.6236C33.9602 36.5411 33.8641 36.424 33.8074 36.287C33.7506 36.15 33.7358 35.9992 33.7647 35.8537C33.7936 35.7083 33.865 35.5746 33.9699 35.4697L36.2199 33.2197C36.3605 33.0791 36.5512 33 36.7501 33H38.2501V20.25H23.5606L18.5304 25.2803C18.2822 25.5393 18.1454 25.8852 18.1493 26.2439C18.1531 26.6026 18.2973 26.9455 18.551 27.1991C18.8046 27.4528 19.1475 27.597 19.5062 27.6008C19.8649 27.6047 20.2108 27.4679 20.4699 27.2197L24.2199 23.4697C24.3605 23.3291 24.5512 23.25 24.7501 23.25H29.2501C29.449 23.25 29.6398 23.329 29.7804 23.4697C29.9211 23.6103 30.0001 23.8011 30.0001 24C30.0001 24.1989 29.9211 24.3897 29.7804 24.5303C29.6398 24.671 29.449 24.75 29.2501 24.75H25.0606L21.5304 28.2803C20.9919 28.8187 20.2616 29.1212 19.5001 29.1212C18.7386 29.1212 18.0083 28.8187 17.4699 28.2803C16.9314 27.7418 16.6289 27.0115 16.6289 26.25C16.6289 25.4885 16.9314 24.7582 17.4699 24.2197L22.7199 18.9697C22.8605 18.8291 23.0512 18.75 23.2501 18.75H39.0001C39.199 18.75 39.3898 18.829 39.5304 18.9697C39.6711 19.1103 39.7501 19.3011 39.7501 19.5V33.75C39.7501 33.9489 39.6711 34.1397 39.5304 34.2803C39.3898 34.421 39.199 34.5 39.0001 34.5H37.0606L35.0304 36.5303C34.8897 36.6709 34.699 36.75 34.5001 36.75Z" fill="#0454A7"/>
<path d="M25.5746 45C24.8017 45.0019 24.0591 44.6993 23.5076 44.1577L23.2016 43.8577C23.0594 43.7185 22.9783 43.5285 22.9762 43.3294C22.9741 43.1304 23.0511 42.9387 23.1903 42.7965C23.3296 42.6543 23.5196 42.5732 23.7186 42.5711C23.9177 42.569 24.1094 42.646 24.2516 42.7852L24.5591 43.0852C24.8294 43.3504 25.193 43.4989 25.5716 43.4989C25.9502 43.4989 26.3138 43.3504 26.5841 43.0852C26.7159 42.9567 26.8205 42.8031 26.8919 42.6334C26.9632 42.4638 26.9999 42.2815 26.9996 42.0975C27.0007 41.8154 26.9131 41.5402 26.7491 41.3107C26.7008 41.2365 26.6448 41.1676 26.5818 41.1052L21.9746 36.5407C21.8495 36.3983 21.783 36.2138 21.7884 36.0243C21.7938 35.8348 21.8708 35.6544 22.0038 35.5194C22.1369 35.3844 22.3161 35.3047 22.5055 35.2965C22.6949 35.2882 22.8803 35.352 23.0246 35.475L27.6386 40.044C27.7692 40.1736 27.8861 40.3163 27.9873 40.47C28.3232 40.946 28.5023 41.5149 28.4996 42.0975C28.5009 42.4806 28.4253 42.8601 28.2773 43.2135C28.1292 43.5668 27.9118 43.8869 27.6378 44.1547C27.0892 44.6986 26.3471 45.0026 25.5746 45Z" fill="#0454A7"/>
<path d="M21.8483 47.25C21.4679 47.2502 21.0913 47.1754 20.7398 47.03C20.3884 46.8846 20.069 46.6714 19.8 46.4025L10.938 37.5H9C8.80109 37.5 8.61032 37.421 8.46967 37.2803C8.32902 37.1397 8.25 36.9489 8.25 36.75V22.5C8.25 22.3011 8.32902 22.1103 8.46967 21.9697C8.61032 21.829 8.80109 21.75 9 21.75H20.25C20.4489 21.75 20.6397 21.829 20.7803 21.9697C20.921 22.1103 21 22.3011 21 22.5C21 22.6989 20.921 22.8897 20.7803 23.0303C20.6397 23.171 20.4489 23.25 20.25 23.25H9.75V36H11.25C11.3488 36 11.4467 36.0196 11.538 36.0575C11.6292 36.0955 11.7121 36.1511 11.7817 36.2212L20.8568 45.3428C21.1204 45.6041 21.4766 45.7508 21.8479 45.7508C22.2191 45.7508 22.5754 45.6041 22.839 45.3428C22.969 45.2134 23.0721 45.0597 23.1425 44.8903C23.2128 44.721 23.249 44.5395 23.249 44.3561C23.249 44.1728 23.2128 43.9912 23.1425 43.8219C23.0721 43.6526 22.969 43.4988 22.839 43.3695L18.2745 38.8177C18.2028 38.7487 18.1455 38.666 18.1061 38.5745C18.0667 38.4831 18.0458 38.3847 18.0448 38.2851C18.0438 38.1856 18.0627 38.0868 18.1003 37.9946C18.1378 37.9023 18.1934 37.8185 18.2637 37.748C18.334 37.6775 18.4177 37.6217 18.5098 37.5838C18.6019 37.546 18.7007 37.5269 18.8002 37.5276C18.8998 37.5283 18.9983 37.5489 19.0898 37.588C19.1814 37.6272 19.2642 37.6842 19.3335 37.7557L23.8988 42.3075C24.3043 42.7124 24.5806 43.2286 24.6925 43.7907C24.8044 44.3528 24.7469 44.9355 24.5272 45.4648C24.3076 45.9942 23.9358 46.4465 23.4588 46.7643C22.9819 47.0821 22.4214 47.2511 21.8483 47.25Z" fill="#0454A7"/>
</g>
<defs>
<clipPath id="clip0_148_809">
<rect width="48" height="48" fill="white"/>
</clipPath>
</defs>
</svg>
