<svg width="48" height="48" viewBox="0 0 48 48" fill="none" xmlns="http://www.w3.org/2000/svg">
<path d="M41.9273 6.36139H37.8791V2.31328C37.8792 1.0409 36.8381 0 35.5664 0H6.07197C4.79969 0 3.75879 1.0409 3.75879 2.31328V39.3252C3.75879 40.5975 4.79969 41.6385 6.07207 41.6385H10.1203V45.6867C10.1203 46.959 11.1607 48 12.4336 48H32.0956C33.3673 48 35.167 47.2864 36.0929 46.4149L42.555 40.3322C43.482 39.4607 44.2396 37.7061 44.2396 36.4338L44.2407 8.67486C44.2406 7.40239 43.1996 6.36139 41.9273 6.36139ZM10.1201 8.67476V39.9036H6.07197C5.75857 39.9036 5.49372 39.6387 5.49372 39.3253V2.31328C5.49372 1.99987 5.75857 1.73503 6.07197 1.73503H35.5665C35.8794 1.73503 36.1448 1.99987 36.1448 2.31328V6.36149H12.4334C11.1605 6.36149 10.1201 7.40239 10.1201 8.67476ZM41.3659 39.069L34.9038 45.1512C34.7714 45.2756 34.599 45.3976 34.4087 45.5138V40.1927C34.4087 39.7954 34.5689 39.4379 34.8332 39.172C35.0998 38.9077 35.4572 38.747 35.8545 38.747H41.6406C41.5508 38.8689 41.459 38.9811 41.3659 39.069ZM42.5045 36.4336C42.5045 36.6054 42.4732 36.8043 42.4258 37.0119H35.8544C34.0993 37.0153 32.6772 38.4374 32.6737 40.1926V46.1949C32.4672 46.2366 32.2683 46.2648 32.0954 46.2648H12.4334V46.2649C12.1193 46.2649 11.8551 46 11.8551 45.6866V8.67467C11.8551 8.36127 12.1194 8.09642 12.4334 8.09642H41.9272C42.2407 8.09642 42.5055 8.36127 42.5055 8.67467L42.5045 36.4336Z" fill="#0454A7"/>
<path d="M35.5672 14.4577H18.7962C18.3167 14.4577 17.9287 14.8457 17.9287 15.3252C17.9287 15.8046 18.3168 16.1926 18.7962 16.1926H35.5672C36.0461 16.1926 36.4346 15.8046 36.4346 15.3252C36.4346 14.8457 36.0461 14.4577 35.5672 14.4577Z" fill="#0454A7"/>
<path d="M35.5672 26.024H18.7962C18.3167 26.024 17.9287 26.412 17.9287 26.8915C17.9287 27.3709 18.3168 27.7589 18.7962 27.7589H35.5672C36.0461 27.7589 36.4346 27.3709 36.4346 26.8915C36.4346 26.4119 36.0461 26.024 35.5672 26.024Z" fill="#0454A7"/>
<path d="M28.0491 31.8071H18.7962C18.3167 31.8071 17.9287 32.1952 17.9287 32.6746C17.9287 33.154 18.3167 33.5421 18.7962 33.5421H28.0491C28.528 33.5421 28.916 33.154 28.916 32.6746C28.916 32.1952 28.528 31.8071 28.0491 31.8071Z" fill="#0454A7"/>
<path d="M35.5672 20.2408H18.7962C18.3167 20.2408 17.9287 20.6289 17.9287 21.1083C17.9287 21.5877 18.3168 21.9758 18.7962 21.9758H35.5672C36.0461 21.9758 36.4346 21.5877 36.4346 21.1083C36.4346 20.6289 36.0461 20.2408 35.5672 20.2408Z" fill="#0454A7"/>
</svg>
