<svg width="24" height="24" viewBox="0 0 24 24" fill="none" xmlns="http://www.w3.org/2000/svg">
<path d="M18.4385 4.95395H16.5005V3.54595C16.5005 3.28395 16.2705 3.03395 16.0005 3.04595C15.8687 3.04851 15.743 3.10201 15.6498 3.19523C15.5566 3.28845 15.5031 3.41414 15.5005 3.54595V4.95395H8.5005V3.54595C8.5005 3.28395 8.2705 3.03395 8.0005 3.04595C7.86869 3.04851 7.743 3.10201 7.64978 3.19523C7.55656 3.28845 7.50306 3.41414 7.5005 3.54595V4.95395H5.5625C4.8997 4.95474 4.26428 5.21839 3.79561 5.68706C3.32694 6.15573 3.06329 6.79115 3.0625 7.45395V18.4539C3.0625 19.8329 4.1845 20.9539 5.5625 20.9539H18.4375C19.8165 20.9539 20.9375 19.8329 20.9375 18.4539V7.45395C20.9375 6.79108 20.6742 6.15535 20.2056 5.68653C19.737 5.21772 19.1014 4.95421 18.4385 4.95395ZM5.5625 5.95395H7.5005V6.54595C7.5005 6.80795 7.7305 7.05795 8.0005 7.04595C8.2715 7.03395 8.5005 6.82595 8.5005 6.54595V5.95395H15.5005V6.54595C15.5005 6.80795 15.7305 7.05795 16.0005 7.04595C16.2715 7.03395 16.5005 6.82595 16.5005 6.54595V5.95395H18.4375C19.2645 5.95395 19.9375 6.62695 19.9375 7.45395V9.03795H4.0625V7.45395C4.0625 6.62695 4.7355 5.95395 5.5625 5.95395ZM18.4385 19.9539H5.5625C4.7355 19.9539 4.0625 19.2809 4.0625 18.4539V10.0379H19.9375V18.4539C19.9375 18.8516 19.7796 19.233 19.4985 19.5143C19.2174 19.7955 18.8362 19.9537 18.4385 19.9539Z" fill="#0454A7"/>
</svg>
