<svg width="24" height="24" viewBox="0 0 24 24" fill="none" xmlns="http://www.w3.org/2000/svg">
<path d="M13.028 2C14.153 2.003 14.7239 2.009 15.2169 2.023L15.4109 2.03C15.6349 2.038 15.8559 2.048 16.1229 2.06C17.1868 2.11 17.9128 2.27799 18.5497 2.52499C19.2097 2.77898 19.7657 3.12297 20.3216 3.67796C20.8303 4.17768 21.2238 4.7824 21.4746 5.44992C21.7216 6.0869 21.8896 6.81288 21.9396 7.87786C21.9516 8.14385 21.9616 8.36485 21.9696 8.58984L21.9756 8.78384C21.9906 9.27582 21.9966 9.84681 21.9986 10.9718L21.9996 11.7178V13.0277C22.002 13.7571 21.9943 14.4865 21.9766 15.2157L21.9706 15.4097C21.9626 15.6347 21.9526 15.8557 21.9406 16.1217C21.8906 17.1866 21.7206 17.9116 21.4746 18.5496C21.2238 19.2171 20.8303 19.8218 20.3216 20.3216C19.8219 20.8302 19.2172 21.2237 18.5497 21.4745C17.9128 21.7215 17.1868 21.8895 16.1229 21.9395L15.4109 21.9695L15.2169 21.9755C14.7239 21.9895 14.153 21.9965 13.028 21.9985L12.282 21.9995H10.9731C10.2434 22.0021 9.51371 21.9944 8.78423 21.9765L8.59024 21.9705C8.35286 21.9615 8.11553 21.9512 7.87827 21.9395C6.81433 21.8895 6.08836 21.7215 5.45039 21.4745C4.78326 21.2236 4.1789 20.8301 3.67948 20.3216C3.17045 19.8219 2.77664 19.2172 2.52554 18.5496C2.27855 17.9126 2.11056 17.1866 2.06057 16.1217L2.03057 15.4097L2.02557 15.2157C2.00713 14.4865 1.9988 13.7571 2.00057 13.0277V10.9718C1.9978 10.2424 2.00513 9.51302 2.02257 8.78384L2.02957 8.58984C2.03757 8.36485 2.04757 8.14385 2.05957 7.87786C2.10956 6.81288 2.27755 6.0879 2.52454 5.44992C2.77622 4.78213 3.17073 4.17738 3.68048 3.67796C4.17961 3.16952 4.78362 2.77605 5.45039 2.52499C6.08836 2.27799 6.81333 2.11 7.87827 2.06C8.14426 2.048 8.36625 2.038 8.59024 2.03L8.78423 2.024C9.51338 2.00623 10.2427 1.99857 10.9721 2.001L13.028 2ZM12.0001 6.99988C10.674 6.99988 9.40234 7.52665 8.46471 8.46431C7.52707 9.40197 7.00032 10.6737 7.00032 11.9998C7.00032 13.3258 7.52707 14.5975 8.46471 15.5352C9.40234 16.4729 10.674 16.9996 12.0001 16.9996C13.3261 16.9996 14.5978 16.4729 15.5354 15.5352C16.4731 14.5975 16.9998 13.3258 16.9998 11.9998C16.9998 10.6737 16.4731 9.40197 15.5354 8.46431C14.5978 7.52665 13.3261 6.99988 12.0001 6.99988ZM12.0001 8.99983C12.394 8.99976 12.7841 9.0773 13.1481 9.228C13.5121 9.3787 13.8428 9.59961 14.1214 9.87814C14.4 10.1567 14.6211 10.4873 14.7719 10.8513C14.9227 11.2152 15.0003 11.6053 15.0004 11.9993C15.0005 12.3932 14.923 12.7833 14.7723 13.1473C14.6216 13.5113 14.4006 13.8421 14.1221 14.1207C13.8436 14.3993 13.513 14.6203 13.149 14.7711C12.7851 14.922 12.395 14.9996 12.0011 14.9997C11.2055 14.9997 10.4424 14.6836 9.87985 14.121C9.31727 13.5584 9.00122 12.7954 9.00122 11.9998C9.00122 11.2041 9.31727 10.4411 9.87985 9.87849C10.4424 9.31589 11.2055 8.99983 12.0011 8.99983M17.2508 5.49992C16.9193 5.49992 16.6014 5.63161 16.367 5.86602C16.1326 6.10044 16.0009 6.41837 16.0009 6.74989C16.0009 7.0814 16.1326 7.39933 16.367 7.63375C16.6014 7.86816 16.9193 7.99986 17.2508 7.99986C17.5823 7.99986 17.9002 7.86816 18.1346 7.63375C18.369 7.39933 18.5007 7.0814 18.5007 6.74989C18.5007 6.41837 18.369 6.10044 18.1346 5.86602C17.9002 5.63161 17.5823 5.49992 17.2508 5.49992Z" fill="white"/>
</svg>
