<svg width="24" height="24" viewBox="0 0 24 24" fill="none" xmlns="http://www.w3.org/2000/svg">
<path d="M13 4C8.02494 4 4 8.03844 4 13C4 17.9501 8.0104 22 13 22C17.9734 22 22 17.9628 22 13C22 8.04165 17.9774 4 13 4ZM19.3553 18.3068C18.6509 17.9447 17.8525 17.6619 17.0767 17.4605C17.4403 16.2201 17.6469 14.8204 17.6761 13.36H21.2722C21.1936 15.1762 20.5217 16.9114 19.3553 18.3068ZM6.64463 18.3068C5.4783 16.9114 4.80644 15.1762 4.72781 13.36H8.32389C8.35312 14.8204 8.55972 16.2201 8.92325 17.4605C8.1467 17.6623 7.36175 17.9397 6.64463 18.3068ZM6.64463 7.69317C7.3606 8.05997 8.14785 8.33764 8.92325 8.53949C8.55972 9.77994 8.35312 11.1796 8.32389 12.64H4.72781C4.80644 10.8238 5.4783 9.08856 6.64463 7.69317ZM16.8542 7.85452C16.4897 6.83831 15.9472 5.77703 15.1882 5.0156C16.562 5.39295 17.8275 6.12123 18.8494 7.14057C18.2247 7.44203 17.5082 7.69101 16.8542 7.85452ZM13.36 8.31582V4.75553C14.2391 4.92779 15.0708 5.7276 15.7327 7.05161C15.8841 7.35444 16.0224 7.67679 16.1472 8.01562C15.2296 8.19976 14.2883 8.29617 13.36 8.31582ZM12.64 8.31582C11.7038 8.29602 10.7599 8.19803 9.85277 8.01562C9.97758 7.67675 10.1159 7.35441 10.2673 7.05161C10.9293 5.7276 11.7609 4.92776 12.64 4.75553V8.31582ZM12.64 9.03597V12.64H9.044C9.07319 11.2313 9.27346 9.88661 9.62489 8.70304C10.5574 8.89604 11.5777 9.01437 12.64 9.03597ZM12.64 13.36V16.964C11.6367 16.9844 10.6035 17.0936 9.62493 17.297C9.27346 16.1134 9.07319 14.7687 9.044 13.36H12.64ZM12.64 17.6842V21.2445C11.7609 21.0722 10.9293 20.2724 10.2673 18.9484C10.1159 18.6456 9.97758 18.3232 9.85277 17.9844C10.725 17.8083 11.6741 17.7046 12.64 17.6842ZM13.36 17.6842C14.3236 17.7046 15.2689 17.8074 16.1472 17.9844C16.0224 18.3232 15.8841 18.6456 15.7327 18.9484C15.0707 20.2724 14.2391 21.0722 13.36 21.2445V17.6842ZM13.36 16.964V13.36H16.956C16.9268 14.7687 16.7266 16.1134 16.3751 17.297C15.4481 17.1044 14.4208 16.9856 13.36 16.964ZM13.36 12.64V9.03597C14.4342 9.01412 15.4506 8.89409 16.3751 8.70304C16.7266 9.88658 16.9268 11.2313 16.956 12.64H13.36ZM9.14577 7.85452C8.47077 7.68406 7.77557 7.44264 7.15061 7.14057C8.17254 6.12123 9.43802 5.39295 10.8118 5.0156C10.0517 5.77815 9.5094 6.8408 9.14577 7.85452ZM9.14577 18.1455C9.50926 19.159 10.0516 20.2218 10.8118 20.9844C9.43802 20.6071 8.17254 19.8787 7.15061 18.8594C7.77651 18.5567 8.47203 18.3164 9.14577 18.1455ZM16.8542 18.1455C17.4993 18.3067 18.225 18.5573 18.8494 18.8594C17.8275 19.8787 16.562 20.6071 15.1882 20.9844C15.9484 20.2218 16.4908 19.1589 16.8542 18.1455ZM17.6761 12.64C17.6469 11.1796 17.4403 9.77994 17.0767 8.53949C17.8655 8.33465 18.6555 8.05209 19.3554 7.6932C20.5217 9.08856 21.1936 10.8238 21.2722 12.64H17.6761V12.64Z" fill="#0454A7"/>
</svg>
