<svg width="24" height="24" viewBox="0 0 24 24" fill="none" xmlns="http://www.w3.org/2000/svg">
<path d="M6.39951 4.76001C7.88982 3.2995 9.89631 2.48614 11.9829 2.49668C14.0696 2.50722 16.0677 3.34081 17.5432 4.8163C19.0187 6.29179 19.8523 8.28995 19.8628 10.3766C19.8734 12.4632 19.06 14.4697 17.5995 15.96L13.4135 20.146C13.0385 20.521 12.5298 20.7316 11.9995 20.7316C11.4692 20.7316 10.9606 20.521 10.5855 20.146L6.39951 15.96C4.91439 14.4747 4.08008 12.4604 4.08008 10.36C4.08008 8.25964 4.91439 6.24528 6.39951 4.76001Z" stroke="#231F20" stroke-linejoin="round"/>
<path d="M12 13.36C13.6569 13.36 15 12.0169 15 10.36C15 8.70316 13.6569 7.36002 12 7.36002C10.3431 7.36002 9 8.70316 9 10.36C9 12.0169 10.3431 13.36 12 13.36Z" stroke="#231F20" stroke-linecap="round" stroke-linejoin="round"/>
</svg>
