<svg width="24" height="24" viewBox="0 0 24 24" fill="none" xmlns="http://www.w3.org/2000/svg">
<path d="M19.4345 4.065H4.56445C3.90141 4.065 3.26553 4.32839 2.79669 4.79724C2.32785 5.26608 2.06445 5.90196 2.06445 6.565V17.435C2.06445 18.098 2.32785 18.7339 2.79669 19.2028C3.26553 19.6716 3.90141 19.935 4.56445 19.935H19.4345C20.0975 19.935 20.7334 19.6716 21.2022 19.2028C21.6711 18.7339 21.9345 18.098 21.9345 17.435V6.565C21.9345 5.90196 21.6711 5.26608 21.2022 4.79724C20.7334 4.32839 20.0975 4.065 19.4345 4.065ZM4.56445 5.065H19.4345C19.8129 5.06415 20.1775 5.20733 20.4542 5.46548C20.7309 5.72364 20.8991 6.07741 20.9245 6.455C18.4545 7.775 15.9745 9.085 13.4945 10.405C13.1595 10.6162 12.8044 10.7937 12.4345 10.935C12.1444 10.9924 11.8454 10.9874 11.5574 10.9201C11.2694 10.8529 10.9991 10.725 10.7645 10.545C9.34445 9.795 7.92445 9.035 6.51445 8.285C5.37445 7.685 4.21445 7.075 3.07445 6.465C3.09741 6.08563 3.26447 5.72938 3.54145 5.46913C3.81843 5.20888 4.18439 5.06431 4.56445 5.065ZM20.9345 17.435C20.9345 17.8328 20.7764 18.2144 20.4951 18.4957C20.2138 18.777 19.8323 18.935 19.4345 18.935H4.56445C4.16663 18.935 3.7851 18.777 3.50379 18.4957C3.22249 18.2144 3.06445 17.8328 3.06445 17.435V7.6C5.42445 8.84 7.77445 10.1 10.1345 11.35C10.556 11.6087 11.0099 11.8105 11.4845 11.95C12.1788 12.0631 12.8906 11.9172 13.4845 11.54C14.9345 10.78 16.3745 10.01 17.8245 9.25C18.8645 8.69 19.8945 8.15 20.9345 7.6V17.435Z" fill="#0454A7"/>
</svg>
