<svg width="48" height="48" viewBox="0 0 48 48" fill="none" xmlns="http://www.w3.org/2000/svg">
<path d="M14.231 24.5943C14.231 23.302 13.3332 22.53 11.7502 22.53C11.104 22.53 10.6671 22.5929 10.4375 22.6542V26.8048C10.7096 26.866 11.0428 26.8881 11.5002 26.8881C13.1887 26.8881 14.231 26.0328 14.231 24.5943ZM24.0354 22.5708C23.3264 22.5708 22.8673 22.6338 22.5952 22.6967V31.8923C22.8673 31.9552 23.3043 31.9552 23.7005 31.9552C26.5775 31.9756 28.4547 30.3909 28.4547 27.0343C28.4768 24.1148 26.7662 22.5708 24.0354 22.5708Z" fill="#0454A7"/>
<path d="M42.8195 17.1687H41.6666V11.6068L41.6564 11.5014C41.6575 11.2778 41.5785 11.0612 41.4337 10.8909L32.1785 0.321375L32.1717 0.314574C32.054 0.187291 31.9042 0.0939261 31.7381 0.0442138L31.6871 0.0272096C31.6166 0.00892626 31.544 -0.000216982 31.4711 3.90832e-06H8.72517C7.68624 3.90832e-06 6.84286 0.845092 6.84286 1.88232V17.1687H5.69C4.20387 17.1687 3 18.3726 3 19.8587V33.8494C3 35.3339 4.20557 36.5394 5.69 36.5394H6.84286V46.1177C6.84286 47.1549 7.68624 48 8.72517 48H39.7843C40.8215 48 41.6666 47.1549 41.6666 46.1177V36.5394H42.8195C44.3056 36.5394 45.5095 35.3339 45.5095 33.8494V19.8587C45.5095 18.3726 44.3039 17.1687 42.8195 17.1687ZM8.72517 1.88232H30.5291V11.5133C30.5291 12.0336 30.9508 12.4536 31.4711 12.4536H39.786V17.1687H8.72517V1.88232ZM31.8333 26.9289C31.8333 29.6189 30.8539 31.4757 29.4953 32.6218C28.016 33.8511 25.7647 34.4361 23.0118 34.4361C21.3641 34.4361 20.1976 34.3307 19.4036 34.2286V20.4233C20.5717 20.2362 22.0936 20.1325 23.7004 20.1325C26.3683 20.1325 28.0993 20.612 29.4545 21.6339C30.9151 22.7171 31.8333 24.448 31.8333 26.9289ZM7.28665 34.2915V20.4233C8.26607 20.2566 9.64338 20.1325 11.5818 20.1325C13.5423 20.1325 14.9401 20.5083 15.877 21.2581C16.7731 21.9672 17.3767 23.1354 17.3767 24.511C17.3767 25.8883 16.9193 27.0547 16.0844 27.8471C14.9996 28.869 13.3944 29.3281 11.5172 29.3281C11.1006 29.3281 10.7248 29.3077 10.4341 29.2652V34.2915H7.28665ZM39.7843 45.6076H8.72517V36.5394H39.7843V45.6076ZM42.5117 22.8429H37.1096V26.0549H42.1563V28.6412H37.1096V34.2915H33.9214V20.2362H42.5117V22.8429Z" fill="#0454A7"/>
</svg>
