<svg width="24" height="24" viewBox="0 0 24 24" fill="none" xmlns="http://www.w3.org/2000/svg">
<path d="M20.7566 11.0859C21.4594 10.5921 21.9248 9.77053 21.9248 8.84453C21.9248 7.32969 20.6996 6.10452 19.1848 6.10452C17.67 6.10452 16.4448 7.32969 16.4448 8.84453C16.4448 9.77053 16.9054 10.5921 17.613 11.0859C17.0099 11.2949 16.459 11.6178 15.9937 12.0357C15.3526 11.4896 14.5975 11.0717 13.7713 10.8247C14.7732 10.2169 15.4476 9.11046 15.4476 7.85205C15.4476 5.93357 13.8947 4.38074 11.9763 4.38074C10.0578 4.38074 8.50495 5.93832 8.50495 7.85205C8.50495 9.11046 9.17451 10.2169 10.1812 10.8247C9.36446 11.0717 8.61892 11.4848 7.98259 12.0214C7.51721 11.613 6.97586 11.2949 6.38227 11.0907C7.08508 10.5968 7.55046 9.77528 7.55046 8.84928C7.55046 7.33444 6.32529 6.10927 4.81045 6.10927C3.29561 6.10927 2.07044 7.33444 2.07044 8.84928C2.07044 9.77528 2.53106 10.5968 3.23862 11.0907C1.35338 11.7412 0 13.5315 0 15.6352V15.9486C0 15.9581 0.00949743 15.9676 0.0189949 15.9676H5.82667C5.79343 16.2288 5.77444 16.4995 5.77444 16.7701V17.093C5.77444 18.4892 6.90463 19.6194 8.30075 19.6194H15.6613C17.0574 19.6194 18.1876 18.4892 18.1876 17.093V16.7701C18.1876 16.4995 18.1686 16.2288 18.1353 15.9676H23.981C23.9905 15.9676 24 15.9581 24 15.9486V15.6352C23.9905 13.5268 22.6419 11.7365 20.7566 11.0859ZM17.2046 8.83978C17.2046 7.74758 18.0926 6.85957 19.1848 6.85957C20.277 6.85957 21.165 7.74758 21.165 8.83978C21.165 9.91774 20.296 10.7963 19.2228 10.82C19.2085 10.82 19.1991 10.82 19.1848 10.82C19.1706 10.82 19.1611 10.82 19.1468 10.82C18.0689 10.801 17.2046 9.92249 17.2046 8.83978ZM9.25524 7.85205C9.25524 6.3562 10.4709 5.14053 11.9668 5.14053C13.4626 5.14053 14.6783 6.3562 14.6783 7.85205C14.6783 9.29566 13.5433 10.4781 12.1235 10.5588C12.0712 10.5588 12.019 10.5588 11.9668 10.5588C11.9145 10.5588 11.8623 10.5588 11.8101 10.5588C10.3902 10.4781 9.25524 9.29566 9.25524 7.85205ZM2.81599 8.83978C2.81599 7.74758 3.704 6.85957 4.7962 6.85957C5.88841 6.85957 6.77641 7.74758 6.77641 8.83978C6.77641 9.91774 5.9074 10.7963 4.83419 10.82C4.81994 10.82 4.81045 10.82 4.7962 10.82C4.78195 10.82 4.77246 10.82 4.75821 10.82C3.685 10.801 2.81599 9.92249 2.81599 8.83978ZM5.95964 15.2031H0.769292C0.982984 13.1801 2.69252 11.594 4.76771 11.5798C4.77721 11.5798 4.7867 11.5798 4.7962 11.5798C4.8057 11.5798 4.8152 11.5798 4.82469 11.5798C5.81243 11.5845 6.71468 11.9502 7.41274 12.5438C6.72893 13.2846 6.22082 14.1963 5.95964 15.2031ZM17.4183 17.093C17.4183 18.0665 16.6252 18.8596 15.6518 18.8596H8.29125C7.31777 18.8596 6.52473 18.0665 6.52473 17.093V16.7701C6.52473 13.8212 8.88009 11.4088 11.8101 11.3234C11.8623 11.3281 11.9193 11.3281 11.9715 11.3281C12.0237 11.3281 12.0807 11.3281 12.133 11.3234C15.0629 11.4088 17.4183 13.8212 17.4183 16.7701V17.093ZM17.9834 15.2031C17.7222 14.2011 17.2236 13.3036 16.5445 12.5628C17.2473 11.9549 18.1591 11.5893 19.1563 11.5798C19.1658 11.5798 19.1753 11.5798 19.1848 11.5798C19.1943 11.5798 19.2038 11.5798 19.2133 11.5798C21.2885 11.594 22.998 13.1801 23.2117 15.2031H17.9834Z" fill="#0454A7"/>
</svg>
