<svg width="24" height="24" viewBox="0 0 24 24" fill="none" xmlns="http://www.w3.org/2000/svg">
<path d="M16.6982 20.9988H16.6826C15.1703 20.8904 13.7062 20.4214 12.4134 19.6312C10.0085 18.2427 7.88879 16.4126 6.16628 14.2377C4.72261 12.6223 3.68948 10.6843 3.15399 8.58716C2.92953 7.68764 2.95079 6.74458 3.21556 5.85604C3.38684 5.29678 3.66416 4.77552 4.03247 4.32055C4.38808 3.84349 4.86397 3.46884 5.41177 3.23466C5.96647 2.97521 6.59767 2.92913 7.18433 3.10527C7.73278 3.48284 8.19891 3.96728 8.5546 4.52938L9.91666 6.34985C10.5316 7.31536 10.6203 7.6888 10.5735 8.04994C10.4565 8.51518 10.2257 8.94425 9.90188 9.2988C9.66543 9.62637 9.49137 9.83111 9.35673 9.98343C9.18103 10.1857 9.15804 10.2201 9.14491 10.2905C9.11125 10.4772 9.24671 10.7 9.7697 11.3387C10.7296 12.4768 11.8042 13.5136 12.9766 14.4327C13.2549 14.6669 13.4864 14.8421 13.6982 14.8175C13.7803 14.8077 13.8247 14.7766 14.0997 14.544C14.2278 14.4359 14.3887 14.2983 14.6055 14.1288L14.6876 14.06C15.008 13.7356 15.4158 13.5106 15.8616 13.4123C16.391 13.4064 16.9086 13.5687 17.3394 13.8758L18.6916 14.7635L19.8016 15.6086C20.4716 16.2032 20.8755 16.5627 20.9855 17.1458C21.0227 17.5005 20.988 17.8592 20.8835 18.2003C20.779 18.5415 20.6068 18.8582 20.3772 19.1316C19.9705 19.7219 19.4227 20.2018 18.7834 20.5278C18.144 20.8538 17.4333 21.0157 16.7155 20.9988H16.6982ZM6.51603 3.8079C6.24071 3.81959 5.97003 3.88265 5.71801 3.9938C5.3051 4.18999 4.94383 4.47967 4.66301 4.83975C4.30787 5.2794 4.05545 5.79248 3.9241 6.34166C3.76904 7.02239 3.77719 7.73 3.94791 8.40699C4.45793 10.3799 5.43457 12.2021 6.79599 13.721C8.45463 15.8164 10.4954 17.5802 12.8107 18.9195C13.9875 19.6463 15.3228 20.0787 16.7031 20.1799C17.2897 20.1986 17.8716 20.0699 18.3953 19.8055C18.9189 19.5412 19.3675 19.1498 19.6998 18.6673C20.0338 18.29 20.2088 17.7986 20.1883 17.2956C20.1317 16.9992 19.8804 16.7658 19.2647 16.2195L18.2269 15.4301L16.9289 14.5801C16.3846 14.2959 16.1736 14.2025 15.9618 14.2255C15.7861 14.2459 15.612 14.3786 15.2007 14.7029L15.1137 14.7717C14.9068 14.9355 14.7532 15.0649 14.6309 15.168C14.4113 15.4094 14.1182 15.572 13.7968 15.6307C13.5442 15.6346 13.2937 15.5855 13.0614 15.4868C12.829 15.388 12.62 15.2418 12.4478 15.0575C11.2372 14.1075 10.1279 13.0356 9.13752 11.8588C8.5743 11.1758 8.23441 10.7278 8.33867 10.1464C8.39881 9.88059 8.53719 9.63877 8.73604 9.45194C8.85755 9.31191 9.02093 9.12437 9.2385 8.82301C9.46791 8.56873 9.64529 8.27218 9.76066 7.95003C9.77052 7.86814 9.79433 7.68634 9.24096 6.81746L7.89779 5.01418C7.6136 4.59102 7.27645 4.20575 6.89451 3.86769C6.77291 3.82551 6.64475 3.80527 6.51603 3.8079Z" fill="#0454A7"/>
</svg>
