<svg width="24" height="24" viewBox="0 0 24 24" fill="none" xmlns="http://www.w3.org/2000/svg">
<path d="M12.269 3C12.8564 3.00338 14.3261 3.018 15.8881 3.08213L16.4426 3.10688C18.0146 3.18226 19.5854 3.31277 20.3654 3.53441C21.4049 3.83368 22.2212 4.70448 22.4973 5.8093C22.9373 7.56441 22.9923 10.9869 22.9989 11.8161L23 11.9871V12.1828C22.9923 13.012 22.9373 16.4356 22.4973 18.1896C22.2179 19.2978 21.4005 20.1697 20.3654 20.4645C19.5854 20.6861 18.0146 20.8166 16.4426 20.892L15.8881 20.9179C14.3261 20.9809 12.8564 20.9966 12.269 20.9989L12.0105 21H11.7299C10.4869 20.9921 5.28801 20.9347 3.63353 20.4645C2.59508 20.1652 1.77774 19.2944 1.50163 18.1896C1.0616 16.4345 1.0066 13.012 1 12.1828V11.8161C1.0066 10.9869 1.0616 7.56329 1.50163 5.8093C1.78104 4.70111 2.59838 3.82918 3.63463 3.53553C5.28801 3.06413 10.488 3.00675 11.731 3H12.269ZM9.79934 8.06282V15.9383L16.3997 12.0006L9.79934 8.06282Z" fill="white"/>
</svg>
