<svg width="48" height="48" viewBox="0 0 48 48" fill="none" xmlns="http://www.w3.org/2000/svg">
<path d="M40.7657 18.5548C42.1359 17.608 43.0359 16.0271 43.0359 14.2393V12.2836V10.3291C43.0359 7.43806 40.6838 5.08606 37.7928 5.08606C34.9017 5.08606 32.5497 7.43815 32.5497 10.3291V12.2842V14.2393C32.5497 16.0272 33.4497 17.6081 34.82 18.5548C32.5233 19.279 30.547 20.7737 29.2432 22.6974V21.5231C29.2432 18.632 26.8911 16.28 24 16.28C21.1089 16.28 18.7569 18.6321 18.7569 21.5231V22.6974C17.4531 20.7738 15.4767 19.279 13.18 18.5548C14.5503 17.608 15.4503 16.0271 15.4503 14.2393V10.3292C15.4503 7.43815 13.0983 5.08615 10.2071 5.08615C7.58709 5.08615 5.40975 7.01787 5.02453 9.53187C4.98469 9.79193 4.96406 10.0582 4.96406 10.3292V14.2393C4.96406 16.0272 5.86416 17.6081 7.23431 18.5548C3.09816 19.8588 0 23.6626 0 27.9686V31.0211C0 31.4073 0.313125 31.7203 0.699281 31.7203H4.49784C4.884 31.7203 5.19712 31.4073 5.19712 31.0211C5.19712 30.6349 4.884 30.3218 4.49784 30.3218H1.39856V27.9686C1.39856 25.7612 2.3415 23.6499 4.05356 22.0231C5.05219 21.0744 6.25603 20.3632 7.54134 19.9358L8.37684 21.559L7.16869 26.8032C7.11206 27.0488 7.19212 27.3059 7.37803 27.476L9.735 29.6332C9.86859 29.7554 10.0378 29.8167 10.207 29.8167C10.3763 29.8167 10.5455 29.7555 10.6791 29.6332L13.0359 27.476C13.2218 27.3058 13.3018 27.0488 13.2453 26.8032L12.0372 21.5591L12.8727 19.9358C14.158 20.3632 15.3619 21.0743 16.3606 22.0231C17.6172 23.217 18.4587 24.6722 18.818 26.2347C18.8404 26.3801 18.87 26.523 18.9041 26.6642C18.9776 27.0932 19.0155 27.5289 19.0155 27.9686V30.3218H6.82866C6.4425 30.3218 6.12937 30.6349 6.12937 31.0211C6.12937 31.4073 6.4425 31.7203 6.82866 31.7203H17.4224C15.2168 33.5556 13.7928 36.2434 13.7928 39.1622V42.2147C13.7928 42.601 14.1059 42.914 14.4921 42.914H18.2906C18.6768 42.914 18.9899 42.601 18.9899 42.2147C18.9899 41.8285 18.6768 41.5154 18.2906 41.5154H15.1914V39.1622C15.1914 36.9549 16.1344 34.8435 17.8464 33.2168C18.8451 32.268 20.0489 31.5568 21.3342 31.1294L22.1697 32.7527L20.9617 37.9968C20.905 38.2424 20.9851 38.4995 21.171 38.6697L23.528 40.8269C23.6616 40.9492 23.8308 41.0104 24 41.0104C24.1692 41.0104 24.3385 40.9493 24.4721 40.8269L26.829 38.6697C27.0149 38.4995 27.0949 38.2424 27.0383 37.9968L25.8303 32.7527L26.6658 31.1294C27.9511 31.5568 29.1549 32.2679 30.1536 33.2168C31.8656 34.8434 32.8086 36.9549 32.8086 39.1622V41.5154H20.6215C20.2354 41.5154 19.9222 41.8285 19.9222 42.2147C19.9222 42.601 20.2354 42.914 20.6215 42.914H33.5078C33.894 42.914 34.2071 42.601 34.2071 42.2147V39.1622C34.2071 36.2433 32.7831 33.5555 30.5776 31.7203H34.1538C34.5399 31.7203 34.8531 31.4073 34.8531 31.0211C34.8531 30.6349 34.5399 30.3218 34.1538 30.3218H28.9844V27.9685C28.9844 27.5286 29.0225 27.0927 29.096 26.6635C29.1299 26.5227 29.1594 26.3803 29.1818 26.2355C29.5408 24.6727 30.3825 23.2172 31.6393 22.023C32.638 21.0743 33.8419 20.3631 35.1272 19.9357L35.9627 21.5589L34.7546 26.8032C34.698 27.0488 34.7781 27.3058 34.964 27.476L37.3208 29.6332C37.4544 29.7556 37.6237 29.8167 37.7929 29.8167C37.9621 29.8167 38.1314 29.7555 38.2649 29.6332L40.6219 27.476C40.8078 27.3059 40.8877 27.0488 40.8312 26.8032L39.6232 21.559L40.4587 19.9358C41.744 20.3632 42.9478 21.0744 43.9464 22.0231C45.6585 23.6498 46.6014 25.7612 46.6014 27.9686V30.3218H36.4848C36.0986 30.3218 35.7855 30.6349 35.7855 31.0211C35.7855 31.4073 36.0986 31.7203 36.4848 31.7203H47.3007C47.6869 31.7203 48 31.4073 48 31.0211V27.9686C48 23.6626 44.9018 19.8588 40.7657 18.5548ZM6.36253 10.3291C6.36253 8.20925 8.08716 6.48462 10.2071 6.48462C12.3271 6.48462 14.0517 8.20925 14.0517 10.3291V11.4989C12.4323 11.0995 11.7658 9.4324 11.7355 9.35468C11.6386 9.09865 11.4011 8.92278 11.1279 8.90468C10.8547 8.88697 10.5962 9.02947 10.4662 9.2704C10.4547 9.29197 9.34772 11.2779 6.36253 11.5532V10.3291ZM10.2072 28.1693L8.62331 26.7196L9.67237 22.1658H10.7421L11.7911 26.7196L10.2072 28.1693ZM8.93569 19.5888C9.07209 19.5664 9.20897 19.5474 9.34612 19.5315C9.36553 19.5293 9.38494 19.5274 9.40434 19.5252C9.51309 19.5134 9.62184 19.504 9.73078 19.4963C9.76097 19.4941 9.79116 19.4917 9.82144 19.4899C9.91078 19.4845 10.0001 19.4817 10.0894 19.4793C10.1287 19.4802 10.1676 19.4823 10.207 19.4823C10.2465 19.4823 10.2854 19.4802 10.3247 19.4793C10.414 19.4818 10.5034 19.4846 10.5925 19.4899C10.6228 19.4917 10.653 19.4942 10.6834 19.4963C10.7923 19.5041 10.901 19.5134 11.0096 19.5252C11.0291 19.5273 11.0486 19.5293 11.0681 19.5315C11.2052 19.5474 11.342 19.5664 11.4784 19.5888L10.872 20.7672H9.54225L8.93569 19.5888ZM10.3602 18.0799C10.3125 18.0786 10.2648 18.0768 10.2168 18.0762C10.2104 18.076 10.2041 18.076 10.1978 18.0762C10.1498 18.0768 10.1021 18.0786 10.0542 18.0799C8.00494 17.9992 6.36253 16.3078 6.36253 14.2392V12.9567C8.74209 12.7753 10.204 11.6908 10.9824 10.8713C11.5277 11.6692 12.5053 12.681 14.0517 12.9271V14.2392C14.0518 16.3078 12.4094 17.9992 10.3602 18.0799ZM20.1553 21.523C20.1554 19.4031 21.8801 17.6785 24 17.6785C24.3975 17.6785 24.781 17.739 25.142 17.8516C26.7059 18.3391 27.8445 19.8006 27.8445 21.5231V22.6929C26.2252 22.2934 25.5586 20.6264 25.5284 20.5486C25.4315 20.2927 25.194 20.1168 24.9208 20.0987C24.6479 20.0816 24.3891 20.2235 24.2591 20.4644C24.2475 20.486 23.1406 22.4719 20.1554 22.7472L20.1553 21.523ZM20.4142 29.9633V29.2532C20.6058 29.433 20.8103 29.5989 21.0271 29.7486C20.8202 29.8138 20.6159 29.8857 20.4142 29.9633ZM24 39.3631L22.4161 37.9134L23.4653 33.3596H24.5349L25.584 37.9134L24 39.3631ZM22.7288 30.7826C22.8652 30.7602 23.002 30.7412 23.1392 30.7254C23.1586 30.7231 23.178 30.7212 23.1974 30.7191C23.3062 30.7073 23.4149 30.6978 23.5238 30.6901C23.554 30.688 23.5842 30.6855 23.6145 30.6837C23.7038 30.6783 23.7932 30.6757 23.8824 30.6731C23.9217 30.674 23.9606 30.6762 24.0001 30.6762C24.0396 30.6762 24.0785 30.674 24.1178 30.6731C24.2071 30.6758 24.2964 30.6784 24.3856 30.6837C24.4158 30.6855 24.4461 30.6881 24.4763 30.6901C24.5853 30.6979 24.694 30.7073 24.8026 30.7191C24.8221 30.7212 24.8416 30.7231 24.8611 30.7254C24.9982 30.7413 25.135 30.7602 25.2713 30.7826L24.6649 31.9611H23.3352L22.7288 30.7826ZM27.5857 29.9633C27.3842 29.8857 27.18 29.8138 26.9729 29.7486C27.1897 29.5989 27.3942 29.4329 27.5857 29.2531V29.9633ZM27.8446 25.4331C27.8446 25.6304 27.8296 25.8243 27.8008 26.0138C27.7762 26.1244 27.7543 26.2358 27.7339 26.3475C27.3339 27.9794 25.8901 29.2052 24.1531 29.2737C24.1053 29.2723 24.0577 29.2706 24.0097 29.2699C24.0033 29.2697 23.997 29.2697 23.9906 29.2699C23.9427 29.2706 23.895 29.2723 23.8472 29.2737C22.1106 29.2053 20.6667 27.98 20.2666 26.3484C20.2461 26.2362 20.224 26.1243 20.1994 26.0133C20.1706 25.8239 20.1556 25.6302 20.1556 25.433V24.1505C22.5352 23.9692 23.9971 22.8847 24.7755 22.0651C25.3208 22.8629 26.2984 23.8748 27.8447 24.121V25.4331H27.8446ZM33.9483 10.3291C33.9483 8.20925 35.6729 6.48462 37.7928 6.48462C39.9127 6.48462 41.6374 8.20925 41.6374 10.3291V11.4989C40.018 11.0994 39.3514 9.4324 39.3213 9.35468C39.2243 9.09875 38.9869 8.92287 38.7137 8.90478C38.4401 8.88706 38.1818 9.02956 38.052 9.2705C38.0404 9.29206 36.9336 11.278 33.9484 11.5533V10.3291H33.9483ZM37.7928 28.1693L36.2089 26.7196L37.2579 22.1658H38.3276L39.3767 26.7196L37.7928 28.1693ZM36.5215 19.5888C36.6579 19.5664 36.7947 19.5474 36.9318 19.5315C36.9513 19.5293 36.9708 19.5273 36.9903 19.5252C37.0989 19.5134 37.2077 19.504 37.3165 19.4963C37.3468 19.4941 37.377 19.4917 37.4074 19.4899C37.4966 19.4845 37.586 19.4818 37.6752 19.4793C37.7145 19.4802 37.7534 19.4823 37.7929 19.4823C37.8323 19.4823 37.8713 19.4802 37.9105 19.4793C37.9999 19.4818 38.0892 19.4846 38.1785 19.4899C38.2087 19.4917 38.2389 19.4942 38.2692 19.4963C38.3782 19.5041 38.487 19.5134 38.5957 19.5252C38.6151 19.5273 38.6345 19.5293 38.6539 19.5315C38.791 19.5475 38.9278 19.5664 39.0643 19.5888L38.4578 20.7672H37.1282L36.5215 19.5888ZM37.9457 18.0799C37.898 18.0786 37.8503 18.0768 37.8022 18.0762C37.7959 18.076 37.7896 18.076 37.7832 18.0762H37.7831C37.7352 18.0768 37.6876 18.0786 37.6397 18.0799C35.5906 17.9992 33.9482 16.3078 33.9482 14.2392V12.9567C36.3277 12.7753 37.7896 11.6908 38.568 10.8713C39.1133 11.6692 40.0909 12.681 41.6373 12.9271V14.2392C41.6374 16.3078 39.9949 17.9992 37.9457 18.0799Z" fill="#0454A7"/>
</svg>
