<svg width="48" height="48" viewBox="0 0 48 48" fill="none" xmlns="http://www.w3.org/2000/svg">
<g clip-path="url(#clip0_129_1213)">
<path d="M0.75 48H13.3867C13.5856 48 13.7763 47.921 13.917 47.7803C14.0576 47.6397 14.1367 47.4489 14.1367 47.25V44.5232C14.1347 43.0486 13.6399 41.617 12.731 40.4558C11.8221 39.2946 10.5512 38.4705 9.12028 38.1143C9.92379 37.6609 10.5545 36.9541 10.9138 36.1043C11.2732 35.2545 11.3409 34.3097 11.1065 33.4173C10.8721 32.525 10.3487 31.7354 9.61814 31.1719C8.88755 30.6085 7.99091 30.3029 7.06828 30.3029C6.14565 30.3029 5.24901 30.6085 4.51842 31.1719C3.78783 31.7354 3.26445 32.525 3.03004 33.4173C2.79563 34.3097 2.86339 35.2545 3.22273 36.1043C3.58208 36.9541 4.21277 37.6609 5.01628 38.1143C3.58536 38.4705 2.3145 39.2946 1.40563 40.4558C0.496761 41.617 0.00201457 43.0486 0 44.5232L0 47.25C0 47.4489 0.0790176 47.6397 0.21967 47.7803C0.360322 47.921 0.551088 48 0.75 48ZM7.06875 31.8052C7.59786 31.8052 8.11508 31.9621 8.55501 32.2561C8.99494 32.55 9.33782 32.9679 9.54029 33.4567C9.74276 33.9455 9.79573 34.4834 9.69249 35.0024C9.58926 35.5213 9.33445 35.998 8.96031 36.3721C8.58617 36.7463 8.10948 37.001 7.59054 37.1043C7.07159 37.2075 6.53369 37.1545 6.04486 36.952C5.55603 36.7495 5.13822 36.4066 4.84426 35.9667C4.5503 35.5267 4.39341 35.0095 4.39341 34.4804C4.3942 33.7711 4.67632 33.0911 5.17788 32.5896C5.67943 32.088 6.35946 31.8059 7.06875 31.8052ZM1.5 44.5232C1.50151 43.1703 2.03962 41.8733 2.99625 40.9166C3.95289 39.96 5.24993 39.4219 6.60281 39.4204H7.53384C8.88673 39.4219 10.1838 39.96 11.1404 40.9166C12.097 41.8733 12.6351 43.1703 12.6367 44.5232V46.5H11.5096V43.8914C11.5096 43.6925 11.4306 43.5017 11.2899 43.3611C11.1493 43.2204 10.9585 43.1414 10.7596 43.1414C10.5607 43.1414 10.3699 43.2204 10.2293 43.3611C10.0886 43.5017 10.0096 43.6925 10.0096 43.8914V46.5H4.12706V43.8914C4.12706 43.6925 4.04805 43.5017 3.90739 43.3611C3.76674 43.2204 3.57597 43.1414 3.37706 43.1414C3.17815 43.1414 2.98738 43.2204 2.84673 43.3611C2.70608 43.5017 2.62706 43.6925 2.62706 43.8914V46.5H1.5V44.5232ZM42.9837 38.1143C43.7872 37.6609 44.4179 36.9541 44.7773 36.1043C45.1366 35.2545 45.2044 34.3097 44.97 33.4173C44.7355 32.525 44.2122 31.7354 43.4816 31.1719C42.751 30.6085 41.8543 30.3029 40.9317 30.3029C40.0091 30.3029 39.1124 30.6085 38.3819 31.1719C37.6513 31.7354 37.1279 32.525 36.8935 33.4173C36.6591 34.3097 36.7268 35.2545 37.0862 36.1043C37.4455 36.9541 38.0762 37.6609 38.8797 38.1143C37.4488 38.4705 36.1779 39.2946 35.269 40.4558C34.3601 41.617 33.8653 43.0486 33.8633 44.5232V47.25C33.8633 47.4489 33.9424 47.6397 34.083 47.7803C34.2237 47.921 34.4144 48 34.6133 48H47.25C47.4489 48 47.6397 47.921 47.7803 47.7803C47.921 47.6397 48 47.4489 48 47.25V44.5232C47.998 43.0486 47.5033 41.617 46.5944 40.4558C45.6855 39.2946 44.4146 38.4705 42.9837 38.1143ZM40.9316 31.805C41.4607 31.8049 41.978 31.9618 42.4179 32.2558C42.8579 32.5497 43.2008 32.9675 43.4033 33.4564C43.6058 33.9452 43.6588 34.4831 43.5556 35.0021C43.4524 35.521 43.1976 35.9977 42.8234 36.3719C42.4493 36.746 41.9726 37.0008 41.4537 37.1041C40.9347 37.2073 40.3968 37.1543 39.908 36.9518C39.4191 36.7494 39.0013 36.4065 38.7073 35.9665C38.4134 35.5266 38.2565 35.0093 38.2565 34.4802C38.2573 33.7711 38.5394 33.0912 39.0408 32.5897C39.5422 32.0882 40.2221 31.8061 40.9313 31.8052L40.9316 31.805ZM46.5 46.5H45.3729V43.8914C45.3729 43.6925 45.2939 43.5017 45.1533 43.3611C45.0126 43.2204 44.8218 43.1414 44.6229 43.1414C44.424 43.1414 44.2333 43.2204 44.0926 43.3611C43.952 43.5017 43.8729 43.6925 43.8729 43.8914V46.5H37.9904V43.8914C37.9904 43.6925 37.9114 43.5017 37.7707 43.3611C37.6301 43.2204 37.4393 43.1414 37.2404 43.1414C37.0415 43.1414 36.8507 43.2204 36.7101 43.3611C36.5694 43.5017 36.4904 43.6925 36.4904 43.8914V46.5H35.3633V44.5232C35.3649 43.1703 35.903 41.8733 36.8596 40.9166C37.8162 39.96 39.1133 39.4219 40.4662 39.4204H41.3973C42.7502 39.4219 44.0472 39.96 45.0038 40.9167C45.9604 41.8733 46.4985 43.1703 46.5 44.5232V46.5ZM16.9313 44.5232V47.25C16.9313 47.4489 17.0103 47.6397 17.1509 47.7803C17.2916 47.921 17.4823 48 17.6813 48H30.3187C30.5177 48 30.7084 47.921 30.8491 47.7803C30.9897 47.6397 31.0687 47.4489 31.0687 47.25V44.5232C31.0667 43.0486 30.572 41.617 29.6631 40.4558C28.7542 39.2946 27.4833 38.4705 26.0524 38.1143C26.8559 37.6609 27.4865 36.9541 27.8459 36.1043C28.2052 35.2546 28.2729 34.3098 28.0385 33.4174C27.8041 32.5251 27.2807 31.7355 26.5502 31.1721C25.8196 30.6087 24.923 30.3031 24.0004 30.3031C23.0778 30.3031 22.1812 30.6087 21.4506 31.1721C20.72 31.7355 20.1966 32.5251 19.9622 33.4174C19.7278 34.3098 19.7956 35.2546 20.1549 36.1043C20.5142 36.9541 21.1449 37.6609 21.9484 38.1143C20.5173 38.4703 19.2462 39.2944 18.3372 40.4556C17.4282 41.6168 16.9333 43.0485 16.9313 44.5232ZM24 31.8052C24.5291 31.8051 25.0464 31.962 25.4863 32.256C25.9263 32.5499 26.2692 32.9677 26.4717 33.4566C26.6742 33.9454 26.7272 34.4833 26.624 35.0023C26.5207 35.5212 26.266 35.9979 25.8918 36.3721C25.5177 36.7462 25.041 37.001 24.522 37.1042C24.0031 37.2075 23.4652 37.1545 22.9763 36.952C22.4875 36.7495 22.0697 36.4066 21.7757 35.9667C21.4817 35.5268 21.3248 35.0095 21.3248 34.4804C21.3256 33.7711 21.6077 33.0912 22.1092 32.5896C22.6108 32.0881 23.2907 31.806 24 31.8052ZM23.5344 39.4204H24.4656C25.8184 39.4219 27.1155 39.96 28.0721 40.9166C29.0288 41.8733 29.5669 43.1703 29.5684 44.5232V46.5H28.4412V43.8914C28.4412 43.6925 28.3622 43.5017 28.2215 43.3611C28.0809 43.2204 27.8901 43.1414 27.6912 43.1414C27.4923 43.1414 27.3015 43.2204 27.1609 43.3611C27.0202 43.5017 26.9412 43.6925 26.9412 43.8914V46.5H21.0588V43.8914C21.0588 43.6925 20.9798 43.5017 20.8391 43.3611C20.6985 43.2204 20.5077 43.1414 20.3088 43.1414C20.1099 43.1414 19.9191 43.2204 19.7785 43.3611C19.6378 43.5017 19.5588 43.6925 19.5588 43.8914V46.5H18.4313V44.5232C18.4328 43.1702 18.9709 41.8731 19.9276 40.9165C20.8843 39.9598 22.1815 39.4218 23.5344 39.4204ZM38.5547 14.2902H31.9581C31.3434 13.1807 30.4861 12.2243 29.4501 11.4925C28.4141 10.7608 27.2261 10.2725 25.9749 10.0642C27.0966 9.60636 28.0244 8.77311 28.5997 7.70689C29.1749 6.64068 29.3619 5.40773 29.1287 4.21889C28.8954 3.03005 28.2564 1.95918 27.3209 1.18939C26.3854 0.419599 25.2115 -0.00128174 24 -0.00128174C22.7885 -0.00128174 21.6146 0.419599 20.6791 1.18939C19.7436 1.95918 19.1046 3.03005 18.8713 4.21889C18.6381 5.40773 18.8251 6.64068 19.4003 7.70689C19.9756 8.77311 20.9034 9.60636 22.0251 10.0642C20.7739 10.2725 19.5859 10.7608 18.5499 11.4925C17.5139 12.2243 16.6566 13.1807 16.0419 14.2902H9.44531C8.50081 14.2913 7.59529 14.667 6.92742 15.3348C6.25956 16.0027 5.88388 16.9082 5.88281 17.8527V26.4308L5.24531 25.7595C5.10764 25.6183 4.91988 25.537 4.7227 25.5332C4.52553 25.5294 4.33479 25.6035 4.1918 25.7393C4.0488 25.8751 3.96506 26.0618 3.9587 26.2589C3.95234 26.456 4.02387 26.6477 4.15781 26.7924L6.03909 28.7738C6.10693 28.8453 6.18816 28.9026 6.27816 28.9426C6.36816 28.9827 6.46516 29.0046 6.56363 29.0071C6.57009 29.0071 6.57647 29.0071 6.58303 29.0071C6.77526 29.0071 6.96014 28.9332 7.0995 28.8008L9.08063 26.9201C9.22116 26.7823 9.30188 26.5948 9.30537 26.398C9.30887 26.2012 9.23486 26.0109 9.09931 25.8682C8.96376 25.7254 8.77754 25.6417 8.58082 25.6351C8.3841 25.6284 8.19266 25.6994 8.04778 25.8326L7.38281 26.4637V17.8527C7.38343 17.3059 7.60093 16.7817 7.98759 16.395C8.37425 16.0083 8.89849 15.7908 9.44531 15.7902H15.3923C15.1268 16.618 14.9919 17.4822 14.9925 18.3516V21.9153C14.9925 22.1142 15.0715 22.305 15.2122 22.4456C15.3528 22.5863 15.5436 22.6653 15.7425 22.6653H23.25V26.4313L22.6125 25.7598C22.4748 25.6186 22.2871 25.5373 22.0899 25.5335C21.8927 25.5297 21.702 25.6037 21.559 25.7396C21.416 25.8754 21.3322 26.062 21.3259 26.2592C21.3195 26.4563 21.3911 26.648 21.525 26.7927L23.4064 28.7741C23.4742 28.8456 23.5554 28.9029 23.6454 28.943C23.7354 28.983 23.8324 29.0049 23.9309 29.0075C24.0294 29.01 24.1274 28.9931 24.2193 28.9578C24.3113 28.9224 24.3954 28.8693 24.4668 28.8015L26.4481 26.9201C26.5886 26.7823 26.6693 26.5948 26.6728 26.398C26.6763 26.2012 26.6023 26.0109 26.4668 25.8682C26.3312 25.7254 26.145 25.6417 25.9483 25.6351C25.7516 25.6284 25.5601 25.6994 25.4153 25.8326L24.75 26.4637V22.6653H32.2575C32.4564 22.6653 32.6472 22.5863 32.7878 22.4456C32.9285 22.305 33.0075 22.1142 33.0075 21.9153V18.3516C33.0081 17.4822 32.8732 16.618 32.6077 15.7902H38.5547C39.1015 15.7908 39.6258 16.0083 40.0124 16.395C40.3991 16.7817 40.6166 17.3059 40.6172 17.8527V26.4313L39.9797 25.7598C39.842 25.6186 39.6543 25.5373 39.4571 25.5335C39.2599 25.5297 39.0692 25.6037 38.9262 25.7396C38.7832 25.8754 38.6994 26.062 38.6931 26.2592C38.6867 26.4563 38.7582 26.648 38.8922 26.7927L40.7735 28.7741C40.8414 28.8456 40.9227 28.903 41.0127 28.943C41.1028 28.983 41.1999 29.0049 41.2985 29.0074C41.3049 29.0074 41.3113 29.0074 41.3179 29.0074C41.5101 29.0073 41.695 28.9335 41.8343 28.8011L43.8157 26.9197C43.9562 26.7819 44.0369 26.5944 44.0404 26.3976C44.0439 26.2008 43.9699 26.0105 43.8343 25.8678C43.6988 25.7251 43.5126 25.6413 43.3159 25.6347C43.1191 25.6281 42.9277 25.699 42.7828 25.8322L42.1179 26.4636V17.8526C42.1168 16.908 41.7411 16.0024 41.073 15.3345C40.405 14.6667 39.4993 14.2911 38.5547 14.2902ZM23.6264 11.4524H24.3736L25.1321 16.9205L24 18.2707L22.8679 16.9207L23.6264 11.4524ZM20.2735 5.22647C20.2736 4.48945 20.4922 3.76899 20.9016 3.1562C21.3111 2.54341 21.8931 2.06581 22.5741 1.78379C23.255 1.50177 24.0043 1.428 24.7271 1.57181C25.45 1.71562 26.1139 2.07055 26.6351 2.59171C27.1562 3.11287 27.5111 3.77687 27.6549 4.49972C27.7987 5.22258 27.7248 5.97184 27.4428 6.65275C27.1607 7.33367 26.6831 7.91565 26.0703 8.32511C25.4575 8.73457 24.737 8.95312 24 8.95312C23.012 8.95201 22.0648 8.55901 21.3662 7.86036C20.6675 7.16172 20.2746 6.21448 20.2735 5.22647ZM31.5075 21.1653H29.5724C29.5724 21.1545 29.5741 21.1439 29.5741 21.133V17.5257C29.5741 17.3268 29.4951 17.136 29.3544 16.9954C29.2138 16.8547 29.023 16.7757 28.8241 16.7757C28.6252 16.7757 28.4344 16.8547 28.2938 16.9954C28.1531 17.136 28.0741 17.3268 28.0741 17.5257V21.133C28.0741 21.1439 28.0753 21.1545 28.0758 21.1653H19.9242C19.9242 21.1545 19.9259 21.1439 19.9259 21.133V17.5257C19.9259 17.3268 19.8469 17.136 19.7062 16.9954C19.5656 16.8547 19.3748 16.7757 19.1759 16.7757C18.977 16.7757 18.7862 16.8547 18.6456 16.9954C18.5049 17.136 18.4259 17.3268 18.4259 17.5257V21.133C18.4259 21.1439 18.4271 21.1545 18.4276 21.1653H16.4925V18.3516C16.4947 16.7475 17.0549 15.1942 18.0771 13.958C19.0993 12.7218 20.5198 11.8798 22.0949 11.5763L21.3364 17.0442C21.322 17.1481 21.3295 17.2537 21.3585 17.3545C21.3874 17.4552 21.4372 17.5488 21.5046 17.6291L23.4253 19.9199C23.4957 20.0039 23.5836 20.0714 23.6829 20.1177C23.7822 20.164 23.8904 20.188 24 20.188C24.1096 20.188 24.2178 20.164 24.3171 20.1177C24.4164 20.0714 24.5043 20.0039 24.5747 19.9199L26.4954 17.6291C26.5628 17.5488 26.6126 17.4552 26.6415 17.3545C26.6705 17.2537 26.678 17.1481 26.6636 17.0442L25.9051 11.5763C27.4802 11.8798 28.9007 12.7218 29.9229 13.958C30.9451 15.1942 31.5053 16.7475 31.5075 18.3516V21.1653Z" fill="#0454A7"/>
</g>
<defs>
<clipPath id="clip0_129_1213">
<rect width="48" height="48" fill="white"/>
</clipPath>
</defs>
</svg>
