<svg width="48" height="48" viewBox="0 0 48 48" fill="none" xmlns="http://www.w3.org/2000/svg">
<path d="M43.6356 18.0931L40.6424 17.6431C40.2123 15.6701 39.443 13.8137 38.3499 12.1111L40.1489 9.67547C40.7268 8.89303 40.6471 7.82597 39.9593 7.13812L38.1575 5.33634C37.4696 4.64859 36.4027 4.56872 35.6201 5.14678L33.1845 6.94584C31.482 5.85272 29.6254 5.08331 27.6526 4.65328L27.2027 1.66003C27.0581 0.698156 26.2471 0 25.2744 0H22.7263C21.7536 0 20.9426 0.698156 20.7982 1.66003L20.3482 4.65328C18.3753 5.08331 16.5188 5.85272 14.8162 6.94584L12.3805 5.14678C11.5982 4.56881 10.5311 4.64869 9.8432 5.33634L8.04152 7.13812C7.35367 7.82597 7.27389 8.89303 7.85186 9.67547L9.65092 12.1111C8.5578 13.8137 7.78839 15.6702 7.35836 17.6431L4.36511 18.0931C3.40323 18.2376 2.70508 19.0486 2.70508 20.0212V22.5692C2.70508 23.5418 3.40323 24.3528 4.36511 24.4974L7.35836 24.9473C7.78839 26.9201 8.5577 28.7767 9.65092 30.4793L7.85186 32.915C7.27389 33.6974 7.35367 34.7646 8.04152 35.4523L9.8432 37.2541C10.5311 37.9418 11.5981 38.0216 12.3805 37.4437L14.8164 35.6445C15.5266 36.0998 16.271 36.5021 17.0405 36.847C16.937 37.0042 16.8302 37.16 16.72 37.3137C16.32 37.872 16.1086 38.5301 16.1086 39.2168V40.1104C15.142 40.3985 14.4349 41.295 14.4349 42.354C14.4349 42.7074 14.5147 43.0423 14.6555 43.3431C13.602 43.5781 12.812 44.5197 12.812 45.6429V47.2954C12.812 47.6844 13.1275 47.9999 13.5165 47.9999H34.4842C34.8732 47.9999 35.1887 47.6844 35.1887 47.2954V45.6429C35.1887 44.5196 34.3986 43.578 33.345 43.343C33.4859 43.0422 33.5657 42.7074 33.5657 42.354C33.5657 41.295 32.8587 40.3985 31.8921 40.1104V39.2168C31.8921 38.5301 31.6807 37.872 31.2807 37.3137C31.1706 37.1599 31.0638 37.0042 30.9602 36.8469C31.7298 36.5021 32.4741 36.0998 33.1843 35.6444L35.62 37.4436C35.9697 37.7018 36.3762 37.8289 36.7804 37.8288C37.2805 37.8288 37.777 37.6343 38.1574 37.2539L39.9592 35.4522C40.647 34.7645 40.7267 33.6974 40.1488 32.9149L38.3498 30.4792C39.4429 28.7767 40.2122 26.9202 40.6423 24.9473L43.6356 24.4973C44.5975 24.3527 45.2956 23.5417 45.2956 22.5691V20.0212C45.2956 19.0485 44.5975 18.2376 43.6356 18.0931ZM33.7797 45.643V46.591H14.221V45.643C14.221 45.1204 14.6463 44.6951 15.169 44.6951H32.8316C33.3544 44.6951 33.7797 45.1204 33.7797 45.643ZM32.1567 42.3541C32.1567 42.868 31.7386 43.2862 31.2248 43.2862H16.776C16.2621 43.2862 15.844 42.868 15.844 42.3541C15.844 41.8402 16.2621 41.422 16.776 41.422H20.051C20.44 41.422 20.7555 41.1066 20.7555 40.7175C20.7555 40.3284 20.44 40.013 20.051 40.013H17.5177V39.2168C17.5177 38.8262 17.638 38.4518 17.8654 38.1343C19.7615 35.4873 20.7638 32.367 20.7638 29.1109V28.2324H27.2368V29.1109C27.2368 32.367 28.2391 35.4873 30.1352 38.1343C30.3627 38.4519 30.4829 38.8263 30.4829 39.2168V40.013H22.8688C22.4798 40.013 22.1643 40.3284 22.1643 40.7175C22.1643 41.1066 22.4798 41.422 22.8688 41.422H31.2246C31.7386 41.422 32.1567 41.8402 32.1567 42.3541ZM24.0001 20.8253H18.4277C17.926 20.8253 17.5178 20.4172 17.5178 19.9154V15.8644C17.5178 15.8555 17.5251 15.8482 17.5341 15.8482H19.3387C19.3477 15.8482 19.355 15.8555 19.355 15.8644V17.4279C19.355 18.1725 19.9607 18.7782 20.7053 18.7782H21.637C22.3815 18.7782 22.9872 18.1725 22.9872 17.4279V15.8644C22.9872 15.8555 22.9945 15.8482 23.0035 15.8482H24.9974C25.0064 15.8482 25.0137 15.8555 25.0137 15.8644V17.4279C25.0137 18.1725 25.6195 18.7782 26.364 18.7782H27.2957C28.0403 18.7782 28.646 18.1725 28.646 17.4279V15.8644C28.646 15.8555 28.6533 15.8482 28.6623 15.8482H30.4669C30.4758 15.8482 30.4831 15.8555 30.4831 15.8644V19.9154C30.4831 20.4172 30.0749 20.8253 29.5732 20.8253H26.818C26.429 20.8253 26.1135 21.1408 26.1135 21.5299C26.1135 21.9189 26.429 22.2344 26.818 22.2344H28.2028C28.7298 22.2344 29.1585 22.6631 29.1585 23.1901C29.1585 23.7171 28.7298 24.1458 28.2028 24.1458H19.798C19.271 24.1458 18.8423 23.7171 18.8423 23.1901C18.8423 22.6631 19.271 22.2344 19.798 22.2344H24C24.3891 22.2344 24.7045 21.919 24.7045 21.5299C24.7045 21.1408 24.3892 20.8253 24.0001 20.8253ZM27.2369 25.5548V26.8235H20.7639V25.5548H27.2369ZM43.8866 22.5693C43.8866 22.8391 43.693 23.0641 43.4261 23.1042L39.9453 23.6274C39.6488 23.6721 39.4129 23.8995 39.3576 24.1942C38.9583 26.3231 38.1343 28.3114 36.9087 30.1038C36.7395 30.3513 36.7454 30.6788 36.9236 30.92L39.0157 33.7522C39.176 33.9692 39.1539 34.2653 38.9631 34.456L37.1613 36.2578C36.9705 36.4486 36.6745 36.4707 36.4574 36.3104L33.6252 34.2184C33.3841 34.0402 33.0566 34.0343 32.809 34.2035C32.0001 34.7566 31.1379 35.2318 30.2401 35.6233C29.856 34.8891 29.5394 34.1258 29.2923 33.3403C31.4974 32.3721 33.3861 30.8264 34.7804 28.8374C36.3347 26.6202 37.1562 24.0122 37.1562 21.2952C37.1562 14.0411 31.2546 8.13947 24.0005 8.13947C22.6351 8.13947 21.289 8.34787 19.9999 8.75897C19.6292 8.87719 19.4245 9.27347 19.5427 9.64416C19.6609 10.0148 20.0573 10.2196 20.4279 10.1014C21.5785 9.73453 22.7804 9.54844 24.0004 9.54844C30.4776 9.54844 35.7472 14.818 35.7472 21.2952C35.7472 23.7213 35.0139 26.0497 33.6266 28.0286C32.4252 29.7425 30.8137 31.0881 28.934 31.9572C28.7435 31.0286 28.646 30.0764 28.646 29.1109V28.2324H29.1656C29.5547 28.2324 29.8702 27.917 29.8702 27.5279C29.8702 27.1388 29.5547 26.8234 29.1656 26.8234H28.646V25.5125C29.7387 25.3043 30.5676 24.3425 30.5676 23.19C30.5676 22.8027 30.4731 22.4375 30.3073 22.1145C31.2271 21.8066 31.8922 20.9375 31.8922 19.9153V15.8644C31.8922 15.0785 31.2528 14.4391 30.4669 14.4391H28.6623C27.8764 14.4391 27.237 15.0785 27.237 15.8644V17.3692H26.4227V15.8644C26.4227 15.0785 25.7833 14.4391 24.9974 14.4391H23.0035C22.2176 14.4391 21.5783 15.0785 21.5783 15.8644V17.3692H20.764V15.8644C20.764 15.0785 20.1246 14.4391 19.3387 14.4391H17.5341C16.7482 14.4391 16.1088 15.0785 16.1088 15.8644V19.9154C16.1088 20.9375 16.7738 21.8067 17.6935 22.1146C17.5278 22.4376 17.4334 22.8028 17.4334 23.1901C17.4334 24.3426 18.2622 25.3044 19.355 25.5126V26.8235H18.8353C18.4463 26.8235 18.1308 27.1389 18.1308 27.528C18.1308 27.9171 18.4463 28.2325 18.8353 28.2325H19.355V29.111C19.355 30.0765 19.2574 31.0287 19.067 31.9573C17.1873 31.0881 15.5757 29.7425 14.3743 28.0287C12.987 26.0497 12.2538 23.7214 12.2538 21.2953C12.2538 19.2214 12.8013 17.1832 13.8373 15.4011C14.8431 13.6708 16.2841 12.2153 18.0045 11.192C18.3389 10.993 18.4488 10.5608 18.2499 10.2263C18.051 9.89203 17.6186 9.78216 17.2842 9.981C15.3583 11.1265 13.7452 12.7559 12.6192 14.693C11.4584 16.6899 10.8448 18.973 10.8448 21.2954C10.8448 24.0124 11.6664 26.6204 13.2206 28.8376C14.615 30.8266 16.5037 32.3722 18.7088 33.3405C18.4616 34.1259 18.145 34.8893 17.761 35.6235C16.8631 35.232 16.0009 34.7567 15.192 34.2037C14.9445 34.0344 14.617 34.0404 14.3758 34.2186L11.5435 36.3106C11.3267 36.4709 11.0306 36.4489 10.8398 36.258L9.03808 34.4562C8.8473 34.2654 8.82517 33.9695 8.98549 33.7524L11.0775 30.9202C11.2556 30.6791 11.2616 30.3516 11.0923 30.104C9.86664 28.3114 9.04267 26.3231 8.64348 24.1944C8.58817 23.8997 8.3523 23.6723 8.05577 23.6276L4.57492 23.1044C4.30811 23.0643 4.11442 22.8393 4.11442 22.5695V20.0212C4.11442 19.7514 4.30811 19.5265 4.57492 19.4864L8.05586 18.9631C8.35248 18.9186 8.58827 18.691 8.64358 18.3963C9.04286 16.2675 9.86673 14.2793 11.0924 12.4867C11.2616 12.2393 11.2557 11.9117 11.0776 11.6705L8.9852 8.83828C8.82489 8.62125 8.84702 8.32519 9.0378 8.13441L10.8395 6.33272C11.0302 6.14184 11.3262 6.11981 11.5434 6.28012L14.3755 8.37216C14.6167 8.55028 14.9442 8.55628 15.1917 8.38706C16.9842 7.16137 18.9726 6.33741 21.1013 5.93822C21.396 5.88291 21.6235 5.64712 21.6681 5.3505L22.1914 1.86956C22.2315 1.60275 22.4564 1.40906 22.7262 1.40906H25.2743C25.5441 1.40906 25.7691 1.60275 25.8092 1.86956L26.3324 5.3505C26.377 5.64703 26.6045 5.88291 26.8992 5.93822C29.0281 6.3375 31.0164 7.16137 32.8089 8.38706C33.0565 8.55637 33.3839 8.55028 33.6251 8.37216L36.4573 6.28012C36.6744 6.11981 36.9704 6.14194 37.1612 6.33272L38.963 8.1345C39.1538 8.32528 39.1759 8.62134 39.0156 8.83838L36.9235 11.6707C36.7454 11.9119 36.7394 12.2393 36.9086 12.4869C38.1342 14.2793 38.9582 16.2676 39.3575 18.3965C39.4128 18.6912 39.6487 18.9187 39.9452 18.9633L43.426 19.4866C43.6929 19.5267 43.8865 19.7516 43.8865 20.0214V22.5693H43.8866Z" fill="#0454A7"/>
</svg>
