<svg width="48" height="48" viewBox="0 0 48 48" fill="none" xmlns="http://www.w3.org/2000/svg">
<path d="M24 1.49976C22.3345 1.49976 20.9985 2.84882 20.9985 4.49674C20.9985 6.14469 22.3345 7.49962 24 7.49962C25.6655 7.49962 27.0015 6.14469 27.0015 4.49674C27.0015 2.84882 25.6655 1.49976 24 1.49976ZM24 2.99971C24.8197 2.99971 25.5015 3.65947 25.5015 4.49674C25.5015 5.33404 24.8227 5.99964 24 5.99964C23.1773 5.99964 22.4985 5.33404 22.4985 4.49674C22.4985 3.65947 23.1803 2.99971 24 2.99971ZM18.9565 5.99958L8.91359 10.6328C8.00874 11.0304 8.61587 12.4183 9.54197 11.9951L19.5864 7.36186C20.2866 7.04931 20.1048 5.98448 19.3213 5.92784C19.1954 5.91936 19.0704 5.94488 18.9565 5.99958ZM38.4581 11.9951C39.3842 12.4183 39.9913 11.0305 39.0865 10.6328L29.0435 5.99964C28.9299 5.94522 28.8046 5.92084 28.6787 5.9279C27.8951 5.98456 27.7134 7.04937 28.4136 7.36192L38.4581 11.9951ZM22.0342 10.0572C21.474 10.3285 21.2668 10.747 21.1436 11.043C21.0202 11.339 20.9718 11.5063 20.8169 11.6963C20.6618 11.8862 20.3792 12.1291 19.7256 12.4053C19.0696 12.6825 18.6877 12.7216 18.4351 12.7041C18.1825 12.6871 18.0311 12.6105 17.7437 12.4991C17.4562 12.3875 17.0082 12.2443 16.4531 12.4274C15.9518 12.5927 15.4576 12.9909 14.9092 13.5465C14.3142 14.1493 13.9549 14.6467 13.812 15.1022C13.6385 15.6552 13.795 16.1006 13.9115 16.3853C14.0286 16.67 14.1065 16.8227 14.1283 17.0723C14.151 17.3221 14.117 17.7055 13.8514 18.3628C13.5847 19.0202 13.3436 19.317 13.1541 19.4805C12.9648 19.644 12.8024 19.6945 12.5228 19.813C12.1591 19.9669 11.7951 20.1821 11.5531 20.6494C11.3331 21.0742 11.243 21.6691 11.2498 22.498C11.2442 23.2595 11.3116 23.8807 11.5531 24.3466C11.7951 24.8139 12.161 25.0298 12.5228 25.183C12.8023 25.3015 12.9559 25.3491 13.1453 25.5126C13.3347 25.6761 13.5845 25.9758 13.8514 26.6332C14.1133 27.2778 14.1473 27.6586 14.1283 27.9075C14.1085 28.1567 14.0359 28.3071 13.9231 28.577C13.7871 28.9021 13.6603 29.3086 13.7899 29.806C13.8851 30.1715 14.0785 30.5064 14.3905 30.8855C13.8799 31.7232 13.4786 32.6141 13.1995 33.5779C12.658 32.7776 11.9462 32.1452 11.1019 31.6824C11.6626 31.0259 11.9984 30.1772 11.9984 29.2493C11.9984 27.1872 10.3325 25.498 8.24986 25.498C6.16716 25.498 4.49545 27.1872 4.49545 29.2493C4.49545 30.1783 4.8332 31.0256 5.39633 31.6824C3.51166 32.6982 2.24988 34.6878 2.24988 36.9806V37.861C2.24988 39.7396 3.76499 41.2491 5.62342 41.2491H10.8719C11.5658 41.2491 12.2119 41.0416 12.7499 40.6778V43.5049C12.7499 44.4053 13.0328 45.2873 13.7196 45.8676C14.4063 46.4479 15.4107 46.6289 16.5599 46.4052C16.5769 46.4024 16.5934 46.3967 16.6098 46.3939L23.9956 44.4061L31.4106 46.3997C32.5847 46.629 33.5609 46.4723 34.2788 45.868C34.9653 45.2899 35.25 44.4113 35.25 43.5155V40.681C35.7879 41.0447 36.434 41.2493 37.1279 41.2493H42.3764C44.2348 41.2493 45.75 39.7398 45.75 37.8612V36.9809C45.75 34.6881 44.4882 32.6985 42.6035 31.6827C43.1666 31.0259 43.5043 30.1786 43.5043 29.2496C43.5043 27.1875 41.8327 25.4982 39.75 25.4982C37.6673 25.4982 36.0014 27.1875 36.0014 29.2496C36.0014 30.1775 36.3372 31.0262 36.8979 31.6827C36.0595 32.1337 35.3389 32.7808 34.7973 33.5811C34.5181 32.6174 34.1185 31.7175 33.6079 30.8799C33.9202 30.5005 34.1147 30.1721 34.2099 29.8062C34.3395 29.3088 34.2126 28.9024 34.0767 28.5773C33.9641 28.3074 33.8907 28.1569 33.8715 27.9078C33.8516 27.6589 33.8856 27.2781 34.1484 26.6335C34.4151 25.9761 34.665 25.6764 34.8545 25.5129C35.0438 25.3493 35.1974 25.3017 35.477 25.1833C35.8388 25.0299 36.2047 24.8142 36.4468 24.3469C36.6883 23.881 36.7562 23.2598 36.75 22.4983C36.7556 21.6694 36.6669 21.0745 36.4468 20.6497C36.2047 20.1824 35.8407 19.9673 35.477 19.8133C35.1975 19.6948 35.0352 19.6444 34.8457 19.4808C34.6563 19.3172 34.4152 19.0204 34.1484 18.3631C33.8817 17.7058 33.8498 17.3222 33.8715 17.0726C33.8942 16.8232 33.9713 16.6703 34.0883 16.3856C34.2054 16.1009 34.3616 15.6555 34.1878 15.1025C34.045 14.647 33.6856 14.1495 33.0907 13.5468C32.5422 12.9912 32.0481 12.5931 31.5467 12.4277C30.9917 12.2446 30.5437 12.3877 30.2562 12.4994C29.9687 12.6111 29.8174 12.6868 29.5648 12.7044C29.3122 12.7214 28.9303 12.6817 28.2742 12.4055C27.6207 12.1294 27.3379 11.8866 27.1829 11.6966C27.0279 11.5067 26.9797 11.3393 26.8563 11.0433C26.733 10.7473 26.5258 10.3289 25.9657 10.0575C25.4797 9.82191 24.897 9.74837 23.9999 9.74823C23.1028 9.74809 22.5201 9.8218 22.0342 10.0572ZM4.49999 10.4981C2.83444 10.4981 1.5 11.8471 1.5 13.4951C1.5 15.143 2.83444 16.498 4.49999 16.498C6.16554 16.498 7.50145 15.143 7.50145 13.4951C7.50145 11.8471 6.16554 10.4981 4.49999 10.4981ZM43.5 10.4981C41.8344 10.4981 40.4985 11.8471 40.4985 13.4951C40.4985 15.143 41.8344 16.498 43.5 16.498C45.1655 16.498 46.5 15.143 46.5 13.4951C46.5 11.8471 45.1655 10.4981 43.5 10.4981ZM25.3125 11.4034C25.4157 11.4533 25.4259 11.5338 25.4735 11.6245C25.5566 11.8238 25.6844 12.2293 26.0214 12.6425C26.3583 13.0558 26.8766 13.4471 27.6869 13.7895C28.4948 14.1309 29.1377 14.2409 29.6688 14.204C30.1999 14.1672 30.5928 13.9812 30.8041 13.8993C30.9297 13.8506 30.9929 13.8225 31.0751 13.8495C31.1828 13.8852 31.4564 14.0241 32.0228 14.598C32.5631 15.1453 32.7205 15.4441 32.7538 15.5501C32.7765 15.6388 32.7396 15.7173 32.6982 15.8151C32.6274 15.9872 32.4235 16.4088 32.3774 16.9387C32.3312 17.4686 32.429 18.1154 32.7583 18.9264C33.0875 19.7374 33.4623 20.2672 33.8657 20.6153C34.2691 20.9635 34.6805 21.1077 34.8911 21.1969C35.0101 21.2473 35.0663 21.2519 35.1122 21.3403C35.1581 21.429 35.2624 21.7225 35.2556 22.4975C35.2613 23.2269 35.1737 23.5358 35.1122 23.6547C35.0663 23.7434 34.9829 23.7593 34.8911 23.7982C34.6805 23.8874 34.2691 24.0314 33.8657 24.3797C33.4623 24.7279 33.0875 25.2576 32.7583 26.0686C32.4355 26.864 32.3373 27.498 32.3774 28.0227C32.4174 28.5474 32.5889 28.9044 32.6924 29.152C32.7363 29.2759 32.7799 29.3454 32.7584 29.429C32.7527 29.4517 32.7201 29.5316 32.6909 29.5872C31.5792 28.2407 30.1501 27.151 28.5264 26.4408C29.4489 25.3845 30.0015 24.0069 30.0015 22.4989C30.0015 19.1941 27.3049 16.4991 24.0001 16.4991C20.6952 16.4991 17.9986 19.1941 17.9986 22.4989C17.9986 24.0072 18.5508 25.3844 19.4737 26.4408C17.8498 27.1507 16.4206 28.2408 15.3091 29.5872C15.2802 29.5316 15.2479 29.4525 15.2417 29.429C15.219 29.3454 15.2644 29.2759 15.3077 29.152C15.4112 28.9043 15.5827 28.5474 15.6227 28.0227C15.6626 27.498 15.5645 26.864 15.2418 26.0686C14.9126 25.2576 14.5378 24.7279 14.1344 24.3797C13.731 24.0315 13.3195 23.8873 13.109 23.7982C13.0169 23.7593 12.9338 23.7432 12.8879 23.6547C12.8264 23.5359 12.7382 23.2269 12.7445 22.4975C12.7388 21.7225 12.842 21.429 12.8879 21.3403C12.9338 21.2516 12.9899 21.2473 13.109 21.1969C13.3196 21.1076 13.731 20.9636 14.1344 20.6153C14.5378 20.2672 14.9126 19.7374 15.2418 18.9264C15.571 18.1154 15.6689 17.4686 15.6227 16.9387C15.5764 16.4088 15.3726 15.9871 15.3019 15.8151C15.2616 15.7171 15.2225 15.6385 15.2463 15.5501C15.2795 15.4441 15.4371 15.1453 15.9773 14.598C16.5437 14.0241 16.8173 13.885 16.925 13.8495C17.0072 13.8211 17.0704 13.8505 17.196 13.8993C17.4072 13.9813 17.8002 14.1672 18.3313 14.204C18.8623 14.2409 19.5053 14.1309 20.3132 13.7895C21.1235 13.4471 21.6418 13.0558 21.9787 12.6425C22.3157 12.2293 22.4436 11.8236 22.5266 11.6245C22.5745 11.5338 22.5844 11.4533 22.6879 11.4034C22.8086 11.3447 23.2037 11.2481 24.0002 11.2481C24.7966 11.2481 25.1916 11.3447 25.3125 11.4034ZM4.49999 11.9981C5.31971 11.9981 6.00145 12.6578 6.00145 13.4951C6.00145 14.3324 5.32266 14.998 4.49999 14.998C3.67732 14.998 2.99998 14.3324 2.99998 13.4951C2.99998 12.6578 3.68027 11.9981 4.49999 11.9981ZM43.5 11.9981C44.3197 11.9981 45 12.6578 45 13.4951C45 14.3324 44.3227 14.998 43.5 14.998C42.6773 14.998 41.9985 14.3324 41.9985 13.4951C41.9985 12.6578 42.6803 11.9981 43.5 11.9981ZM5.85059 17.7196C5.33459 17.6873 4.94123 18.1741 5.08152 18.6717L6.39988 23.6653C6.63006 24.6721 8.14444 24.2744 7.85009 23.2844L6.53172 18.2909C6.45405 17.9719 6.17816 17.7405 5.85059 17.7196ZM42.1494 17.7196C41.8218 17.7394 41.5458 17.9719 41.4683 18.2909L40.1499 23.2844C39.8556 24.2744 41.37 24.6721 41.6001 23.6653L42.9185 18.6717C43.0588 18.1741 42.6653 17.6871 42.1494 17.7196ZM24 17.9994C26.4707 17.9994 28.5014 20.0051 28.5014 22.4993C28.5014 24.9935 26.4795 27.0007 24 27.0007C21.5205 27.0007 19.4985 24.9935 19.4985 22.4993C19.4985 20.0051 21.5263 17.9994 24 17.9994ZM8.25 26.9977C9.48392 26.9977 10.4971 27.9977 10.4971 29.2492C10.4971 30.5006 9.48687 31.4976 8.25 31.4976C7.0131 31.4976 5.99705 30.5006 5.99705 29.2492C5.99705 27.9977 7.01605 26.9977 8.25 26.9977ZM39.75 26.9977C40.9839 26.9977 42.0029 27.9977 42.0029 29.2492C42.0029 30.5006 40.9869 31.4976 39.75 31.4976C38.5131 31.4976 37.5029 30.5006 37.5029 29.2492C37.5029 27.9977 38.516 26.9977 39.75 26.9977ZM18.7515 39.3388V36.7417C18.7288 35.7636 17.2732 35.7636 17.2514 36.7417V39.724L17.0641 39.7722C16.0932 40.0194 16.4638 41.4754 17.4347 41.2282L28.7726 38.3162C29.6375 38.094 30.4793 38.5946 30.6989 39.4177C30.9219 40.2505 30.4392 41.1159 29.587 41.3454L16.2716 44.9327C16.2687 44.9333 16.2687 44.9322 16.2659 44.9327C15.4142 45.0969 14.9562 44.9469 14.6882 44.7218C14.4192 44.4945 14.2517 44.102 14.2517 43.5046V36.7503C14.2517 32.4744 16.9784 28.8665 20.7527 27.5469C21.6866 28.1474 22.8063 28.5005 24.0003 28.5005C25.1934 28.5005 26.31 28.1481 27.2434 27.5484C31.0426 28.8766 33.7502 32.4744 33.7502 36.7503V43.5148C33.7503 44.1052 33.5813 44.4954 33.3123 44.7218C33.0444 44.9475 32.5864 45.0969 31.7346 44.9327L26.886 43.6276L29.9739 42.7956C31.6035 42.3568 32.5866 40.6842 32.1448 39.0354C31.9259 38.2184 31.4083 37.5799 30.7488 37.1898V36.7415C30.7261 35.7635 29.2705 35.7723 29.2488 36.767C29.0226 36.75 28.6817 36.7869 28.3961 36.8602L18.7515 39.3388ZM27.0015 32.2491C26.0234 32.2718 26.0234 33.7274 27.0015 33.749H29.2485C30.2266 33.7264 30.2266 32.2708 29.2485 32.2491H27.0015ZM6.79688 32.7032C7.2147 32.8854 7.74121 32.9976 8.25 32.9976C8.75879 32.9976 9.26526 32.8853 9.70604 32.7032C11.487 33.3014 12.75 35.0034 12.75 36.9804V37.8608C12.75 38.9053 11.9221 39.7489 10.872 39.7489H5.62353C4.57349 39.7489 3.75 38.8951 3.75 37.8608V36.9804C3.75 35.0004 5.01468 33.3023 6.79688 32.7032ZM38.2939 32.7032C38.7171 32.8883 39.2412 32.9991 39.75 32.9991C40.2588 32.9991 40.7706 32.8942 41.2031 32.7032C42.9853 33.3023 44.25 35.0004 44.25 36.9804V37.8608C44.25 38.8951 43.4265 39.7489 42.3764 39.7489H37.1279C36.0779 39.7489 35.25 38.8951 35.25 37.8608V36.9804C35.25 35.0034 36.5129 33.3014 38.2939 32.7032Z" fill="#0454A7"/>
</svg>
