<svg width="48" height="48" viewBox="0 0 48 48" fill="none" xmlns="http://www.w3.org/2000/svg">
<g clip-path="url(#clip0_149_932)">
<path d="M39.6356 4.76957C33.3316 -0.19043 27.8996 -1.10003 18.1156 1.15757C15.458 1.77037 12.4508 2.70557 10.2836 4.99757C8.87236 6.50649 7.78352 8.28729 7.08363 10.2312C6.78651 11.0871 6.54441 11.9611 6.35882 12.848L6.29562 13.1248C6.11833 13.7706 5.88159 14.3986 5.58842 15.0008C5.16255 15.7293 4.93576 16.5569 4.93082 17.4008C5.09259 18.1152 5.50569 18.7478 6.09482 19.1832C6.48602 19.5424 6.74363 19.7952 6.74603 20.0256C6.7119 20.1556 6.65994 20.2802 6.59162 20.396C6.46372 20.6231 6.3717 20.8687 6.31883 21.124C6.20949 22.0834 5.81742 22.9887 5.19242 23.7248C2.67962 26.432 1.96202 27.3656 2.05002 28.332C2.18705 29.0036 2.61402 29.5802 3.21642 29.9072C3.48017 30.0915 3.75872 30.2536 4.04922 30.392C4.39322 30.568 4.97003 30.8624 5.00922 31.0728C5.06141 31.3439 5.03046 31.6244 4.92042 31.8776C4.80282 32.1288 4.68042 32.3448 4.57402 32.5336C4.26202 33.0856 3.79162 33.92 4.52922 34.5424C4.70202 34.6952 4.99802 34.928 5.26762 35.1344C5.06694 35.486 4.97742 35.8901 5.01082 36.2936C5.05296 36.6066 5.22299 36.8882 5.48042 37.0712C5.65882 37.1984 5.84923 37.3112 6.04043 37.4176C6.50923 37.6856 6.69162 37.8104 6.75482 38.0576C6.81279 38.3569 6.78959 38.6663 6.68762 38.9536C6.42246 39.8939 6.46763 40.8946 6.81642 41.8072C7.22726 43.3271 8.7579 44.2578 10.2964 43.9232C12.5747 43.3725 14.8215 42.6987 17.0268 41.9048C18.1308 42.5632 19.1804 44.1632 19.9372 46.364C20.2678 47.339 21.1813 47.9964 22.2108 48H38.3436C39.1742 47.9994 39.9455 47.5694 40.3826 46.8632C40.8198 46.1569 40.8607 45.2749 40.4908 44.5312C39.4918 42.3088 38.8699 39.9355 38.6508 37.5088C38.367 35.1161 38.726 32.691 39.6908 30.4832C40.2661 29.2887 40.9754 28.1636 41.8052 27.1296C43.3876 24.9912 45.1812 22.5696 45.2396 18.4456C45.2873 16.1523 45.0063 13.864 44.4052 11.6504C43.5999 8.902 41.9266 6.4881 39.6356 4.76957ZM40.5204 26.1776C39.618 27.3083 38.8482 28.5387 38.226 29.8448C37.1465 32.3134 36.7444 35.0251 37.0612 37.7008C37.301 40.3122 37.9771 42.8649 39.0612 45.2528C39.1804 45.5002 39.1644 45.7914 39.0187 46.0242C38.8731 46.257 38.6182 46.3989 38.3436 46.4H22.2108C21.8648 46.397 21.5589 46.1746 21.4492 45.8464C20.9281 44.1481 20.0304 42.5893 18.8228 41.2864L19.4204 41.0768C20.0116 40.8688 20.4604 40.712 20.6812 40.6416C24.1036 39.5648 25.8156 38.0016 25.7684 36.008C25.7694 35.794 25.6822 35.5891 25.5274 35.4413C25.3725 35.2936 25.1637 35.2162 24.95 35.2272C24.7378 35.232 24.5363 35.3209 24.3897 35.4744C24.2431 35.6279 24.1635 35.8334 24.1684 36.0456C24.1876 36.8704 23.5156 38.0728 20.1988 39.116C19.9652 39.1896 19.5028 39.352 18.89 39.5672C18.3164 39.7688 17.61 40.0184 16.83 40.2872H16.8236C14.5784 41.102 12.2908 41.7947 9.97083 42.3624C9.22279 42.5073 8.49486 42.032 8.32683 41.2888C8.07701 40.6635 8.04878 39.9715 8.24683 39.328C8.41205 38.7901 8.43329 38.2182 8.30843 37.6696C8.0793 36.9359 7.54229 36.3381 6.83722 36.032C6.77962 35.9992 6.72202 35.9672 6.66523 35.9336C6.75037 35.7578 6.85302 35.5911 6.97163 35.436C7.1042 35.2661 7.16264 35.0499 7.13373 34.8364C7.10482 34.6229 6.99099 34.4301 6.81802 34.3016C6.62602 34.1592 6.17002 33.816 5.84203 33.5536C5.88282 33.4784 5.92843 33.3936 5.97083 33.3216C6.09323 33.1048 6.23403 32.8536 6.37083 32.5672C6.62601 32.0078 6.70121 31.3831 6.58602 30.7792C6.39962 29.7976 5.46602 29.32 4.78202 28.9704C4.5724 28.8713 4.37027 28.7572 4.17722 28.6288C3.98976 28.4985 3.81293 28.3535 3.64842 28.1952C3.66202 27.7328 5.42202 25.8344 6.36842 24.8144C7.20909 23.8511 7.74235 22.6584 7.89963 21.3896C7.93359 21.2974 7.97423 21.2078 8.02122 21.1216C8.22098 20.7836 8.33343 20.4011 8.34842 20.0088C8.26821 19.2005 7.84008 18.4672 7.17562 18C6.85562 17.704 6.54843 17.424 6.51403 17.1776C6.6111 16.6444 6.79144 16.1299 7.04843 15.6528C7.38329 14.9574 7.65117 14.2317 7.84842 13.4856L7.91323 13.2064C8.08439 12.3852 8.30696 11.5756 8.57963 10.7824C9.20612 9.04213 10.1803 7.44762 11.4428 6.09597C13.3124 4.11757 15.9228 3.30157 18.4708 2.71437C28.9084 0.30797 33.454 1.94317 38.6484 6.02877C40.6797 7.53199 42.1618 9.65995 42.8676 12.0864C43.4265 14.1506 43.687 16.2843 43.6412 18.4224C43.5908 22.0296 42.0996 24.0448 40.5204 26.1776Z" fill="#0454A7"/>
<path d="M34.1065 13.4239C35.2607 14.6493 37.1468 14.823 38.5054 13.8292C39.8641 12.8354 40.2697 10.9853 39.4515 9.51415C38.6334 8.04305 36.8475 7.41173 35.2866 8.04175C33.7256 8.67177 32.8783 10.3658 33.3105 11.9927C32.3242 12.8481 31.5188 13.892 30.9417 15.0631C30.4298 14.6797 29.8732 14.36 29.2841 14.1111C28.6065 12.8215 28.7289 11.0575 29.0393 9.58391C29.0937 9.58391 29.1449 9.59991 29.1993 9.59991C30.8087 9.61266 32.1813 8.43701 32.416 6.8447C32.6506 5.25239 31.6756 3.73077 30.1309 3.27868C28.5861 2.82658 26.9446 3.58239 26.2837 5.04996C25.6228 6.51753 26.1449 8.24769 27.5073 9.10471C27.1623 10.5058 27.1078 11.9626 27.3473 13.3855C26.6673 13.1722 25.9206 12.9727 25.1073 12.7871C24.3713 12.6215 23.6713 12.4807 23.0129 12.3615C22.3408 11.7745 21.8346 11.0214 21.5449 10.1775C23.0529 9.60278 23.8993 7.99719 23.5212 6.42824C23.143 4.85929 21.6582 3.81548 20.0539 3.99082C18.4496 4.16615 17.2253 5.50603 17.195 7.11962C17.1647 8.73321 18.3379 10.1181 19.9345 10.3535C20.0952 10.9158 20.3235 11.4566 20.6145 11.9639C19.0321 11.7319 17.5393 11.5639 16.3385 11.4495C16.0678 9.85382 14.6524 8.70863 13.0353 8.77696C11.4183 8.84528 10.1045 10.1058 9.96935 11.7186C9.83421 13.3315 10.9199 14.793 12.503 15.1295C14.0861 15.466 15.6724 14.5723 16.2049 13.0439C17.9089 13.2039 20.2049 13.4759 22.4961 13.8919L22.6241 13.9159C21.8166 14.5585 21.1008 15.3087 20.4969 16.1455C20.2063 16.0538 19.9039 16.0048 19.5993 15.9999C18.0693 15.9943 16.7478 17.0686 16.4408 18.5675C16.1339 20.0664 16.9267 21.5737 18.3357 22.1699C19.7448 22.7662 21.3787 22.2858 22.2409 21.0219C23.1031 19.758 22.9541 18.0614 21.8849 16.9671C22.5503 16.0342 23.4025 15.2499 24.3873 14.6639C24.5773 14.561 24.775 14.4727 24.9785 14.3999C26.1093 14.6517 27.2188 14.9911 28.2969 15.4151C28.3216 15.4289 28.3469 15.4415 28.3729 15.4527L28.3865 15.4591L28.3993 15.4655C29.0752 15.7119 29.698 16.0846 30.2345 16.5639C30.3331 16.6623 30.4181 16.7734 30.4873 16.8943C30.8553 17.5143 30.7745 18.4335 30.2313 19.7911C29.9345 20.5399 29.5441 21.3199 29.1305 22.1455C27.7193 24.9623 26.1209 28.1551 28.6993 30.2255C31.7081 32.6327 31.8145 40.9455 31.6017 43.9439C31.5863 44.1557 31.6557 44.3649 31.7946 44.5255C31.9336 44.686 32.1307 44.7848 32.3425 44.7999H32.3993C32.8198 44.801 33.1694 44.4762 33.1993 44.0567C33.2337 43.5823 33.9809 32.3983 29.7025 28.9759C28.2425 27.8055 29.0953 25.7959 30.5633 22.8639C30.9201 22.1527 31.2753 21.4239 31.5761 20.7119C32.3787 20.5173 33.2244 20.7606 33.8009 21.3519C32.8458 22.6821 33.0292 24.515 34.2288 25.6297C35.4283 26.7444 37.2697 26.793 38.5264 25.7431C39.7831 24.6931 40.0628 22.8725 39.1792 21.4938C38.2956 20.1151 36.5245 19.6087 35.0457 20.3119C34.2674 19.5536 33.243 19.0994 32.1585 19.0319C32.3932 18.1905 32.356 17.2965 32.0521 16.4775C32.5114 15.3248 33.2118 14.2837 34.1065 13.4239ZM36.3993 9.59991C37.2829 9.59991 37.9993 10.3163 37.9993 11.1999C37.9993 12.0836 37.2829 12.7999 36.3993 12.7999C35.5156 12.7999 34.7993 12.0836 34.7993 11.1999C34.7993 10.3163 35.5156 9.59991 36.3993 9.59991ZM29.1993 4.79991C30.0829 4.79991 30.7993 5.51626 30.7993 6.39991C30.7993 7.28357 30.0829 7.99991 29.1993 7.99991C28.3156 7.99991 27.5993 7.28357 27.5993 6.39991C27.5993 5.51626 28.3156 4.79991 29.1993 4.79991ZM18.7993 7.19991C18.7993 6.31626 19.5156 5.59991 20.3993 5.59991C21.2829 5.59991 21.9993 6.31626 21.9993 7.19991C21.9993 8.08357 21.2829 8.79991 20.3993 8.79991C19.5156 8.79991 18.7993 8.08357 18.7993 7.19991ZM13.1993 13.5999C12.3156 13.5999 11.5993 12.8836 11.5993 11.9999C11.5993 11.1163 12.3156 10.3999 13.1993 10.3999C14.0829 10.3999 14.7993 11.1163 14.7993 11.9999C14.7993 12.8836 14.0829 13.5999 13.1993 13.5999ZM19.5993 20.7999C18.7156 20.7999 17.9993 20.0836 17.9993 19.1999C17.9993 18.3163 18.7156 17.5999 19.5993 17.5999C20.4829 17.5999 21.1993 18.3163 21.1993 19.1999C21.1993 20.0836 20.4829 20.7999 19.5993 20.7999ZM37.9993 23.1999C37.9993 24.0836 37.2829 24.7999 36.3993 24.7999C35.5156 24.7999 34.7993 24.0836 34.7993 23.1999C34.7993 22.3163 35.5156 21.5999 36.3993 21.5999C37.2829 21.5999 37.9993 22.3163 37.9993 23.1999Z" fill="#0454A7"/>
</g>
<defs>
<clipPath id="clip0_149_932">
<rect width="48" height="48" fill="white"/>
</clipPath>
</defs>
</svg>
