<svg width="48" height="48" viewBox="0 0 48 48" fill="none" xmlns="http://www.w3.org/2000/svg">
<g clip-path="url(#clip0_148_837)">
<path d="M2.4 44H29.8608L30.6 44.7392C31.0647 45.2011 31.6932 45.4604 32.3484 45.4604C33.0036 45.4604 33.6321 45.2011 34.0968 44.7392C34.459 44.3743 34.6983 43.9055 34.7814 43.3982C34.8646 42.8909 34.7875 42.3702 34.5608 41.9088L35.896 40.5728L42.3528 47.0312C42.6583 47.3462 43.0234 47.5972 43.4268 47.7697C43.8303 47.9423 44.264 48.0328 44.7028 48.0362C45.1416 48.0395 45.5766 47.9555 45.9826 47.7891C46.3886 47.6227 46.7575 47.3772 47.0677 47.0669C47.378 46.7566 47.6234 46.3877 47.7897 45.9817C47.9561 45.5757 48.04 45.1406 48.0366 44.7018C48.0332 44.2631 47.9425 43.8293 47.7699 43.4259C47.5973 43.0225 47.3462 42.6575 47.0312 42.352L40.5744 35.8936L41.9088 34.56C42.3694 34.7904 42.8911 34.8696 43.3993 34.7861C43.9075 34.7026 44.3765 34.4609 44.7392 34.0952C45.2014 33.6305 45.4608 33.0018 45.4608 32.3464C45.4608 31.691 45.2014 31.0623 44.7392 30.5976L36.4632 22.32C35.9908 21.8726 35.365 21.6233 34.7144 21.6233C34.0638 21.6233 33.438 21.8726 32.9656 22.32C32.6034 22.6849 32.3641 23.1537 32.281 23.6611C32.198 24.1685 32.2754 24.6891 32.5024 25.1504L27.364 30.288C25.5998 29.3115 23.6164 28.7994 21.6 28.8H20.8V28.0864C25.2392 26.3128 26.16 21.6912 26.3512 19.9112C27.0487 19.7416 27.6692 19.3428 28.1132 18.7787C28.5572 18.2146 28.799 17.5179 28.8 16.8C28.7971 16.2232 28.6369 15.6582 28.3368 15.1656C28.8701 15.0925 29.363 14.8413 29.7354 14.4527C30.1079 14.0642 30.3381 13.5611 30.3886 13.0252C30.4391 12.4893 30.3069 11.9521 30.0136 11.5008C29.7203 11.0495 29.283 10.7106 28.7728 10.5392C28.5008 5.5248 25.144 1.8992 19.8352 0.9064C19.7051 0.635905 19.5015 0.407466 19.2477 0.247186C18.9939 0.0869057 18.7002 0.001248 18.4 0H15.2C14.8998 0.001248 14.6061 0.0869057 14.3523 0.247186C14.0985 0.407466 13.8949 0.635905 13.7648 0.9064C8.456 1.9016 5.0992 5.5248 4.8272 10.5392C4.31699 10.7106 3.87971 11.0495 3.58639 11.5008C3.29307 11.9521 3.16093 12.4893 3.21143 13.0252C3.26193 13.5611 3.49211 14.0642 3.86458 14.4527C4.23705 14.8413 4.72994 15.0925 5.2632 15.1656C4.96307 15.6582 4.80293 16.2232 4.8 16.8C4.80099 17.5179 5.04284 18.2146 5.48683 18.7787C5.93082 19.3428 6.55126 19.7416 7.2488 19.9112C7.4368 21.6912 8.3608 26.3112 12.8 28.0864V28.8H12C8.81851 28.8036 5.76835 30.069 3.51869 32.3187C1.26904 34.5684 0.00359958 37.6185 0 40.8L0 41.6C0 42.2365 0.252856 42.847 0.702944 43.2971C1.15303 43.7471 1.76348 44 2.4 44ZM45.9 43.4832C46.2136 43.805 46.3878 44.2374 46.3849 44.6867C46.382 45.136 46.2023 45.5661 45.8846 45.8839C45.567 46.2016 45.1369 46.3815 44.6876 46.3845C44.2383 46.3875 43.8059 46.2135 43.484 45.9L37.0272 39.44L39.4432 37.024L45.9 43.4832ZM34.0976 23.4504C34.2628 23.2898 34.484 23.2 34.7144 23.2C34.9448 23.2 35.166 23.2898 35.3312 23.4504L43.608 31.728C43.7718 31.8918 43.8637 32.114 43.8637 32.3456C43.8637 32.5772 43.7718 32.7994 43.608 32.9632C43.4417 33.1216 43.2209 33.2099 42.9912 33.2099C42.7616 33.2099 42.5407 33.1216 42.3744 32.9632L34.0968 24.6856C33.9332 24.5217 33.8413 24.2995 33.8415 24.0678C33.8416 23.8362 33.9337 23.6141 34.0976 23.4504ZM33.5312 26.3832L37.104 29.956L40.6768 33.5288L33.5312 40.676L29.9584 37.1024L26.3856 33.5288L33.5312 26.3832ZM24 30.6864C24.7535 30.8657 25.4843 31.1298 26.1784 31.4736L25.1464 32.5056C24.7882 32.3373 24.3956 32.2551 24 32.2656V30.6864ZM23.4544 34.0944C23.5368 34.0129 23.6345 33.9485 23.7418 33.9048C23.8492 33.8611 23.9641 33.8391 24.08 33.84C24.194 33.8406 24.3068 33.8637 24.4118 33.9081C24.5168 33.9524 24.6121 34.0171 24.692 34.0984L32.9656 42.3728C33.1294 42.5365 33.2215 42.7586 33.2215 42.9901C33.2216 43.2217 33.1297 43.4438 32.966 43.6076C32.8023 43.7714 32.5803 43.8635 32.3487 43.8635C32.1171 43.8636 31.895 43.7717 31.7312 43.608L23.4544 35.3296C23.291 35.1656 23.1993 34.9435 23.1993 34.712C23.1993 34.4805 23.291 34.2584 23.4544 34.0944ZM20 2.56C24.252 3.5104 26.864 6.3672 27.1672 10.4H20V2.56ZM15.2 1.6H18.4V10.4H15.2V1.6ZM13.6 2.56V10.4H6.4328C6.736 6.3696 9.348 3.5128 13.6 2.56ZM5.6 13.6C5.38783 13.6 5.18434 13.5157 5.03432 13.3657C4.88429 13.2157 4.8 13.0122 4.8 12.8C4.8 12.5878 4.88429 12.3843 5.03432 12.2343C5.18434 12.0843 5.38783 12 5.6 12H28C28.2122 12 28.4157 12.0843 28.5657 12.2343C28.7157 12.3843 28.8 12.5878 28.8 12.8C28.8 13.0122 28.7157 13.2157 28.5657 13.3657C28.4157 13.5157 28.2122 13.6 28 13.6H5.6ZM8.8 19.2C8.8 18.9878 8.71572 18.7843 8.56569 18.6343C8.41566 18.4843 8.21217 18.4 8 18.4C7.57565 18.4 7.16869 18.2314 6.86863 17.9314C6.56857 17.6313 6.4 17.2243 6.4 16.8C6.4 16.3757 6.56857 15.9687 6.86863 15.6686C7.16869 15.3686 7.57565 15.2 8 15.2H25.6C26.0243 15.2 26.4313 15.3686 26.7314 15.6686C27.0314 15.9687 27.2 16.3757 27.2 16.8C27.2 17.2243 27.0314 17.6313 26.7314 17.9314C26.4313 18.2314 26.0243 18.4 25.6 18.4C25.3878 18.4 25.1843 18.4843 25.0343 18.6343C24.8843 18.7843 24.8 18.9878 24.8 19.2C24.8 19.5264 24.6784 27.2 16.8 27.2C8.9216 27.2 8.8 19.5248 8.8 19.2ZM19.2 28.56V29.6C19.2 30.2365 18.9471 30.847 18.4971 31.2971C18.047 31.7471 17.4365 32 16.8 32C16.1635 32 15.553 31.7471 15.1029 31.2971C14.6529 30.847 14.4 30.2365 14.4 29.6V28.56C15.9837 28.8833 17.6163 28.8833 19.2 28.56ZM11.2 30.4408C11.4648 30.42 11.7296 30.4 12 30.4H12.88C13.0636 31.3042 13.5542 32.1172 14.2686 32.7011C14.983 33.285 15.8773 33.604 16.8 33.604C17.7227 33.604 18.617 33.285 19.3314 32.7011C20.0458 32.1172 20.5364 31.3042 20.72 30.4H21.6C21.868 30.4 22.1344 30.4128 22.4 30.4328V32.9016C22.376 32.924 22.3472 32.94 22.32 32.9632C22.0317 33.252 21.8193 33.6077 21.7019 33.9986C21.5845 34.3895 21.5657 34.8033 21.6472 35.2032H11.2V30.4408ZM7.2 31.5832C7.95989 31.1873 8.76608 30.8874 9.6 30.6904V35.2H7.2V31.5832ZM7.2 36.8H22.6624L28.2624 42.4H7.2V36.8ZM1.6 40.8C1.60089 39.2221 1.96162 37.6653 2.65476 36.2478C3.3479 34.8303 4.35519 33.5896 5.6 32.62V42.4H2.4C2.18783 42.4 1.98434 42.3157 1.83431 42.1657C1.68429 42.0157 1.6 41.8122 1.6 41.6V40.8Z" fill="#0454A7"/>
</g>
<defs>
<clipPath id="clip0_148_837">
<rect width="48" height="48" fill="white"/>
</clipPath>
</defs>
</svg>
