<svg width="48" height="48" viewBox="0 0 48 48" fill="none" xmlns="http://www.w3.org/2000/svg">
<mask id="mask0_148_856" style="mask-type:luminance" maskUnits="userSpaceOnUse" x="0" y="0" width="48" height="48">
<path d="M0 3.8147e-06H48V48H0V3.8147e-06Z" fill="white"/>
</mask>
<g mask="url(#mask0_148_856)">
<path d="M39.9814 40.975L40.9642 39.9692M41.9008 38.9091C45.2694 34.8689 47.2969 29.6715 47.2969 24C47.2969 11.1335 36.8665 0.703129 24 0.703129C11.1335 0.703129 0.703125 11.1335 0.703125 24C0.703125 36.8665 11.1335 47.2969 24 47.2969C29.6745 47.2969 34.8746 45.2675 38.9153 41.8955M24 18.375C27.1066 18.375 29.625 20.8934 29.625 24C29.625 27.1066 27.1066 29.625 24 29.625C20.8934 29.625 18.375 27.1066 18.375 24C18.375 20.8934 20.8934 18.375 24 18.375Z" stroke="#0454A7" stroke-width="1.5" stroke-miterlimit="22.926"/>
<path d="M8.78709 21.1875C10.1098 13.9873 16.4174 8.53125 24 8.53125M21.1875 39.2129C13.9873 37.8902 8.53125 31.5825 8.53125 24M39.2129 26.8124C37.8902 34.0126 31.5826 39.4688 24 39.4688M26.8125 8.78709C34.0127 10.1097 39.4688 16.4174 39.4688 24" stroke="#0454A7" stroke-width="1.5" stroke-miterlimit="22.926"/>
<path d="M33.8438 7.03125V5.625M31.0312 5.625V4.21875" stroke="#0454A7" stroke-width="1.5" stroke-miterlimit="2.613"/>
<path d="M42.1206 21.3484L39.4689 24L36.8173 21.3484M11.1831 26.6516L8.53151 24L5.87988 26.6516M21.3486 11.183L24.0003 8.53124L21.3486 5.87961M26.6519 42.1204L24.0003 39.4687L26.6519 36.8171" stroke="#0454A7" stroke-width="1.5" stroke-miterlimit="22.926"/>
</g>
</svg>
