<svg width="48" height="48" viewBox="0 0 48 48" fill="none" xmlns="http://www.w3.org/2000/svg">
<path d="M3.78626 31.9392C3.64496 31.94 3.50529 31.9091 3.37747 31.8488C3.24965 31.7886 3.13691 31.7006 3.04751 31.5911C2.88674 31.395 2.81017 31.1431 2.83451 30.8906C2.85886 30.6382 2.98215 30.4056 3.17744 30.2438L35.7265 3.41383H33.4783C33.2246 3.41383 32.9812 3.31304 32.8018 3.13363C32.6224 2.95422 32.5216 2.71089 32.5216 2.45716C32.5216 2.20344 32.6224 1.9601 32.8018 1.78069C32.9812 1.60128 33.2246 1.50049 33.4783 1.50049H38.2272C38.4758 1.50061 38.7147 1.59748 38.8931 1.77058C39.0716 1.94368 39.1757 2.17944 39.1834 2.42796L39.3327 7.31252C39.3367 7.43819 39.3158 7.5634 39.2713 7.681C39.2268 7.7986 39.1596 7.90627 39.0734 7.99785C38.9873 8.08943 38.8839 8.16312 38.7693 8.21471C38.6546 8.2663 38.5309 8.29477 38.4052 8.29849C38.3957 8.3008 38.3858 8.30169 38.376 8.30111C38.1273 8.30043 37.8886 8.20296 37.7105 8.02935C37.5325 7.85574 37.429 7.61962 37.422 7.37102L37.3343 4.56733L4.39488 31.7214C4.22351 31.8625 4.00825 31.9395 3.78626 31.9392ZM43.255 44.5861H37.1481V14.0943H43.2556L43.255 44.5861ZM29.1278 20.1455H35.2347V44.5861H29.1278V20.1455ZM21.1075 26.8636H27.2149V44.5862H21.1081L21.1075 26.8636ZM13.0872 32.5905H19.1941V44.5862H13.0872V32.5905ZM5.06688 39.5398H11.1743V44.5864H5.06716L5.06688 39.5398ZM44.2118 12.1809H36.1915C35.9379 12.1809 35.6947 12.2816 35.5153 12.4609C35.336 12.6403 35.2353 12.8835 35.2353 13.1371V18.2344H28.1712C27.9177 18.2348 27.6747 18.3357 27.4955 18.5149C27.3162 18.6942 27.2154 18.9372 27.2149 19.1906V24.9494H20.1511C19.8977 24.9503 19.655 25.0513 19.4759 25.2305C19.2967 25.4096 19.1957 25.6523 19.1948 25.9057V30.6759H12.1306C11.8771 30.6763 11.6341 30.7771 11.4548 30.9564C11.2756 31.1356 11.1747 31.3786 11.1743 31.6321V37.6247H4.11044C3.85695 37.6251 3.61396 37.726 3.43471 37.9052C3.25546 38.0845 3.15459 38.3275 3.15419 38.581V45.5409C3.15459 45.7944 3.25546 46.0373 3.43471 46.2166C3.61396 46.3958 3.85695 46.4967 4.11044 46.4971H44.2118C44.4654 46.4971 44.7087 46.3964 44.888 46.217C45.0673 46.0377 45.1681 45.7945 45.1681 45.5409V13.1376C45.1681 12.884 45.0673 12.6407 44.888 12.4614C44.7087 12.2821 44.4654 12.1813 44.2118 12.1813V12.1809Z" fill="#0454A7"/>
</svg>
