<svg width="48" height="48" viewBox="0 0 48 48" fill="none" xmlns="http://www.w3.org/2000/svg">
<path d="M42.0352 0.75H18.3575C15.9552 0.75 14.0008 2.70441 14.0008 5.10666V10.843L11.6857 12.0432C11.2391 10.9237 10.4215 10.0071 9.39814 9.42759C10.5236 8.62406 11.2594 7.30838 11.2594 5.82328C11.2594 3.38213 9.27336 1.39613 6.8322 1.39613C4.39105 1.39613 2.40505 3.38213 2.40505 5.82328C2.40505 7.30809 3.14052 8.6235 4.26552 9.42703C2.6802 10.3253 1.60742 12.0268 1.60742 13.9752V25.1976C1.60742 26.1813 2.40777 26.9816 3.39148 26.9816H10.273C11.2568 26.9816 12.0572 26.1813 12.0572 25.1976V17.4605L14.0008 16.4528V17.3286C14.0008 19.7308 15.9552 21.6852 18.3575 21.6852H42.0351C44.4374 21.6852 46.3918 19.7308 46.3918 17.3286V5.10666C46.3918 2.70441 44.4374 0.75 42.0351 0.75H42.0352ZM3.90505 5.82328C3.90505 4.20928 5.2182 2.89613 6.8323 2.89613C8.44639 2.89613 9.75945 4.20928 9.75945 5.82328C9.75945 7.43728 8.4463 8.75044 6.8323 8.75044C5.2183 8.75044 3.90505 7.43728 3.90505 5.82328ZM10.273 25.4816H3.39158C3.23755 25.4816 3.10752 25.3515 3.10752 25.1976V13.9752C3.10752 11.9213 4.77842 10.2504 6.8323 10.2504C8.61186 10.2504 10.1499 11.5201 10.4893 13.2696L10.6803 14.2542L15.1069 11.9592C15.1075 11.9588 15.1083 11.9586 15.1089 11.9582L15.5005 11.7552C16.3419 11.3193 16.7808 12.1077 16.8281 12.199C16.9031 12.3436 17.2353 13.0864 16.412 13.5132L10.5573 16.5487L8.73233 17.4948C8.5017 17.6143 8.22111 17.6345 7.96217 17.5503C7.71177 17.4688 7.51302 17.3023 7.40248 17.0813C7.29373 16.8638 7.26195 16.6309 7.31052 16.4078C7.39864 16.0031 7.14205 15.6036 6.73742 15.5153C6.33289 15.4275 5.93314 15.6837 5.84492 16.0884C5.72445 16.6416 5.80105 17.2324 6.06092 17.752C6.35239 18.3352 6.86295 18.77 7.4983 18.9766C7.75358 19.0597 8.01889 19.1007 8.2828 19.1007C8.67889 19.1007 9.0718 19.0083 9.4227 18.8263L10.5573 18.2381V25.1976C10.5573 25.3516 10.427 25.4816 10.273 25.4816ZM44.8919 17.3285C44.8919 18.9037 43.6104 20.1851 42.0352 20.1851H18.3575C16.7823 20.1851 15.5008 18.9037 15.5008 17.3285V15.675L17.1023 14.8447C18.266 14.2414 18.6084 13.1506 18.4 12.1781L23.2113 6.55266C23.4804 6.23784 23.4436 5.76441 23.1287 5.49525C22.8141 5.226 22.3406 5.26294 22.0713 5.57775L17.6126 10.791C17.075 10.2914 16.32 10.0071 15.5009 10.1754V5.10666C15.5009 3.53147 16.7824 2.25 18.3575 2.25H42.0352C43.6104 2.25 44.8919 3.53147 44.8919 5.10666V17.3285ZM24.8259 5.06934C24.8259 4.65516 25.1617 4.31934 25.5759 4.31934H32.408C32.8222 4.31934 33.158 4.65516 33.158 5.06934C33.158 5.48353 32.8222 5.81934 32.408 5.81934H25.5759C25.1617 5.81934 24.8259 5.48353 24.8259 5.06934ZM39.5385 5.06925C39.5385 5.48344 39.2027 5.81925 38.7885 5.81925H35.8137C35.3995 5.81925 35.0637 5.48344 35.0637 5.06925C35.0637 4.65506 35.3995 4.31925 35.8137 4.31925H38.7885C39.2027 4.31925 39.5385 4.65506 39.5385 5.06925ZM24.4122 9.16819C24.4122 8.754 24.748 8.41819 25.1622 8.41819H38.7052C39.1194 8.41819 39.4552 8.754 39.4552 9.16819C39.4552 9.58238 39.1194 9.91819 38.7052 9.91819H25.1622C24.748 9.91819 24.4122 9.58238 24.4122 9.16819ZM23.3893 13.2671C23.3893 12.8529 23.7251 12.5171 24.1393 12.5171H32.83C33.2442 12.5171 33.58 12.8529 33.58 13.2671C33.58 13.6813 33.2442 14.0171 32.83 14.0171H24.1393C23.7251 14.0171 23.3893 13.6813 23.3893 13.2671ZM39.4552 13.267C39.4552 13.6812 39.1194 14.017 38.7052 14.017H35.9659C35.5517 14.017 35.2159 13.6812 35.2159 13.267C35.2159 12.8528 35.5517 12.517 35.9659 12.517H38.7052C39.1194 12.517 39.4552 12.8528 39.4552 13.267ZM39.5385 17.3661C39.5385 17.7803 39.2027 18.1161 38.7885 18.1161H28.2881C27.8739 18.1161 27.5381 17.7803 27.5381 17.3661C27.5381 16.9519 27.8739 16.6161 28.2881 16.6161H38.7885C39.2027 16.6161 39.5385 16.9519 39.5385 17.3661ZM25.7282 17.366C25.7282 17.7802 25.3924 18.116 24.9782 18.116H22.0868C21.6726 18.116 21.3368 17.7802 21.3368 17.366C21.3368 16.9518 21.6726 16.616 22.0868 16.616H24.9782C25.3924 16.616 25.7282 16.9518 25.7282 17.366ZM44.0674 41.1192H42.8967C42.212 38.6674 40.3972 36.7315 38.095 35.8384C39.2548 34.9646 40.0062 33.5765 40.0062 32.0158C40.0062 29.3781 37.8603 27.2321 35.2226 27.2321C32.585 27.2321 30.4389 29.3781 30.4389 32.0158C30.4389 33.5764 31.1903 34.9645 32.3501 35.8383C31.6127 36.1243 30.9255 36.5172 30.3092 37.0001C29.4096 35.8298 28.2246 34.9504 26.8805 34.4327C28.0355 33.5586 28.7835 32.1734 28.7835 30.6165C28.7835 27.9788 26.6375 25.8328 23.9998 25.8328C21.3621 25.8328 19.2162 27.9788 19.2162 30.6165C19.2162 32.1733 19.964 33.5585 21.119 34.4325C19.7733 34.9508 18.5871 35.8316 17.6871 37.0041C17.0707 36.5209 16.3834 36.1277 15.6457 35.8415C16.8049 34.9681 17.5558 33.5805 17.5558 32.0207C17.5558 29.3839 15.4106 27.2387 12.7738 27.2387C10.137 27.2387 7.99189 29.3839 7.99189 32.0207C7.99189 33.5805 8.74283 34.968 9.90186 35.8414C7.60095 36.7342 5.78727 38.6688 5.1027 41.1192H3.93195C2.6502 41.1192 1.60752 42.162 1.60752 43.4436V45.8744C1.60752 46.633 2.22477 47.2502 2.98339 47.2502H45.016C45.7746 47.2502 46.3919 46.633 46.3919 45.8744V43.4436C46.3919 42.1619 45.3492 41.1192 44.0675 41.1192H44.0674ZM31.9388 32.0158C31.9388 30.2052 33.4119 28.7321 35.2225 28.7321C37.0331 28.7321 38.5061 30.2052 38.5061 32.0158C38.5061 33.8264 37.0346 35.2979 35.2253 35.2994C35.2244 35.2994 35.2234 35.2994 35.2224 35.2994C35.2215 35.2994 35.2205 35.2994 35.2196 35.2994C33.4103 35.2978 31.9388 33.8255 31.9388 32.0158ZM35.2225 36.7995H35.2253C37.995 36.8007 40.4284 38.5703 41.3251 41.1193H29.1196C30.0164 38.5703 32.4499 36.8007 35.2195 36.7995H35.2224H35.2225ZM20.716 30.6166C20.716 28.806 22.189 27.3329 23.9996 27.3329C25.8102 27.3329 27.2833 28.8059 27.2833 30.6166C27.2833 32.4273 25.8125 33.8978 24.004 33.9002C24.0025 33.9002 24.001 33.9002 23.9995 33.9002C23.998 33.9002 23.9966 33.9002 23.9951 33.9002C22.1865 33.8978 20.7159 32.4257 20.7159 30.6166H20.716ZM23.9952 35.4002C23.9967 35.4002 23.9982 35.4003 23.9997 35.4003C24.0012 35.4003 24.0026 35.4002 24.0041 35.4002C26.0881 35.4016 27.996 36.3778 29.2127 38.0378C28.4495 38.9119 27.8725 39.9579 27.5482 41.1193H20.4448C20.1209 39.9599 19.5451 38.9154 18.7835 38.0424C19.9999 36.3796 21.9092 35.4017 23.9954 35.4003L23.9952 35.4002ZM9.4918 32.0207C9.4918 30.211 10.964 28.7387 12.7737 28.7387C14.5834 28.7387 16.0557 30.211 16.0557 32.0207C16.0557 33.8303 14.585 35.301 12.7766 35.3025C12.7757 35.3025 12.7746 35.3025 12.7737 35.3025C12.7728 35.3025 12.7718 35.3025 12.7709 35.3025C10.9626 35.3009 9.4918 33.8293 9.4918 32.0207ZM12.7708 36.8025H12.7737H12.7765C15.5444 36.8037 17.9764 38.572 18.873 41.1192H6.67423C7.57086 38.572 10.0029 36.8037 12.7708 36.8025ZM44.8919 45.7502H3.10733V43.4436C3.10733 42.989 3.47717 42.6192 3.93177 42.6192H5.69127C5.6922 42.6192 5.69314 42.6193 5.69408 42.6193C5.69511 42.6193 5.69614 42.6192 5.69717 42.6192H19.8461H19.8491H42.302C42.3031 42.6192 42.3041 42.6193 42.3051 42.6193C42.3061 42.6193 42.307 42.6192 42.308 42.6192H44.0674C44.522 42.6192 44.8918 42.9891 44.8918 43.4436V45.7502H44.8919Z" fill="#0454A7"/>
</svg>
