<svg width="48" height="48" viewBox="0 0 48 48" fill="none" xmlns="http://www.w3.org/2000/svg">
<path d="M3.78674 31.9392C3.64545 31.94 3.50578 31.9091 3.37796 31.8488C3.25014 31.7886 3.1374 31.7006 3.04799 31.5911C2.88723 31.395 2.81065 31.1431 2.835 30.8906C2.85935 30.6382 2.98264 30.4056 3.17793 30.2438L35.727 3.41383H33.4788C33.2251 3.41383 32.9817 3.31304 32.8023 3.13363C32.6229 2.95422 32.5221 2.71089 32.5221 2.45716C32.5221 2.20344 32.6229 1.9601 32.8023 1.78069C32.9817 1.60128 33.2251 1.50049 33.4788 1.50049H38.2277C38.4763 1.50061 38.7151 1.59748 38.8936 1.77058C39.0721 1.94368 39.1762 2.17944 39.1839 2.42796L39.3332 7.31252C39.3371 7.43819 39.3163 7.5634 39.2718 7.681C39.2273 7.7986 39.1601 7.90627 39.0739 7.99785C38.9878 8.08943 38.8844 8.16312 38.7698 8.21471C38.6551 8.2663 38.5314 8.29477 38.4057 8.29849C38.3961 8.3008 38.3863 8.30169 38.3765 8.30111C38.1278 8.30043 37.8891 8.20296 37.711 8.02935C37.533 7.85574 37.4295 7.61962 37.4225 7.37102L37.3348 4.56733L4.39537 31.7214C4.22399 31.8625 4.00874 31.9395 3.78674 31.9392ZM43.2555 44.5861H37.1486V14.0943H43.2561L43.2555 44.5861ZM29.1283 20.1455H35.2352V44.5861H29.1283V20.1455ZM21.108 26.8636H27.2154V44.5862H21.1086L21.108 26.8636ZM13.0877 32.5905H19.1946V44.5862H13.0877V32.5905ZM5.06737 39.5398H11.1748V44.5864H5.06765L5.06737 39.5398ZM44.2123 12.1809H36.192C35.9384 12.1809 35.6952 12.2816 35.5158 12.4609C35.3365 12.6403 35.2357 12.8835 35.2357 13.1371V18.2344H28.1717C27.9182 18.2348 27.6752 18.3357 27.496 18.5149C27.3167 18.6942 27.2159 18.9372 27.2154 19.1906V24.9494H20.1516C19.8982 24.9503 19.6555 25.0513 19.4763 25.2305C19.2972 25.4096 19.1962 25.6523 19.1953 25.9057V30.6759H12.1311C11.8776 30.6763 11.6346 30.7771 11.4553 30.9564C11.2761 31.1356 11.1752 31.3786 11.1748 31.6321V37.6247H4.11093C3.85744 37.6251 3.61444 37.726 3.4352 37.9052C3.25595 38.0845 3.15508 38.3275 3.15468 38.581V45.5409C3.15508 45.7944 3.25595 46.0373 3.4352 46.2166C3.61444 46.3958 3.85744 46.4967 4.11093 46.4971H44.2123C44.4659 46.4971 44.7091 46.3964 44.8885 46.217C45.0678 46.0377 45.1686 45.7945 45.1686 45.5409V13.1376C45.1686 12.884 45.0678 12.6407 44.8885 12.4614C44.7091 12.2821 44.4659 12.1813 44.2123 12.1813V12.1809Z" fill="#0454A7"/>
</svg>
