<svg width="48" height="48" viewBox="0 0 48 48" fill="none" xmlns="http://www.w3.org/2000/svg">
<g clip-path="url(#clip0_126_366)">
<path d="M23.9723 0.00219727C23.1119 0.00219727 22.2521 0.0484506 21.3966 0.140657C20.6125 0.220749 19.838 0.3521 19.0739 0.511484C18.926 0.54242 18.7781 0.575057 18.6302 0.609197C14.1283 1.63418 10.0176 3.93593 6.79096 7.23843C6.49091 7.54599 6.19717 7.86265 5.90994 8.18833C-2.8061 18.1947 -1.76009 33.3721 8.24634 42.0882C17.8262 50.4327 32.2463 49.8775 41.1562 40.8211C41.4568 40.5136 41.7504 40.1969 42.0372 39.8712C45.8837 35.4908 48.0034 29.8594 48 24.0298C48 10.7596 37.2424 0.00209715 23.9723 0.00219727ZM7.85859 8.43982C7.98513 8.30847 8.11649 8.18272 8.24543 8.05538C8.39441 7.90881 8.54258 7.76144 8.69475 7.61967C8.82851 7.49473 8.96626 7.37459 9.10322 7.25285C9.2578 7.11589 9.41158 6.97893 9.57016 6.84678C9.70952 6.72905 9.85289 6.61612 9.99545 6.50239C10.1556 6.37424 10.3158 6.24609 10.4808 6.12275C10.6266 6.01302 10.7747 5.9065 10.9237 5.80238C11.0895 5.68384 11.2561 5.5621 11.4251 5.45158C11.5765 5.34906 11.7294 5.24974 11.8832 5.15123C12.0546 5.0415 12.2268 4.93338 12.4006 4.83086C12.5571 4.73745 12.7146 4.64555 12.8732 4.55534C13.0505 4.45443 13.2285 4.35591 13.4074 4.2598C13.5676 4.1744 13.7277 4.09081 13.8879 4.00911C14.0705 3.91701 14.2548 3.82811 14.4398 3.7408C14.6 3.66472 14.7665 3.58863 14.9315 3.51655C15.1198 3.43645 15.3104 3.35636 15.501 3.27627C15.6668 3.20819 15.8318 3.14171 15.9992 3.07764C16.193 3.00396 16.3892 2.93508 16.5854 2.8662C16.7528 2.80773 16.9202 2.74926 17.09 2.694C17.2895 2.62992 17.4905 2.57066 17.6923 2.51219C17.8613 2.46333 18.0287 2.41287 18.1985 2.36722C18.2634 2.3504 18.3282 2.33679 18.3931 2.31997C16.0224 4.62192 14.2631 7.47881 13.2744 10.6319C11.3734 10.1306 9.53312 9.42235 7.78651 8.51991C7.81294 8.49188 7.83536 8.46385 7.85859 8.43982ZM6.70686 9.7293C8.63078 10.7717 10.6709 11.5836 12.7851 12.1481C11.7487 15.7518 11.2046 19.4792 11.168 23.2289H1.56494C1.73944 18.2843 3.54762 13.537 6.70686 9.7293ZM6.70686 38.3303C3.54782 34.5225 1.73964 29.7752 1.56494 24.8307H11.168C11.2046 28.5803 11.7486 32.3077 12.7851 35.9115C10.671 36.4761 8.63088 37.288 6.70686 38.3303ZM18.1937 45.6955C18.0319 45.6547 17.8645 45.6018 17.6979 45.553C17.4953 45.4937 17.2919 45.4344 17.0916 45.3696C16.9226 45.3151 16.756 45.2566 16.5894 45.1982C16.3924 45.1301 16.1954 45.0604 16.0008 44.9859C15.8342 44.9226 15.67 44.8562 15.505 44.7889C15.3136 44.7088 15.1222 44.6287 14.9323 44.5486C14.7689 44.4765 14.6064 44.4024 14.4446 44.326C14.258 44.2379 14.0721 44.1482 13.8839 44.0553C13.7237 43.9752 13.5636 43.8951 13.4034 43.8078C13.2224 43.7109 13.043 43.6115 12.8636 43.509C12.7034 43.4201 12.5512 43.3288 12.3966 43.2359C12.2204 43.1302 12.0474 43.0213 11.8744 42.9099C11.7222 42.813 11.5701 42.7145 11.4203 42.6136C11.2497 42.4983 11.0807 42.3781 10.9133 42.258C10.7667 42.1531 10.6202 42.0481 10.476 41.9376C10.3102 41.8127 10.1476 41.6837 9.98584 41.554C9.84408 41.441 9.70311 41.3289 9.56455 41.2128C9.40437 41.0798 9.24979 40.9413 9.09441 40.8035C8.95825 40.6826 8.8213 40.5632 8.68834 40.4399C8.53537 40.2973 8.3872 40.1492 8.23823 40.0026C8.10928 39.8752 7.97793 39.7495 7.85138 39.6189C7.82815 39.5941 7.80573 39.5685 7.7825 39.5445C9.52901 38.6416 11.3693 37.9331 13.2704 37.4316C14.2593 40.5847 16.0185 43.4414 18.3891 45.7436C18.3242 45.7268 18.2586 45.7132 18.1937 45.6955ZM23.1714 46.3923C19.7443 45.9054 16.74 42.3285 14.8498 37.0464C17.5826 36.4345 20.3713 36.1062 23.1714 36.0668V46.3923ZM23.1714 34.465C20.201 34.504 17.2431 34.8569 14.3469 35.5174C13.3412 32.0427 12.8107 28.4478 12.7698 24.8307H23.1714V34.465ZM23.1714 23.2289H12.7698C12.8106 19.6118 13.3411 16.0168 14.3469 12.5421C17.2431 13.2026 20.2011 13.5554 23.1714 13.5946V23.2289ZM23.1714 11.9927C20.3712 11.9537 17.5826 11.6254 14.8498 11.0132C16.74 5.7311 19.7443 2.15418 23.1714 1.66722V11.9927ZM41.2378 9.7293C44.3969 13.5371 46.2051 18.2844 46.3798 23.2289H36.7767C36.7401 19.4792 36.1961 15.7518 35.1596 12.1481C37.2737 11.5833 39.3138 10.7715 41.2378 9.7293ZM29.7446 2.36322C29.9128 2.40487 30.0802 2.45773 30.2468 2.50658C30.4494 2.56585 30.6528 2.62512 30.8531 2.68999C31.0221 2.74446 31.1887 2.80292 31.3553 2.86139C31.5523 2.92947 31.7493 2.99915 31.9439 3.07364C32.1105 3.13691 32.2747 3.20339 32.4397 3.27066C32.6311 3.35076 32.8226 3.43085 33.0124 3.51094C33.1758 3.58302 33.3383 3.65721 33.5001 3.7336C33.6867 3.8217 33.8726 3.9114 34.0608 4.00431C34.221 4.0844 34.3811 4.16449 34.5413 4.25179C34.7223 4.34871 34.9017 4.44802 35.0812 4.55054C35.2413 4.63944 35.3935 4.73075 35.5481 4.82365C35.7243 4.92937 35.8973 5.0383 36.0703 5.14963C36.2225 5.24654 36.3746 5.34505 36.5244 5.44597C36.695 5.5613 36.8632 5.68064 37.0306 5.80078C37.178 5.9057 37.3245 6.01142 37.4695 6.12115C37.6345 6.24529 37.7963 6.37424 37.9589 6.50399C38.0998 6.61612 38.2416 6.72825 38.3802 6.84518C38.5403 6.97813 38.6949 7.11669 38.8503 7.25445C38.9865 7.37539 39.1234 7.49473 39.2564 7.61807C39.4093 7.76064 39.5575 7.90881 39.7065 8.05538C39.8354 8.18272 39.9668 8.30847 40.0933 8.43902C40.1166 8.46385 40.139 8.48948 40.1622 8.5135C38.4157 9.41634 36.5754 10.1249 34.6743 10.6263C33.6835 7.4729 31.922 4.61631 29.5492 2.31516C29.6141 2.33198 29.6797 2.3456 29.7446 2.36322ZM24.7733 1.66722C28.2004 2.15418 31.2047 5.7311 33.0949 11.0132C30.3621 11.6251 27.5734 11.9534 24.7733 11.9927V1.66722ZM24.7733 13.5946C27.7437 13.5555 30.7016 13.2027 33.5978 12.5421C34.6035 16.0168 35.134 19.6118 35.1749 23.2289H24.7733V13.5946ZM24.7733 24.8307H35.1749C35.1341 28.4478 34.6036 32.0427 33.5978 35.5174C30.7016 34.857 27.7437 34.5041 24.7733 34.465V24.8307ZM24.7733 46.3923V36.0668C27.5735 36.1059 30.3621 36.4342 33.0949 37.0464C31.2047 42.3285 28.2004 45.9054 24.7733 46.3923ZM40.0861 39.6197C39.9596 39.7503 39.829 39.876 39.7001 40.0034C39.5511 40.15 39.4021 40.2981 39.2492 40.4407C39.1162 40.5648 38.9792 40.681 38.8431 40.8051C38.6877 40.9429 38.5331 41.0806 38.3745 41.2136C38.2344 41.3305 38.0918 41.4434 37.9493 41.5572C37.7891 41.6853 37.6289 41.8135 37.4639 41.9368C37.3181 42.0465 37.17 42.1531 37.021 42.2572C36.8552 42.3757 36.6886 42.4975 36.5196 42.608C36.3682 42.7105 36.2153 42.8098 36.0615 42.9075C35.8901 43.0181 35.7174 43.1249 35.5433 43.2279C35.3831 43.3216 35.2301 43.4129 35.0723 43.5034C34.895 43.6043 34.7167 43.7028 34.5373 43.799C34.3771 43.8844 34.217 43.968 34.0568 44.0496C33.8742 44.1418 33.6899 44.2307 33.5049 44.318C33.3447 44.394 33.1782 44.4701 33.0132 44.5422C32.825 44.6223 32.6343 44.7024 32.4437 44.7825C32.2779 44.8498 32.1129 44.917 31.9463 44.9803C31.7509 45.0548 31.5547 45.1245 31.3577 45.1926C31.1911 45.251 31.0245 45.3095 30.8555 45.364C30.6553 45.4288 30.455 45.4881 30.2508 45.5466C30.0834 45.5962 29.9152 45.6459 29.7462 45.6915C29.6813 45.7084 29.6165 45.722 29.5516 45.7388C31.9223 43.4368 33.6816 40.5799 34.6703 37.4268C36.5713 37.9282 38.4116 38.6364 40.1582 39.5388C40.1318 39.5677 40.1093 39.5957 40.0861 39.6197ZM41.2378 38.3303C39.3139 37.2879 37.2738 36.4759 35.1596 35.9115C36.196 32.3077 36.7401 28.5803 36.7767 24.8307H46.3798C46.2054 29.7752 44.3971 34.5226 41.2378 38.3303Z" fill="#0454A7"/>
</g>
<defs>
<clipPath id="clip0_126_366">
<rect width="48" height="48" fill="white"/>
</clipPath>
</defs>
</svg>
