<svg width="48" height="48" viewBox="0 0 48 48" fill="none" xmlns="http://www.w3.org/2000/svg">
<path d="M23.927 23.6305C27.0699 21.8316 29.2174 18.4821 29.2174 14.6086C29.2174 8.8549 24.5363 4.17383 18.7826 4.17383C13.0289 4.17383 8.34779 8.8549 8.34779 14.6086C8.34779 18.4821 10.4953 21.8316 13.6382 23.6305C5.77672 25.6946 0 32.3416 0 40.2198V42.7825C0 43.3585 0.467511 43.826 1.04351 43.826C1.61951 43.826 2.08702 43.3585 2.08702 42.7825V40.2198C2.08692 31.8532 9.57707 25.0434 18.7826 25.0434C27.9881 25.0434 35.4783 31.8532 35.4783 40.2198V42.7825C35.4783 43.3585 35.9458 43.826 36.5218 43.826C37.0978 43.826 37.5653 43.3585 37.5653 42.7825V40.2198C37.5652 32.3416 31.7885 25.6925 23.927 23.6305ZM10.4348 14.6086C10.4348 10.0048 14.1788 6.26085 18.7826 6.26085C23.3864 6.26085 27.1304 10.0048 27.1304 14.6086C27.1304 19.2124 23.3864 22.9564 18.7826 22.9564C14.1788 22.9564 10.4348 19.2125 10.4348 14.6086Z" fill="#0454A7"/>
<path d="M37.9782 23.6578C40.2405 22.1614 41.739 19.6028 41.739 16.6957C41.739 12.0919 37.995 8.3479 33.3912 8.3479C32.8152 8.3479 32.3477 8.81541 32.3477 9.39141C32.3477 9.96741 32.8152 10.4349 33.3912 10.4349C36.843 10.4349 39.652 13.244 39.652 16.6958C39.652 20.1476 36.843 22.9567 33.3912 22.9567C32.8152 22.9567 32.3477 23.4242 32.3477 24.0002C32.3477 24.5762 32.8151 25.0435 33.3911 25.0435C40.2968 25.0435 45.9128 30.2337 45.9128 36.6156V38.6086C45.9128 39.1846 46.3803 39.6521 46.9563 39.6521C47.5323 39.6521 47.9998 39.1846 47.9998 38.6086V36.6156C47.9998 30.5843 43.7925 25.4609 37.9782 23.6578Z" fill="#0454A7"/>
</svg>
