<svg width="48" height="48" viewBox="0 0 48 48" fill="none" xmlns="http://www.w3.org/2000/svg">
<path d="M42.1764 9.71868L24.1359 0.105768C23.8682 -0.0370723 23.5475 -0.0350677 23.2818 0.11078L5.74053 9.72369C5.45284 9.88157 5.27441 10.1833 5.27441 10.5116V23.0685C5.28494 33.3906 11.4005 42.7289 20.8581 46.8642L23.2929 47.9252C23.5204 48.0245 23.7795 48.025 24.0076 47.9262L26.7511 46.7414C36.3841 42.6958 42.651 33.2673 42.652 22.8194V10.5116C42.652 10.1798 42.4691 9.87455 42.1764 9.71868ZM40.8557 22.8194C40.8537 32.5471 35.0173 41.3245 26.0479 45.089L26.0419 45.092L23.6527 46.1234L21.5768 45.2178C12.7733 41.3686 7.08022 32.6769 7.07019 23.0685V11.0433L23.7194 1.91859L40.8557 11.0499V22.8194Z" fill="#0454A7"/>
<path d="M17.0933 22.486C16.771 22.1086 16.2042 22.064 15.8268 22.3863C15.4494 22.708 15.4047 23.2754 15.727 23.6523L20.4713 29.2081C20.7881 29.5789 21.3429 29.6296 21.7208 29.3218L32.7702 20.3324C33.1551 20.0196 33.2133 19.4538 32.9 19.0688C32.5873 18.6844 32.0214 18.6258 31.6365 18.939L21.2677 27.3742L17.0933 22.486Z" fill="#0454A7"/>
</svg>
