<svg width="48" height="48" viewBox="0 0 48 48" fill="none" xmlns="http://www.w3.org/2000/svg">
<g clip-path="url(#clip0_126_843)">
<path d="M24 48C10.7625 48 0 37.23 0 24C0 18.8475 1.605 13.9425 4.6425 9.81002C4.89 9.48002 5.355 9.40502 5.6925 9.65252C6.0225 9.90002 6.0975 10.365 5.85 10.7025C3 14.58 1.4925 19.1775 1.4925 24.0075C1.4925 36.4125 11.5875 46.5075 23.9925 46.5075C36.3975 46.5075 46.4925 36.4125 46.4925 24.0075C46.4925 18.96 44.8575 14.19 41.775 10.215C41.52 9.88502 41.58 9.42002 41.91 9.16502C42.24 8.91002 42.705 8.97002 42.96 9.30002C46.2525 13.5375 47.9925 18.63 47.9925 24.0075C47.9925 37.2375 37.23 48.0075 23.9925 48.0075L24 48Z" fill="#0454A7"/>
<path d="M13.4999 3.9975C13.2299 3.9975 12.9599 3.8475 12.8324 3.585C12.6449 3.2175 12.7949 2.7675 13.1624 2.58C16.5374 0.87 20.1899 0 23.9999 0C27.8099 0 31.4624 0.87 34.8374 2.58C35.2049 2.7675 35.3549 3.2175 35.1674 3.585C34.9799 3.9525 34.5299 4.1025 34.1624 3.915C30.9974 2.31 27.5774 1.4925 23.9999 1.4925C20.4224 1.4925 17.0024 2.3025 13.8374 3.915C13.7324 3.9675 13.6124 3.9975 13.4999 3.9975Z" fill="#0454A7"/>
<path d="M12.5025 20.25C12.345 20.25 12.1875 20.1975 12.0525 20.1L10.35 18.825C9.975 18.54 9.75 18.0975 9.75 17.625V15C9.75 14.175 10.425 13.5 11.25 13.5H14.01L18.75 10.1175V9.54751L17.5275 9.14251C16.9125 8.94001 16.5 8.37001 16.5 7.71751V4.16251L15.3375 3.38251C14.9925 3.15001 14.9025 2.68501 15.1275 2.34001C15.36 1.99501 15.825 1.90501 16.17 2.13001L17.3325 2.91001C17.7525 3.18751 18 3.65251 18 4.15501V7.71001L19.2225 8.11501C19.8375 8.31751 20.25 8.88751 20.25 9.54001V10.11C20.25 10.5975 20.0175 11.0475 19.62 11.3325L14.88 14.715C14.625 14.895 14.325 14.9925 14.01 14.9925H11.25V17.6175L12.9525 18.8925C13.2825 19.14 13.35 19.6125 13.1025 19.9425C12.9525 20.1375 12.7275 20.2425 12.5025 20.2425V20.25Z" fill="#0454A7"/>
<path d="M16.7399 43.4999H15.7499C14.9249 43.4999 14.2499 42.8249 14.2499 41.9999V39.1799L12.9074 36.4949C12.8024 36.2849 12.7499 36.0524 12.7499 35.8274V31.2149L7.58242 28.6274C7.07242 28.3724 6.74992 27.8549 6.74992 27.2849V24.4649C6.74992 23.8949 7.06492 23.3774 7.58242 23.1224L8.24992 22.7849V22.1099L5.06242 19.5599C4.70242 19.2749 4.49992 18.8474 4.49992 18.3899V15.3074L3.21742 14.0249C2.92492 13.7324 2.92492 13.2599 3.21742 12.9674C3.50992 12.6749 3.98242 12.6749 4.27492 12.9674L5.55742 14.2499C5.83492 14.5274 5.99992 14.9174 5.99992 15.3074V18.3899L9.18742 20.9399C9.54742 21.2249 9.74992 21.6524 9.74992 22.1099V22.7849C9.74992 23.3549 9.43492 23.8724 8.91742 24.1274L8.24992 24.4649V27.2849L13.4174 29.8724C13.9274 30.1274 14.2499 30.6449 14.2499 31.2149V35.8274L15.5924 38.5124C15.6974 38.7224 15.7499 38.9549 15.7499 39.1799V41.9999H16.7399L18.0149 38.8124C18.0599 38.6924 18.1274 38.5724 18.2099 38.4674L20.2649 35.7224L20.3849 33.8699C20.4149 33.4649 20.6099 33.0749 20.9249 32.8124L24.7499 29.6324V26.9849H21.7499C20.9249 26.9849 20.2499 26.3099 20.2499 25.4849C20.2499 25.0724 20.5874 24.7349 20.9999 24.7349C21.4124 24.7349 21.7499 25.0724 21.7499 25.4849H24.7499C25.5749 25.4849 26.2499 26.1599 26.2499 26.9849V29.6324C26.2499 30.0824 26.0549 30.5024 25.7099 30.7874L21.8849 33.9599L21.7649 35.8124C21.7424 36.1049 21.6449 36.3824 21.4649 36.6149L19.4099 39.3599L18.1349 42.5474C17.9024 43.1174 17.3624 43.4924 16.7399 43.4924V43.4999Z" fill="#0454A7"/>
<path d="M41.5498 38.1L38.8498 36.075C38.4748 35.79 38.2498 35.3475 38.2498 34.875V31.0125L35.5798 27.675C35.3698 27.4125 35.2498 27.075 35.2498 26.7375V23.5575C35.2498 23.16 35.4073 22.7775 35.6923 22.5L36.8098 21.3825C37.0198 21.1725 37.2823 21.03 37.5748 20.97L40.4998 20.385V19.8075C40.4998 19.41 40.6573 19.0275 40.9423 18.75L41.9998 17.6925V16.5H40.6798L39.6748 17.0025C39.2548 17.2125 38.7523 17.2125 38.3323 17.0025L35.8273 15.75H30.7573C29.9323 15.75 29.2573 15.075 29.2573 14.25V13.125C29.2573 12.6525 29.4823 12.2025 29.8573 11.925L31.4998 10.7025V9.30751C31.4998 9.02251 31.5823 8.73751 31.7398 8.49751L32.8948 6.70501L32.4748 5.86501C32.2948 5.50501 32.2648 5.10001 32.3923 4.71751L33.0448 2.76001L34.4698 3.23251L33.8173 5.19001L34.2373 6.03001C34.4698 6.50251 34.4398 7.06501 34.1548 7.51501L32.9998 9.30751V10.7025C32.9998 11.175 32.7748 11.625 32.3998 11.9025L30.7573 13.125V14.25H35.8273C36.0598 14.25 36.2923 14.3025 36.4948 14.4075L38.9998 15.66L40.0048 15.1575C40.2148 15.0525 40.4473 15 40.6723 15H41.9923C42.8173 15 43.4923 15.675 43.4923 16.5V17.6925C43.4923 18.09 43.3348 18.4725 43.0498 18.75L41.9923 19.8075V20.385C41.9923 21.0975 41.4823 21.7125 40.7848 21.855L37.8598 22.44L36.7423 23.5575V26.7375L39.4123 30.075C39.6223 30.3375 39.7423 30.675 39.7423 31.0125V34.875L42.4423 36.9L41.5423 38.1H41.5498Z" fill="#0454A7"/>
<path d="M8.25 9C6.18 9 4.5 7.32 4.5 5.25C4.5 3.18 6.18 1.5 8.25 1.5C10.32 1.5 12 3.18 12 5.25C12 7.32 10.32 9 8.25 9ZM8.25 3C7.0125 3 6 4.0125 6 5.25C6 6.4875 7.0125 7.5 8.25 7.5C9.4875 7.5 10.5 6.4875 10.5 5.25C10.5 4.0125 9.4875 3 8.25 3Z" fill="#0454A7"/>
<path d="M8.25 15C7.8375 15 7.5 14.6625 7.5 14.25V8.25C7.5 7.8375 7.8375 7.5 8.25 7.5C8.6625 7.5 9 7.8375 9 8.25V14.25C9 14.6625 8.6625 15 8.25 15Z" fill="#0454A7"/>
<path d="M39.75 7.5C37.68 7.5 36 5.82 36 3.75C36 1.68 37.68 0 39.75 0C41.82 0 43.5 1.68 43.5 3.75C43.5 5.82 41.82 7.5 39.75 7.5ZM39.75 1.5C38.5125 1.5 37.5 2.5125 37.5 3.75C37.5 4.9875 38.5125 6 39.75 6C40.9875 6 42 4.9875 42 3.75C42 2.5125 40.9875 1.5 39.75 1.5Z" fill="#0454A7"/>
<path d="M39.75 13.5C39.3375 13.5 39 13.1625 39 12.75V6.75C39 6.3375 39.3375 6 39.75 6C40.1625 6 40.5 6.3375 40.5 6.75V12.75C40.5 13.1625 40.1625 13.5 39.75 13.5Z" fill="#0454A7"/>
<path d="M18 24.75C15.93 24.75 14.25 23.07 14.25 21C14.25 18.93 15.93 17.25 18 17.25C20.07 17.25 21.75 18.93 21.75 21C21.75 23.07 20.07 24.75 18 24.75ZM18 18.75C16.7625 18.75 15.75 19.7625 15.75 21C15.75 22.2375 16.7625 23.25 18 23.25C19.2375 23.25 20.25 22.2375 20.25 21C20.25 19.7625 19.2375 18.75 18 18.75Z" fill="#0454A7"/>
<path d="M18 30.75C17.5875 30.75 17.25 30.4125 17.25 30V24C17.25 23.5875 17.5875 23.25 18 23.25C18.4125 23.25 18.75 23.5875 18.75 24V30C18.75 30.4125 18.4125 30.75 18 30.75Z" fill="#0454A7"/>
</g>
<defs>
<clipPath id="clip0_126_843">
<rect width="48" height="48" fill="white"/>
</clipPath>
</defs>
</svg>
