<svg width="48" height="48" viewBox="0 0 48 48" fill="none" xmlns="http://www.w3.org/2000/svg">
<g clip-path="url(#clip0_126_644)">
<path d="M41.902 9.71868L23.8615 0.105768C23.5938 -0.0370723 23.2731 -0.0350677 23.0074 0.11078L5.46611 9.72369C5.17843 9.88157 5 10.1833 5 10.5116V23.0685C5.01053 33.3906 11.1261 42.7289 20.5836 46.8642L23.0184 47.9252C23.246 48.0245 23.5051 48.025 23.7331 47.9262L26.4767 46.7414C36.1096 42.6958 42.3766 33.2673 42.3776 22.8194V10.5116C42.3776 10.1798 42.1947 9.87455 41.902 9.71868ZM40.5813 22.8194C40.5793 32.5471 34.7429 41.3245 25.7735 45.089L25.7675 45.092L23.3783 46.1234L21.3024 45.2178C12.4989 41.3686 6.8058 32.6769 6.79578 23.0685V11.0433L23.445 1.91859L40.5813 11.0499V22.8194Z" fill="#0454A7"/>
<path d="M16.8716 22.4861C16.5535 22.1087 15.994 22.0641 15.6215 22.3864C15.249 22.7082 15.205 23.2755 15.523 23.6524L20.2059 29.2082C20.5185 29.5791 21.0661 29.6297 21.4391 29.3219L32.3453 20.3325C32.7252 20.0197 32.7826 19.4539 32.4734 19.069C32.1647 18.6845 31.6062 18.6259 31.2263 18.9391L20.9919 27.3743L16.8716 22.4861Z" fill="#0454A7"/>
</g>
<defs>
<clipPath id="clip0_126_644">
<rect width="47.3776" height="48" fill="white"/>
</clipPath>
</defs>
</svg>
