<svg width="48" height="48" viewBox="0 0 48 48" fill="none" xmlns="http://www.w3.org/2000/svg">
<g clip-path="url(#clip0_126_784)">
<path d="M25.7624 34.9349H22.2449C21.8399 34.9349 21.5174 34.6124 21.5174 34.2074V32.6999C20.8574 32.5124 20.2199 32.2499 19.6124 31.9124L18.5399 32.9849C18.2549 33.2699 17.7974 33.2699 17.5124 32.9849L15.0224 30.4949C14.7374 30.2099 14.7374 29.7524 15.0224 29.4674L16.0949 28.3949C15.7574 27.7874 15.4949 27.1574 15.3074 26.4899H13.7924C13.3874 26.4899 13.0649 26.1674 13.0649 25.7624V22.2449C13.0649 21.8399 13.3874 21.5174 13.7924 21.5174H15.3074C15.4949 20.8574 15.7574 20.2199 16.0949 19.6124L15.0224 18.5399C14.7374 18.2549 14.7374 17.7974 15.0224 17.5124L17.5124 15.0224C17.7974 14.7374 18.2549 14.7374 18.5399 15.0224L19.6124 16.0949C20.2199 15.7574 20.8499 15.4949 21.5174 15.3074V13.7924C21.5174 13.3874 21.8399 13.0649 22.2449 13.0649H25.7624C26.1674 13.0649 26.4899 13.3874 26.4899 13.7924V15.3074C27.1499 15.4949 27.7874 15.7574 28.3949 16.0949L29.4674 15.0224C29.7524 14.7374 30.2099 14.7374 30.4949 15.0224L32.9849 17.5124C33.2699 17.7974 33.2699 18.2549 32.9849 18.5399L31.9124 19.6124C32.2499 20.2124 32.5124 20.8499 32.6999 21.5174H34.2149C34.6199 21.5174 34.9424 21.8399 34.9424 22.2449V25.7624C34.9424 26.1674 34.6199 26.4899 34.2149 26.4899H32.6999C32.5124 27.1499 32.2499 27.7874 31.9124 28.3949L32.9849 29.4674C33.2699 29.7524 33.2699 30.2099 32.9849 30.4949L30.4949 32.9849C30.2099 33.2699 29.7524 33.2699 29.4674 32.9849L28.3949 31.9124C27.7949 32.2499 27.1574 32.5124 26.4899 32.6999V34.2149C26.4899 34.6124 26.1599 34.9349 25.7624 34.9349ZM22.9649 33.4799H25.0274V32.1299C25.0274 31.7849 25.2674 31.4924 25.6049 31.4174C26.4974 31.2224 27.3374 30.8774 28.1099 30.3824C28.3949 30.1949 28.7774 30.2399 29.0174 30.4799L29.9774 31.4399L31.4399 29.9774L30.4799 29.0174C30.2399 28.7774 30.1949 28.3949 30.3824 28.1099C30.8774 27.3374 31.2299 26.4974 31.4174 25.6049C31.4924 25.2674 31.7849 25.0274 32.1299 25.0274H33.4799V22.9649H32.1299C31.7849 22.9649 31.4924 22.7249 31.4174 22.3874C31.2224 21.4949 30.8774 20.6549 30.3824 19.8824C30.1949 19.5974 30.2399 19.2149 30.4799 18.9749L31.4399 18.0149L29.9774 16.5524L29.0174 17.5124C28.7774 17.7524 28.3949 17.7974 28.1099 17.6099C27.3374 17.1149 26.4974 16.7624 25.6049 16.5749C25.2674 16.4999 25.0274 16.2074 25.0274 15.8624V14.5124H22.9649V15.8624C22.9649 16.2074 22.7249 16.4999 22.3874 16.5749C21.4949 16.7699 20.6549 17.1149 19.8824 17.6099C19.5974 17.7974 19.2149 17.7524 18.9749 17.5124L18.0149 16.5524L16.5524 18.0149L17.5124 18.9749C17.7524 19.2149 17.7974 19.5974 17.6099 19.8824C17.1149 20.6549 16.7624 21.4949 16.5749 22.3874C16.4999 22.7249 16.2074 22.9649 15.8624 22.9649H14.5124V25.0274H15.8624C16.2074 25.0274 16.4999 25.2674 16.5749 25.6049C16.7699 26.4974 17.1149 27.3374 17.6099 28.1099C17.7974 28.3949 17.7524 28.7774 17.5124 29.0174L16.5524 29.9774L18.0149 31.4399L18.9749 30.4799C19.2149 30.2399 19.5974 30.1949 19.8824 30.3824C20.6549 30.8774 21.4949 31.2299 22.3874 31.4174C22.7249 31.4924 22.9649 31.7849 22.9649 32.1299V33.4799Z" fill="#0454A7"/>
<path d="M24.0001 28.8151C21.3451 28.8151 19.1851 26.6551 19.1851 24.0001C19.1851 21.3451 21.3451 19.1851 24.0001 19.1851C26.6551 19.1851 28.8151 21.3451 28.8151 24.0001C28.8151 26.6551 26.6551 28.8151 24.0001 28.8151ZM24.0001 20.6401C22.1476 20.6401 20.6401 22.1476 20.6401 24.0001C20.6401 25.8526 22.1476 27.3601 24.0001 27.3601C25.8526 27.3601 27.3601 25.8526 27.3601 24.0001C27.3601 22.1476 25.8526 20.6401 24.0001 20.6401Z" fill="#0454A7"/>
<path d="M37.0726 39.2551H10.9276C9.72762 39.2551 8.74512 38.2801 8.74512 37.0726V10.9276C8.74512 9.72762 9.72012 8.74512 10.9276 8.74512H37.0651C38.2651 8.74512 39.2476 9.72012 39.2476 10.9276V37.0651C39.2551 38.2726 38.2726 39.2551 37.0726 39.2551ZM10.9276 10.2001C10.5301 10.2001 10.2001 10.5301 10.2001 10.9276V37.0651C10.2001 37.4626 10.5301 37.7926 10.9276 37.7926H37.0651C37.4626 37.7926 37.7926 37.4626 37.7926 37.0651V10.9276C37.7926 10.5301 37.4626 10.2001 37.0651 10.2001H10.9276Z" fill="#0454A7"/>
<path d="M9.47242 20.6849H2.45992C2.05492 20.6849 1.73242 20.3624 1.73242 19.9574V10.1699C1.73242 9.76488 2.05492 9.44238 2.45992 9.44238C2.86492 9.44238 3.18742 9.76488 3.18742 10.1699V19.2299H9.47242C9.87742 19.2299 10.1999 19.5524 10.1999 19.9574C10.1999 20.3624 9.87742 20.6849 9.47242 20.6849Z" fill="#0454A7"/>
<path d="M2.46 10.8824C1.1025 10.8824 0 9.7799 0 8.4224C0 7.0649 1.1025 5.9624 2.46 5.9624C3.8175 5.9624 4.92 7.0649 4.92 8.4224C4.92 9.7799 3.8175 10.8824 2.46 10.8824ZM2.46 7.4174C1.905 7.4174 1.455 7.8674 1.455 8.4224C1.455 8.9774 1.905 9.4274 2.46 9.4274C3.015 9.4274 3.465 8.9774 3.465 8.4224C3.465 7.8674 3.015 7.4174 2.46 7.4174Z" fill="#0454A7"/>
<path d="M45.5398 20.6849H38.5273C38.1223 20.6849 37.7998 20.3624 37.7998 19.9574C37.7998 19.5524 38.1223 19.2299 38.5273 19.2299H44.8123V10.1699C44.8123 9.76488 45.1348 9.44238 45.5398 9.44238C45.9448 9.44238 46.2673 9.76488 46.2673 10.1699V19.9574C46.2673 20.3549 45.9448 20.6849 45.5398 20.6849Z" fill="#0454A7"/>
<path d="M45.5396 10.8824C44.1821 10.8824 43.0796 9.7799 43.0796 8.4224C43.0796 7.0649 44.1821 5.9624 45.5396 5.9624C46.8971 5.9624 47.9996 7.0649 47.9996 8.4224C47.9996 9.7799 46.8971 10.8824 45.5396 10.8824ZM45.5396 7.4174C44.9846 7.4174 44.5346 7.8674 44.5346 8.4224C44.5346 8.9774 44.9846 9.4274 45.5396 9.4274C46.0946 9.4274 46.5446 8.9774 46.5446 8.4224C46.5446 7.8674 46.0946 7.4174 45.5396 7.4174Z" fill="#0454A7"/>
<path d="M2.45992 38.5574C2.05492 38.5574 1.73242 38.2349 1.73242 37.8299V28.0424C1.73242 27.6374 2.05492 27.3149 2.45992 27.3149H9.47242C9.87742 27.3149 10.1999 27.6374 10.1999 28.0424C10.1999 28.4474 9.87742 28.7699 9.47242 28.7699H3.18742V37.8299C3.18742 38.2274 2.86492 38.5574 2.45992 38.5574Z" fill="#0454A7"/>
<path d="M2.46 42.0374C1.1025 42.0374 0 40.9349 0 39.5774C0 38.2199 1.1025 37.1174 2.46 37.1174C3.8175 37.1174 4.92 38.2199 4.92 39.5774C4.92 40.9349 3.8175 42.0374 2.46 42.0374ZM2.46 38.5724C1.905 38.5724 1.455 39.0224 1.455 39.5774C1.455 40.1324 1.905 40.5824 2.46 40.5824C3.015 40.5824 3.465 40.1324 3.465 39.5774C3.465 39.0224 3.015 38.5724 2.46 38.5724Z" fill="#0454A7"/>
<path d="M45.5398 38.5574C45.1348 38.5574 44.8123 38.2349 44.8123 37.8299V28.7699H38.5273C38.1223 28.7699 37.7998 28.4474 37.7998 28.0424C37.7998 27.6374 38.1223 27.3149 38.5273 27.3149H45.5398C45.9448 27.3149 46.2673 27.6374 46.2673 28.0424V37.8299C46.2673 38.2274 45.9448 38.5574 45.5398 38.5574Z" fill="#0454A7"/>
<path d="M45.5396 42.0374C44.1821 42.0374 43.0796 40.9349 43.0796 39.5774C43.0796 38.2199 44.1821 37.1174 45.5396 37.1174C46.8971 37.1174 47.9996 38.2199 47.9996 39.5774C47.9996 40.9349 46.8971 42.0374 45.5396 42.0374ZM45.5396 38.5724C44.9846 38.5724 44.5346 39.0224 44.5346 39.5774C44.5346 40.1324 44.9846 40.5824 45.5396 40.5824C46.0946 40.5824 46.5446 40.1324 46.5446 39.5774C46.5446 39.0224 46.0946 38.5724 45.5396 38.5724Z" fill="#0454A7"/>
<path d="M27.5175 10.1999C27.1125 10.1999 26.79 9.87742 26.79 9.47242V2.45992C26.79 2.05492 27.1125 1.73242 27.5175 1.73242H34.9875C35.3925 1.73242 35.715 2.05492 35.715 2.45992C35.715 2.86492 35.3925 3.18742 34.9875 3.18742H28.245V9.47242C28.245 9.87742 27.9225 10.1999 27.5175 10.1999Z" fill="#0454A7"/>
<path d="M36.7349 4.92C35.3774 4.92 34.2749 3.8175 34.2749 2.46C34.2749 1.1025 35.3849 0 36.7349 0C38.0924 0 39.1949 1.1025 39.1949 2.46C39.2024 3.8175 38.0924 4.92 36.7349 4.92ZM36.7349 1.455C36.1799 1.455 35.7299 1.905 35.7299 2.46C35.7299 3.015 36.1799 3.465 36.7349 3.465C37.2899 3.465 37.7399 3.015 37.7399 2.46C37.7474 1.905 37.2899 1.455 36.7349 1.455Z" fill="#0454A7"/>
<path d="M34.9875 46.2675H27.5175C27.1125 46.2675 26.79 45.945 26.79 45.54V38.5275C26.79 38.1225 27.1125 37.8 27.5175 37.8C27.9225 37.8 28.245 38.1225 28.245 38.5275V44.8125H34.9875C35.3925 44.8125 35.715 45.135 35.715 45.54C35.715 45.945 35.3925 46.2675 34.9875 46.2675Z" fill="#0454A7"/>
<path d="M36.7349 48.0001C35.3774 48.0001 34.2749 46.8976 34.2749 45.5401C34.2749 44.1826 35.3774 43.0801 36.7349 43.0801C38.0924 43.0801 39.1949 44.1826 39.1949 45.5401C39.2024 46.8976 38.0924 48.0001 36.7349 48.0001ZM36.7349 44.5351C36.1799 44.5351 35.7299 44.9851 35.7299 45.5401C35.7299 46.0951 36.1799 46.5451 36.7349 46.5451C37.2899 46.5451 37.7399 46.0951 37.7399 45.5401C37.7474 44.9851 37.2899 44.5351 36.7349 44.5351Z" fill="#0454A7"/>
<path d="M20.4827 10.1999C20.0777 10.1999 19.7552 9.87742 19.7552 9.47242V3.18742H13.0127C12.6077 3.18742 12.2852 2.86492 12.2852 2.45992C12.2852 2.05492 12.6077 1.73242 13.0127 1.73242H20.4827C20.8877 1.73242 21.2102 2.05492 21.2102 2.45992V9.47242C21.2102 9.87742 20.8802 10.1999 20.4827 10.1999Z" fill="#0454A7"/>
<path d="M11.2652 4.92C9.90768 4.92 8.80518 3.8175 8.80518 2.46C8.80518 1.1025 9.90768 0 11.2652 0C12.6227 0 13.7252 1.1025 13.7252 2.46C13.7252 3.8175 12.6152 4.92 11.2652 4.92ZM11.2652 1.455C10.7102 1.455 10.2602 1.905 10.2602 2.46C10.2602 3.015 10.7102 3.465 11.2652 3.465C11.8202 3.465 12.2702 3.015 12.2702 2.46C12.2702 1.905 11.8127 1.455 11.2652 1.455Z" fill="#0454A7"/>
<path d="M20.4827 46.2675H13.0127C12.6077 46.2675 12.2852 45.945 12.2852 45.54C12.2852 45.135 12.6077 44.8125 13.0127 44.8125H19.7552V38.5275C19.7552 38.1225 20.0777 37.8 20.4827 37.8C20.8877 37.8 21.2102 38.1225 21.2102 38.5275V45.54C21.2102 45.945 20.8802 46.2675 20.4827 46.2675Z" fill="#0454A7"/>
<path d="M11.2652 48.0001C9.90768 48.0001 8.80518 46.8976 8.80518 45.5401C8.80518 44.1826 9.90768 43.0801 11.2652 43.0801C12.6227 43.0801 13.7252 44.1826 13.7252 45.5401C13.7252 46.8976 12.6152 48.0001 11.2652 48.0001ZM11.2652 44.5351C10.7102 44.5351 10.2602 44.9851 10.2602 45.5401C10.2602 46.0951 10.7102 46.5451 11.2652 46.5451C11.8202 46.5451 12.2702 46.0951 12.2702 45.5401C12.2702 44.9851 11.8127 44.5351 11.2652 44.5351Z" fill="#0454A7"/>
</g>
<defs>
<clipPath id="clip0_126_784">
<rect width="48" height="48" fill="white"/>
</clipPath>
</defs>
</svg>
