<svg width="48" height="48" viewBox="0 0 48 48" fill="none" xmlns="http://www.w3.org/2000/svg">
<path d="M22.4 6.83647C11.0546 8.07283 6.0364 22.0365 14.1818 30.1819C16 32.0001 16.8728 34.1819 16.9455 36.7274C16 37.091 15.2728 37.9637 15.2728 38.9819C15.2728 40.1456 16.0728 41.091 17.1637 41.3092C17.0182 41.6001 17.0182 41.891 17.0182 42.1819C17.0182 43.4183 18.0364 44.4365 19.2728 44.4365H20.3637C20.6546 46.0365 22.1091 47.2001 23.7819 47.2001H24.1455C25.8182 47.2001 27.2 46.0365 27.5637 44.4365H28.6546C29.8909 44.4365 30.9091 43.4183 30.9091 42.1092C30.9091 41.8183 30.8364 41.5274 30.7637 41.2365C31.8546 41.0183 32.7273 40.0728 32.7273 38.8365C32.7273 37.8183 32.0728 36.8728 31.1273 36.5819C31.2 34.1092 32.1455 31.8546 34.0364 29.891C42.6909 21.0183 35.4909 5.38192 22.4 6.83647ZM24.1455 45.8183H23.7819C22.9091 45.8183 22.1819 45.3092 21.8909 44.5092H26.0364C25.7455 45.2365 25.0182 45.8183 24.1455 45.8183ZM28.6546 43.0547C25.8909 43.0547 22.1091 43.0547 19.3455 43.0547C18.9091 43.0547 18.5455 42.691 18.5455 42.1819C18.5455 41.7456 18.9091 41.3819 19.3455 41.3819H28.6546C29.0909 41.3819 29.4546 41.7456 29.4546 42.2547C29.4546 42.691 29.0909 43.0547 28.6546 43.0547ZM30.2546 39.9274C27.0546 39.9274 20.8 39.9274 17.6728 39.9274C17.1637 39.9274 16.7273 39.491 16.7273 38.9819C16.7273 38.4728 17.1637 38.0365 17.6728 38.0365H30.2546C30.7637 38.0365 31.2 38.4728 31.2 38.9819C31.2 39.491 30.7637 39.9274 30.2546 39.9274ZM32.8728 29.0183C30.7637 31.2001 29.6728 33.7456 29.6 36.5819H24.7273V29.6001H25.2364C25.6 29.6001 25.8909 29.3092 25.9637 28.9456L26.1819 27.2728C26.5455 27.1274 26.8364 27.0547 27.2 26.8365L28.5819 27.8547C28.8728 28.0728 29.3091 28.0728 29.5273 27.7819L31.3455 26.0365C31.6364 25.7456 31.6364 25.3819 31.4182 25.091L30.4 23.7092C30.5455 23.4183 30.6909 23.0547 30.8364 22.691L32.5091 22.4728C32.8728 22.4001 33.1637 22.1092 33.1637 21.7456V19.2001C33.1637 18.8365 32.8728 18.5456 32.5091 18.4728L30.8364 18.2547C30.6909 17.891 30.6182 17.6001 30.4 17.2365L31.4182 15.8546C31.6364 15.5637 31.6364 15.1274 31.3455 14.9092L29.5273 13.091C29.2364 12.8001 28.8728 12.8001 28.5819 13.0183L27.2 14.0365C26.8364 13.891 26.5455 13.7456 26.1819 13.6001L25.9637 11.9274C25.8909 11.5637 25.6 11.2728 25.2364 11.2728H22.6909C22.3273 11.2728 22.0364 11.5637 21.9637 11.9274L21.7455 13.6001C21.3818 13.7456 21.0909 13.8183 20.7273 14.0365L19.3455 13.0183C19.0546 12.8001 18.6182 12.8001 18.4 13.091L16.6546 14.8365C16.3637 15.1274 16.3637 15.491 16.5818 15.7819L17.6 17.1637C17.4546 17.4547 17.3091 17.8183 17.1637 18.1819L15.4909 18.4001C15.1273 18.4728 14.8364 18.7637 14.8364 19.1274V21.6728C14.8364 22.0365 15.1273 22.3274 15.4909 22.4001L17.1637 22.6183C17.3091 22.9819 17.3819 23.2728 17.6 23.6365L16.5818 25.0183C16.3637 25.3092 16.3637 25.7456 16.6546 25.9637L18.4 27.7092C18.6909 28.0001 19.0546 28.0001 19.3455 27.7819L20.7273 26.7637C21.0909 26.9092 21.3818 27.0547 21.7455 27.2001L21.9637 28.8728C22.0364 29.2365 22.3273 29.5274 22.6909 29.5274H23.2728V36.5092H18.4C18.3273 33.6728 17.3091 31.1274 15.2728 29.091C7.78185 21.8183 12.5819 9.38192 22.5455 8.29101C34.2546 6.98192 40.7273 20.9456 32.8728 29.0183ZM19.0546 23.4183C18.7637 22.9092 18.5455 22.4001 18.4 21.891C18.3273 21.6001 18.1091 21.3819 17.8182 21.3819L16.2909 21.091V19.8546L17.8182 19.6365C18.1091 19.5637 18.3273 19.3456 18.4 19.1274C18.5455 18.6183 18.7637 18.0365 19.0546 17.6001C19.2 17.3819 19.2 17.0183 18.9818 16.8001L18.0364 15.5637L18.9091 14.691L20.1455 15.6365C20.3637 15.7819 20.7273 15.8547 20.9455 15.7092C21.4546 15.4183 21.9637 15.2001 22.4728 15.0547C22.7637 14.9819 22.9819 14.7637 22.9819 14.4728L23.2 12.9456H24.4364L24.6546 14.4728C24.7273 14.7637 24.9455 14.9819 25.1637 15.0547C25.6728 15.2001 26.2546 15.4183 26.6909 15.7092C26.9091 15.8547 27.2728 15.8547 27.4909 15.6365L28.7273 14.691L29.6 15.5637L28.9455 16.7274C28.8 16.9456 28.7273 17.3092 28.8728 17.5274C29.1637 18.0365 29.3818 18.5456 29.5273 19.0547C29.6 19.3456 29.8182 19.5637 30.1091 19.5637L31.6364 19.7819V21.091L30.1091 21.3092C29.8182 21.3819 29.6 21.6001 29.5273 21.8183C29.3818 22.3274 29.1637 22.9092 28.8728 23.3456C28.7273 23.5637 28.7273 23.9274 28.9455 24.1456L29.8182 25.4547L28.9455 26.3274L27.7091 25.3819C27.4909 25.2365 27.1273 25.1637 26.9091 25.3092C26.4 25.6001 25.8909 25.8183 25.3819 25.9637C25.0909 26.0365 24.8728 26.2547 24.8728 26.5456L24.6546 28.0728H23.4182L23.2 26.5456C23.1273 26.2547 22.9091 26.0365 22.6909 25.9637C22.1819 25.8183 21.6 25.6001 21.1637 25.3092C20.9455 25.1637 20.5819 25.1637 20.3637 25.3819L19.1273 26.3274L18.1091 25.4547L19.0546 24.2183C19.2 23.9274 19.2728 23.6365 19.0546 23.4183Z" fill="#0454A7"/>
<path d="M24.5818 5.23639C25.0181 5.23639 25.309 4.94548 25.309 4.50911V1.45457C25.309 1.0182 25.0181 0.727295 24.5818 0.727295C24.1454 0.727295 23.8545 1.0182 23.8545 1.45457V4.50911C23.8545 4.87275 24.1454 5.23639 24.5818 5.23639Z" fill="#0454A7"/>
<path d="M15.2 6.90899C15.4182 7.27263 15.8546 7.34536 16.2182 7.1999C16.5819 6.98172 16.6546 6.54536 16.5091 6.18172L14.9819 3.56354C14.7637 3.1999 14.3273 3.12717 13.9637 3.27263C13.6 3.49081 13.5273 3.92717 13.6728 4.29081L15.2 6.90899Z" fill="#0454A7"/>
<path d="M9.67296 11.9999L7.05478 10.4726C6.69114 10.2544 6.25478 10.3999 6.03659 10.7635C5.81841 11.1272 5.96387 11.5635 6.3275 11.7817L8.94569 13.309C9.30932 13.5272 9.74568 13.3817 9.96387 13.0181C10.1093 12.6544 9.96387 12.2181 9.67296 11.9999Z" fill="#0454A7"/>
<path d="M7.41827 21.2363C7.41827 20.7999 7.12736 20.509 6.691 20.509H3.63645C3.20009 20.509 2.90918 20.7999 2.90918 21.2363C2.90918 21.6727 3.20009 21.9636 3.63645 21.9636H6.691C7.05463 21.9636 7.41827 21.6727 7.41827 21.2363Z" fill="#0454A7"/>
<path d="M8.3636 29.3818L5.74542 30.9091C5.38179 31.1273 5.30906 31.5637 5.45451 31.9273C5.6727 32.2909 6.10906 32.3637 6.47269 32.2182L9.09088 30.6909C9.45451 30.4727 9.52724 30.0364 9.38179 29.6727C9.1636 29.2364 8.72724 29.1637 8.3636 29.3818Z" fill="#0454A7"/>
<path d="M41.673 31.8546L39.0548 30.3274C38.6911 30.1092 38.2548 30.2546 38.0366 30.6183C37.8184 30.9819 37.9639 31.4183 38.3275 31.6365L40.9457 33.1637C41.3093 33.3819 41.7457 33.2365 41.9639 32.8728C42.182 32.5092 42.0366 32.0728 41.673 31.8546Z" fill="#0454A7"/>
<path d="M44.3638 21.6729H41.3093C40.8729 21.6729 40.582 21.9638 40.582 22.4001C40.582 22.8365 40.8729 23.1274 41.3093 23.1274H44.3638C44.8002 23.1274 45.0911 22.8365 45.0911 22.4001C45.0911 21.9638 44.7275 21.6729 44.3638 21.6729Z" fill="#0454A7"/>
<path d="M39.6363 14.2545L42.2545 12.7272C42.6181 12.509 42.6908 12.0727 42.5454 11.709C42.3272 11.3454 41.8908 11.2727 41.5272 11.4181L38.909 12.9454C38.5454 13.1636 38.4726 13.6 38.6181 13.9636C38.8363 14.3272 39.2726 14.4727 39.6363 14.2545Z" fill="#0454A7"/>
<path d="M32.8002 7.70923C33.1638 7.92741 33.6002 7.78196 33.8183 7.41832L35.3456 4.80014C35.5638 4.4365 35.4183 4.00014 35.0547 3.78196C34.6911 3.56377 34.2547 3.70923 34.0365 4.07286L32.5093 6.69105C32.2911 7.05468 32.4365 7.49105 32.8002 7.70923Z" fill="#0454A7"/>
<path d="M23.9999 24.7273C26.3272 24.7273 28.2908 22.8364 28.2908 20.4364C28.2908 18.0364 26.3999 16.1455 23.9999 16.1455C21.5999 16.1455 19.709 18.0364 19.709 20.4364C19.709 22.8364 21.5999 24.7273 23.9999 24.7273ZM23.9999 17.6728C25.5272 17.6728 26.8363 18.9091 26.8363 20.5091C26.8363 22.1091 25.5272 23.2728 23.9999 23.2728C22.4726 23.2728 21.1635 22.0364 21.1635 20.4364C21.1635 18.8364 22.3999 17.6728 23.9999 17.6728Z" fill="#0454A7"/>
</svg>
