<svg width="48" height="48" viewBox="0 0 48 48" fill="none" xmlns="http://www.w3.org/2000/svg">
<path d="M24 17.8442C23.3633 17.8442 22.7409 17.6554 22.2115 17.3017C21.6821 16.948 21.2695 16.4452 21.0258 15.857C20.7822 15.2687 20.7184 14.6214 20.8426 13.997C20.9668 13.3725 21.2734 12.7989 21.7237 12.3487C22.1739 11.8984 22.7475 11.5918 23.372 11.4676C23.9964 11.3434 24.6437 11.4072 25.232 11.6508C25.8202 11.8945 26.323 12.3071 26.6767 12.8365C27.0304 13.3659 27.2193 13.9883 27.2193 14.625C27.2184 15.4785 26.8789 16.2969 26.2754 16.9004C25.6719 17.5039 24.8535 17.8434 24 17.8442ZM24 12.7037C23.6199 12.7037 23.2482 12.8164 22.9322 13.0277C22.6161 13.2389 22.3697 13.5391 22.2243 13.8903C22.0789 14.2415 22.0408 14.628 22.115 15.0008C22.1892 15.3737 22.3724 15.7161 22.6412 15.9849C22.9101 16.2537 23.2526 16.4367 23.6255 16.5108C23.9983 16.5848 24.3848 16.5467 24.736 16.4011C25.0871 16.2555 25.3873 16.0091 25.5984 15.693C25.8095 15.3768 25.9221 15.0052 25.922 14.625C25.9213 14.1155 25.7185 13.6272 25.3582 13.267C24.9979 12.9068 24.5095 12.7042 24 12.7037Z" fill="#0454A7"/>
<path d="M13.1833 43.2687C12.8058 43.2682 12.4312 43.2023 12.0761 43.0741C11.2616 42.7824 10.5963 42.1792 10.2264 41.3971C9.85648 40.615 9.81231 39.718 10.1036 38.9033L17.6597 17.1736C17.6875 17.0929 17.7309 17.0185 17.7875 16.9547C17.8441 16.8908 17.9128 16.8388 17.9896 16.8015C18.0663 16.7642 18.1497 16.7424 18.2349 16.7374C18.32 16.7324 18.4054 16.7443 18.486 16.7723C18.5666 16.8004 18.6408 16.844 18.7045 16.9008C18.7682 16.9576 18.8201 17.0264 18.8572 17.1032C18.8942 17.1801 18.9158 17.2635 18.9205 17.3487C18.9253 17.4339 18.9132 17.5192 18.885 17.5997L11.3269 39.334C11.2389 39.5782 11.2001 39.8374 11.2125 40.0966C11.225 40.3559 11.2886 40.6101 11.3996 40.8447C11.5653 41.1968 11.832 41.4917 12.1657 41.692C12.4993 41.8923 12.885 41.9889 13.2737 41.9697C13.6624 41.9504 14.0366 41.8161 14.3488 41.5839C14.661 41.3516 14.8973 41.0318 15.0274 40.665L21.9972 20.6172C22.058 20.4606 22.1772 20.3337 22.3297 20.2632C22.4822 20.1927 22.6561 20.1841 22.8148 20.2392C22.9735 20.2944 23.1046 20.4089 23.1805 20.5588C23.2564 20.7087 23.2713 20.8822 23.2218 21.0428L16.2514 41.0951C16.027 41.7298 15.6116 42.2795 15.0622 42.6687C14.5129 43.0578 13.8566 43.2675 13.1833 43.2687Z" fill="#0454A7"/>
<path d="M34.818 43.2688C34.146 43.2669 33.4908 43.0579 32.9419 42.6702C32.393 42.2826 31.977 41.735 31.7505 41.1023L24.7782 21.0428C24.7288 20.8822 24.7436 20.7087 24.8195 20.5589C24.8954 20.409 25.0266 20.2944 25.1853 20.2393C25.344 20.1841 25.5179 20.1927 25.6704 20.2632C25.8229 20.3337 25.9421 20.4607 26.0029 20.6173L32.9732 40.6703C33.1533 41.1561 33.5178 41.5512 33.9875 41.7699C34.4573 41.9885 34.9943 42.0129 35.4819 41.8378C35.9696 41.6627 36.3684 41.3023 36.5918 40.8348C36.8153 40.3673 36.8452 39.8306 36.6751 39.3412L29.1151 17.6115C29.0868 17.5309 29.0747 17.4456 29.0795 17.3604C29.0843 17.2752 29.1058 17.1918 29.1429 17.115C29.1799 17.0381 29.2318 16.9693 29.2955 16.9125C29.3592 16.8557 29.4335 16.8121 29.5141 16.784C29.5947 16.756 29.68 16.7442 29.7652 16.7492C29.8504 16.7542 29.9337 16.7759 30.0105 16.8132C30.0872 16.8505 30.1559 16.9025 30.2125 16.9664C30.2691 17.0302 30.3126 17.1046 30.3404 17.1853L37.8978 38.9072C38.0718 39.4003 38.1251 39.9279 38.0533 40.4458C37.9815 40.9637 37.7867 41.4568 37.4851 41.8839C37.1835 42.311 36.7839 42.6597 36.3199 42.9006C35.8559 43.1415 35.3409 43.2678 34.818 43.2688Z" fill="#0454A7"/>
<path d="M37.1623 46.7027C37.0331 46.7027 36.9069 46.6642 36.7998 46.5921C36.6927 46.52 36.6095 46.4176 36.561 46.2979L35.1041 42.7083C35.0424 42.5495 35.0456 42.3728 35.1131 42.2164C35.1806 42.06 35.3069 41.9364 35.4648 41.8723C35.6226 41.8083 35.7994 41.8089 35.9568 41.874C36.1142 41.9392 36.2396 42.0636 36.306 42.2205L37.7636 45.8101C37.8035 45.9086 37.8187 46.0154 37.8077 46.1212C37.7967 46.2269 37.7599 46.3283 37.7005 46.4164C37.6411 46.5046 37.5609 46.5768 37.4671 46.6267C37.3732 46.6766 37.2686 46.7027 37.1623 46.7027Z" fill="#0454A7"/>
<path d="M10.8387 46.7026C10.7324 46.7025 10.6278 46.6764 10.5341 46.6264C10.4403 46.5764 10.3603 46.5042 10.3009 46.4161C10.2416 46.3279 10.2049 46.2266 10.1939 46.1209C10.1829 46.0152 10.1981 45.9085 10.238 45.81L11.6949 42.2204C11.7596 42.0609 11.885 41.9337 12.0435 41.8667C12.202 41.7996 12.3806 41.7983 12.5401 41.863C12.6996 41.9277 12.8268 42.0531 12.8938 42.2116C12.9609 42.3701 12.9622 42.5487 12.8975 42.7082L11.44 46.2978C11.3914 46.4175 11.3083 46.5199 11.2011 46.592C11.094 46.6641 10.9678 46.7026 10.8387 46.7026Z" fill="#0454A7"/>
<path d="M24 21.6324C22.6145 21.6324 21.2601 21.2215 20.108 20.4518C18.956 19.682 18.0581 18.5879 17.5279 17.3078C16.9977 16.0278 16.8589 14.6192 17.1292 13.2603C17.3995 11.9014 18.0667 10.6531 19.0465 9.67342C20.0262 8.6937 21.2744 8.0265 22.6334 7.75619C23.9923 7.48589 25.4008 7.62462 26.6809 8.15484C27.961 8.68506 29.0551 9.58296 29.8248 10.735C30.5946 11.887 31.0054 13.2415 31.0054 14.627C31.0029 16.4841 30.264 18.2645 28.9508 19.5777C27.6376 20.8909 25.8572 21.6298 24 21.6324ZM24 8.91564C22.8711 8.91564 21.7675 9.25041 20.8288 9.87763C19.8901 10.5048 19.1585 11.3963 18.7264 12.4393C18.2944 13.4824 18.1814 14.6301 18.4016 15.7373C18.6219 16.8446 19.1655 17.8617 19.9638 18.66C20.7621 19.4583 21.7792 20.0019 22.8864 20.2222C23.9937 20.4424 25.1414 20.3294 26.1844 19.8974C27.2275 19.4653 28.1189 18.7337 28.7462 17.795C29.3734 16.8563 29.7081 15.7527 29.7081 14.6237C29.7061 13.1105 29.104 11.6598 28.034 10.5898C26.964 9.51975 25.5133 8.9177 24 8.91564Z" fill="#0454A7"/>
<path d="M26.0164 9.24264C25.8444 9.24264 25.6794 9.1743 25.5578 9.05265C25.4361 8.93101 25.3678 8.76602 25.3678 8.59399V3.9568C25.3678 3.59398 25.2236 3.24603 24.9671 2.98948C24.7105 2.73293 24.3626 2.5888 23.9998 2.5888C23.637 2.5888 23.289 2.73293 23.0324 2.98948C22.7759 3.24603 22.6318 3.59398 22.6318 3.9568V8.5914C22.6318 8.76343 22.5634 8.92841 22.4418 9.05006C22.3201 9.1717 22.1552 9.24004 21.9831 9.24004C21.8111 9.24004 21.6461 9.1717 21.5245 9.05006C21.4028 8.92841 21.3345 8.76343 21.3345 8.5914V3.9568C21.3345 3.24992 21.6153 2.57199 22.1151 2.07215C22.615 1.57231 23.2929 1.2915 23.9998 1.2915C24.7067 1.2915 25.3846 1.57231 25.8844 2.07215C26.3843 2.57199 26.6651 3.24992 26.6651 3.9568V8.5914C26.6654 8.6768 26.6489 8.76142 26.6164 8.84042C26.584 8.91942 26.5363 8.99123 26.476 9.05174C26.4157 9.11225 26.3441 9.16026 26.2652 9.19302C26.1864 9.22578 26.1018 9.24264 26.0164 9.24264Z" fill="#0454A7"/>
<path d="M38.299 32.4972H34.7561C34.584 32.4972 34.4191 32.4289 34.2974 32.3073C34.1758 32.1856 34.1074 32.0206 34.1074 31.8486C34.1074 31.6766 34.1758 31.5116 34.2974 31.3899C34.4191 31.2683 34.584 31.2 34.7561 31.2H38.299C38.471 31.2 38.636 31.2683 38.7577 31.3899C38.8793 31.5116 38.9476 31.6766 38.9476 31.8486C38.9476 32.0206 38.8793 32.1856 38.7577 32.3073C38.636 32.4289 38.471 32.4972 38.299 32.4972Z" fill="#0454A7"/>
<path d="M13.2443 32.4972H9.70138C9.52935 32.4972 9.36436 32.4289 9.24272 32.3073C9.12107 32.1856 9.05273 32.0206 9.05273 31.8486C9.05273 31.6766 9.12107 31.5116 9.24272 31.3899C9.36436 31.2683 9.52935 31.2 9.70138 31.2H13.2443C13.4163 31.2 13.5813 31.2683 13.703 31.3899C13.8246 31.5116 13.893 31.6766 13.893 31.8486C13.893 32.0206 13.8246 32.1856 13.703 32.3073C13.5813 32.4289 13.4163 32.4972 13.2443 32.4972Z" fill="#0454A7"/>
<path d="M29.2179 32.4972H18.7824C18.6104 32.4972 18.4454 32.4289 18.3238 32.3073C18.2021 32.1856 18.1338 32.0206 18.1338 31.8486C18.1338 31.6766 18.2021 31.5116 18.3238 31.3899C18.4454 31.2683 18.6104 31.2 18.7824 31.2H29.2179C29.3899 31.2 29.5549 31.2683 29.6766 31.3899C29.7982 31.5116 29.8665 31.6766 29.8665 31.8486C29.8665 32.0206 29.7982 32.1856 29.6766 32.3073C29.5549 32.4289 29.3899 32.4972 29.2179 32.4972Z" fill="#0454A7"/>
</svg>
