<svg width="48" height="48" viewBox="0 0 48 48" fill="none" xmlns="http://www.w3.org/2000/svg">
<g clip-path="url(#clip0_126_730)">
<path d="M45.1228 15.8693C45.1058 15.7722 45.0698 15.6794 45.0169 15.5962C44.964 15.513 44.8952 15.4411 44.8145 15.3846C44.7337 15.328 44.6426 15.2879 44.5464 15.2666C44.4502 15.2452 44.3507 15.2431 44.2536 15.2603L40.5621 15.9105C40.4649 15.9275 40.3721 15.9635 40.2888 16.0165C40.2056 16.0695 40.1337 16.1383 40.0771 16.2192C40.0205 16.3 39.9804 16.3911 39.9592 16.4875C39.9379 16.5838 39.9358 16.6834 39.9531 16.7805L40.1136 17.6887L38.0136 18.0555L36.7498 17.862V6.75C36.7498 5.95435 36.4338 5.19129 35.8712 4.62868C35.3085 4.06607 34.5455 3.75 33.7498 3.75H28.4998V2.25C28.4998 1.65326 28.2628 1.08097 27.8408 0.65901C27.4189 0.237053 26.8466 0 26.2498 0L21.7498 0C21.1531 0 20.5808 0.237053 20.1588 0.65901C19.7369 1.08097 19.4998 1.65326 19.4998 2.25V3.75H14.2498C13.4542 3.75 12.6911 4.06607 12.1285 4.62868C11.5659 5.19129 11.2498 5.95435 11.2498 6.75V17.8643L9.98083 18.0585L7.88684 17.6895L8.04659 16.7805C8.06385 16.6834 8.06178 16.5838 8.0405 16.4875C8.01923 16.3911 7.97915 16.3 7.92258 16.2192C7.86601 16.1383 7.79406 16.0695 7.71083 16.0165C7.62761 15.9635 7.53475 15.9275 7.43759 15.9105L3.74984 15.2603C3.65271 15.243 3.55313 15.2451 3.45681 15.2663C3.36048 15.2876 3.2693 15.3277 3.18849 15.3843C3.10767 15.4408 3.03881 15.5128 2.98585 15.596C2.93288 15.6792 2.89686 15.7721 2.87984 15.8693L0.0110857 32.1165C-0.00617782 32.2136 -0.00411127 32.3132 0.017167 32.4095C0.0384453 32.5059 0.0785172 32.597 0.135088 32.6778C0.191658 32.7587 0.263616 32.8275 0.34684 32.8805C0.430064 32.9335 0.522918 32.9695 0.620086 32.9865L4.31234 33.6367C4.40941 33.6539 4.50891 33.6518 4.60514 33.6304C4.70138 33.6091 4.79247 33.569 4.87321 33.5124C4.95394 33.4559 5.02273 33.384 5.07564 33.3008C5.12856 33.2176 5.16456 33.1248 5.18159 33.0277L5.24984 32.625L5.86934 32.7345C6.44033 33.9922 7.27103 35.1148 8.30684 36.0285C8.26714 36.7057 8.45994 37.3761 8.8533 37.9288C9.24666 38.4815 9.81698 38.8832 10.4698 39.0675C10.119 39.6502 9.97782 40.3354 10.0698 41.0094C10.1618 41.6834 10.4814 42.3057 10.9756 42.7731C11.4698 43.2405 12.1089 43.525 12.787 43.5793C13.465 43.6336 14.1413 43.4545 14.7036 43.0718C14.7782 43.5698 14.9783 44.0406 15.2851 44.4399C15.5919 44.8393 15.9952 45.1539 16.4572 45.3543C16.9192 45.5547 17.4246 45.6342 17.9258 45.5854C18.427 45.5365 18.9075 45.3609 19.3221 45.075C19.3923 45.5343 19.5693 45.9708 19.8391 46.3492C20.1088 46.7275 20.4636 47.0373 20.875 47.2534C21.2863 47.4695 21.7427 47.5861 22.2073 47.5935C22.6719 47.601 23.1317 47.4993 23.5498 47.2965V47.301L23.8498 47.5005C24.1784 47.718 24.5466 47.8687 24.9334 47.9439C25.3201 48.0191 25.718 48.0174 26.1041 47.9388C26.4902 47.8602 26.8571 47.7064 27.1837 47.486C27.5104 47.2657 27.7904 46.9831 28.0078 46.6545C28.3362 46.1546 28.5042 45.5664 28.4893 44.9685C28.7326 45.0348 28.9834 45.0695 29.2356 45.072C29.6319 45.0732 30.0245 44.9957 30.3907 44.8441C30.7568 44.6924 31.0892 44.4696 31.3686 44.1885C31.648 43.9075 31.8689 43.5737 32.0183 43.2067C32.1678 42.8396 32.2429 42.4466 32.2393 42.0503C32.4781 42.113 32.7237 42.1458 32.9706 42.1478C33.3664 42.1478 33.7583 42.0694 34.1237 41.9173C34.4891 41.7652 34.8208 41.5423 35.0996 41.2614C35.3785 40.9805 35.599 40.6472 35.7485 40.2807C35.898 39.9142 35.9735 39.5218 35.9706 39.126C36.4278 39.2451 36.9068 39.2537 37.368 39.1508C37.8291 39.048 38.2592 38.8368 38.6225 38.5347C38.9857 38.2327 39.2719 37.8484 39.4571 37.4137C39.6423 36.9791 39.7213 36.5065 39.6876 36.0353C40.7244 35.12 41.5552 33.9953 42.1251 32.7352L42.7498 32.6287L42.8203 33.0277C42.8374 33.1249 42.8734 33.2178 42.9263 33.301C42.9793 33.3842 43.0482 33.4562 43.129 33.5127C43.2098 33.5693 43.301 33.6094 43.3973 33.6307C43.4936 33.6519 43.5932 33.654 43.6903 33.6367L47.3818 32.9865C47.479 32.9695 47.5719 32.9335 47.6551 32.8805C47.7383 32.8275 47.8103 32.7587 47.8668 32.6778C47.9234 32.597 47.9635 32.5059 47.9848 32.4095C48.006 32.3132 48.0081 32.2136 47.9908 32.1165L45.1228 15.8693ZM20.9998 2.25C20.9998 2.05109 21.0789 1.86032 21.2195 1.71967C21.3602 1.57902 21.5509 1.5 21.7498 1.5H26.2498C26.4487 1.5 26.6395 1.57902 26.7802 1.71967C26.9208 1.86032 26.9998 2.05109 26.9998 2.25V3.75H20.9998V2.25ZM12.7498 6.75C12.7498 6.35218 12.9079 5.97064 13.1892 5.68934C13.4705 5.40804 13.852 5.25 14.2498 5.25H33.7498C34.1477 5.25 34.5292 5.40804 34.8105 5.68934C35.0918 5.97064 35.2498 6.35218 35.2498 6.75V9C35.2498 9.59674 35.0128 10.169 34.5908 10.591C34.1689 11.0129 33.5966 11.25 32.9998 11.25V10.5C32.9998 10.3011 32.9208 10.1103 32.7802 9.96967C32.6395 9.82902 32.4487 9.75 32.2498 9.75H29.2498C29.0509 9.75 28.8602 9.82902 28.7195 9.96967C28.5789 10.1103 28.4998 10.3011 28.4998 10.5V11.25H19.4998V10.5C19.4998 10.3011 19.4208 10.1103 19.2802 9.96967C19.1395 9.82902 18.9487 9.75 18.7498 9.75H15.7498C15.5509 9.75 15.3602 9.82902 15.2195 9.96967C15.0789 10.1103 14.9998 10.3011 14.9998 10.5V11.25C14.4031 11.25 13.8308 11.0129 13.4088 10.591C12.9869 10.169 12.7498 9.59674 12.7498 9V6.75ZM31.4998 11.25V12.75H29.9998V11.25H31.4998ZM17.9998 11.25V12.75H16.4998V11.25H17.9998ZM12.7498 11.9805C13.3951 12.4769 14.1857 12.7472 14.9998 12.75V13.5C14.9998 13.6989 15.0789 13.8897 15.2195 14.0303C15.3602 14.171 15.5509 14.25 15.7498 14.25H18.7498C18.9487 14.25 19.1395 14.171 19.2802 14.0303C19.4208 13.8897 19.4998 13.6989 19.4998 13.5V12.75H28.4998V13.5C28.4998 13.6989 28.5789 13.8897 28.7195 14.0303C28.8602 14.171 29.0509 14.25 29.2498 14.25H32.2498C32.4487 14.25 32.6395 14.171 32.7802 14.0303C32.9208 13.8897 32.9998 13.6989 32.9998 13.5V12.75C33.8139 12.7472 34.6045 12.4769 35.2498 11.9805V17.6325L29.5498 16.761C28.3104 16.5743 27.0434 16.735 25.8898 17.2253L23.9998 18.0308L22.1151 17.2275C20.9597 16.7351 19.6898 16.5749 18.4483 16.7648L12.7498 17.6355V11.9805ZM3.83459 32.0303L1.61909 31.6388L4.22309 16.8638L6.43934 17.2545L3.83459 32.0303ZM10.1473 37.1475C9.89173 36.8428 9.76758 36.4491 9.80218 36.0529C9.83677 35.6567 10.0273 35.2905 10.3318 35.0348L13.2051 32.625C13.5098 32.3692 13.9037 32.2449 14.3 32.2795C14.6964 32.3141 15.0628 32.5048 15.3186 32.8095C15.5744 33.1142 15.6987 33.5081 15.6641 33.9045C15.6295 34.3008 15.4388 34.6672 15.1341 34.923L12.2608 37.3343C12.1098 37.4608 11.9353 37.5564 11.7474 37.6155C11.5594 37.6746 11.3617 37.6961 11.1654 37.6787C10.9691 37.6614 10.7782 37.6055 10.6035 37.5144C10.4288 37.4232 10.2738 37.2986 10.1473 37.1475ZM14.0038 41.7443C13.8529 41.8709 13.6785 41.9666 13.4906 42.0259C13.3027 42.0851 13.1049 42.1068 12.9086 42.0896C12.7123 42.0724 12.5213 42.0168 12.3465 41.9258C12.1718 41.8348 12.0166 41.7103 11.89 41.5594C11.7633 41.4084 11.6676 41.234 11.6084 41.0461C11.5491 40.8582 11.5274 40.6604 11.5446 40.4641C11.5618 40.2679 11.6174 40.0769 11.7084 39.9021C11.7994 39.7273 11.9239 39.5722 12.0748 39.4455L15.5248 36.5527C15.8312 36.313 16.2187 36.2016 16.6057 36.2421C16.9926 36.2827 17.3486 36.4719 17.5987 36.77C17.8487 37.0681 17.9731 37.4517 17.9456 37.8397C17.9182 38.2278 17.7411 38.5901 17.4516 38.85L14.0038 41.7443ZM18.6201 43.7453C18.4691 43.8719 18.2947 43.9675 18.1068 44.0267C17.9189 44.0859 17.7212 44.1075 17.525 44.0903C17.3287 44.0731 17.1378 44.0175 16.963 43.9265C16.7883 43.8355 16.6332 43.7109 16.5066 43.56C16.38 43.4091 16.2843 43.2347 16.2251 43.0468C16.1659 42.8589 16.1443 42.6611 16.1615 42.4649C16.1787 42.2686 16.2344 42.0777 16.3254 41.9029C16.4164 41.7282 16.5409 41.5731 16.6918 41.4465L18.9906 39.5182C19.2959 39.2676 19.6878 39.1475 20.0811 39.1841C20.4744 39.2206 20.8375 39.4109 21.0914 39.7135C21.3453 40.0161 21.4696 40.4066 21.4373 40.8003C21.405 41.194 21.2187 41.5591 20.9188 41.8162L18.6201 43.7453ZM23.2356 45.75C22.9303 46.0021 22.5378 46.1234 22.1436 46.0872C21.7493 46.0511 21.3853 45.8606 21.1309 45.5573C20.8766 45.2539 20.7524 44.8623 20.7856 44.4678C20.8188 44.0733 21.0066 43.7079 21.3081 43.4513L23.6061 41.523C23.757 41.3963 23.9313 41.3006 24.1192 41.2413C24.3071 41.182 24.5048 41.1603 24.7011 41.1775C24.8973 41.1946 25.0883 41.2502 25.263 41.3412C25.4378 41.4321 25.5929 41.5566 25.7196 41.7075C25.8462 41.8584 25.9419 42.0328 26.0011 42.2207C26.0603 42.4086 26.082 42.6064 26.0648 42.8026C26.0476 42.9989 25.9919 43.1898 25.9009 43.3646C25.8098 43.5393 25.6853 43.6944 25.5343 43.821L23.2356 45.75ZM26.7553 45.8295C26.5566 46.1325 26.2539 46.3524 25.9042 46.4477C25.5546 46.543 25.1821 46.5072 24.8571 46.347L26.4988 44.97C26.6541 44.8402 26.7958 44.6949 26.9218 44.5365C26.9928 44.75 27.0147 44.9767 26.9859 45.1998C26.9571 45.4229 26.8783 45.6366 26.7553 45.825V45.8295ZM37.9596 37.05C37.8509 37.2143 37.7108 37.3556 37.5475 37.4658C37.3842 37.5759 37.2008 37.6529 37.0077 37.6922C36.8146 37.7314 36.6157 37.7323 36.4223 37.6947C36.229 37.6571 36.0449 37.5818 35.8806 37.473L29.6248 33.3353C29.5428 33.2758 29.4496 33.2336 29.3509 33.2112C29.2521 33.1887 29.1498 33.1865 29.0502 33.2047C28.9506 33.2229 28.8556 33.261 28.7712 33.3169C28.6867 33.3727 28.6144 33.4451 28.5586 33.5296C28.5029 33.6142 28.4648 33.7092 28.4467 33.8088C28.4287 33.9085 28.431 34.0107 28.4535 34.1095C28.4761 34.2082 28.5184 34.3013 28.5779 34.3833C28.6374 34.4652 28.7129 34.5343 28.7998 34.5863L33.8053 37.899C34.1369 38.1189 34.3676 38.4615 34.4466 38.8515C34.5255 39.2414 34.4464 39.6468 34.2265 39.9784C34.0066 40.31 33.6639 40.5406 33.274 40.6196C32.884 40.6986 32.4787 40.6194 32.1471 40.3995L27.1423 37.0875C27.0589 37.0316 26.965 36.9934 26.8663 36.975C26.696 36.9429 26.5198 36.9708 26.3678 37.0539C26.2157 37.137 26.0971 37.2702 26.0321 37.4309C25.9671 37.5916 25.9598 37.7698 26.0114 37.9353C26.063 38.1007 26.1703 38.2432 26.3151 38.3385L30.0651 40.8232C30.3947 41.0439 30.6234 41.3861 30.7013 41.775C30.7792 42.1639 30.6999 42.5678 30.4808 42.8984C30.2617 43.229 29.9205 43.4593 29.532 43.5391C29.1435 43.6188 28.7392 43.5413 28.4076 43.3237L27.5526 42.7583C27.5733 42.208 27.4407 41.6627 27.1698 41.1833C26.8988 40.7039 26.5 40.3092 26.0179 40.0431C25.5358 39.777 24.9892 39.65 24.4392 39.6762C23.8891 39.7025 23.3572 39.881 22.9026 40.1917C22.8444 39.8018 22.7088 39.4275 22.5038 39.0907C22.2987 38.754 22.0284 38.4617 21.7086 38.2311C21.3889 38.0004 21.0262 37.8361 20.642 37.7478C20.2577 37.6594 19.8597 37.6489 19.4713 37.7168C19.4845 37.0069 19.2402 36.3162 18.7838 35.7723C18.3273 35.2285 17.6895 34.8682 16.9881 34.758C17.2076 34.1388 17.2171 33.4645 17.0151 32.8393C16.8131 32.2141 16.411 31.6728 15.8707 31.299C15.3304 30.9252 14.682 30.7397 14.0258 30.7712C13.3695 30.8026 12.7419 31.0493 12.2398 31.473L9.36659 33.8843C9.16571 34.0572 8.98912 34.2565 8.84159 34.4768C8.09098 33.7029 7.49933 32.7894 7.10009 31.788C7.0528 31.6689 6.97579 31.5639 6.8764 31.483C6.77701 31.4022 6.65856 31.3481 6.53234 31.326L5.51159 31.146L7.62434 19.1647L9.83984 19.5555C9.92049 19.5694 10.0029 19.5694 10.0836 19.5555L18.6748 18.2475C19.6398 18.0995 20.627 18.2242 21.5248 18.6075L22.0828 18.8453L19.0881 20.1203C18.4152 20.408 17.8416 20.8867 17.4381 21.4972L14.6158 25.752C14.2893 26.2517 14.1734 26.8602 14.2934 27.445C14.4133 28.0297 14.7594 28.5434 15.2563 28.8743C16.0862 29.421 17.0989 29.6165 18.0726 29.4179C19.0463 29.2192 19.9015 28.6426 20.4508 27.8145L21.7386 25.875L24.4768 25.3147C24.772 26.2247 25.2733 27.0541 25.9417 27.7384C26.6101 28.4227 27.4276 28.9434 28.3303 29.2598C28.6503 29.3739 28.9785 29.4634 29.3121 29.5275L37.5358 34.9725C37.8674 35.1919 38.0982 35.534 38.1777 35.9235C38.2571 36.3131 38.1787 36.7183 37.9596 37.05ZM41.4658 31.3275C41.3391 31.3496 41.2202 31.4039 41.1205 31.4852C41.0208 31.5665 40.9437 31.672 40.8966 31.7917C40.4971 32.7978 39.9033 33.7153 39.1491 34.4917C38.9379 34.1879 38.6715 33.9263 38.3638 33.7207L31.9888 29.5035C32.8172 29.3379 33.6064 29.0157 34.3138 28.554L35.4921 27.7815C35.6584 27.6721 35.7744 27.5011 35.8146 27.3062C35.8549 27.1112 35.816 26.9083 35.7066 26.742C35.5972 26.5757 35.4262 26.4597 35.2313 26.4195C35.0363 26.3792 34.8334 26.4181 34.6671 26.5275L33.4926 27.3C32.8133 27.7462 32.0394 28.028 31.2323 28.1231C30.4252 28.2183 29.607 28.1242 28.8426 27.8483C28.1391 27.6031 27.5036 27.1952 26.9878 26.6577C26.472 26.1201 26.0907 25.4683 25.8748 24.7552C25.8283 24.6052 25.7893 24.4455 25.7563 24.2873C25.7157 24.0931 25.5999 23.923 25.4342 23.8141C25.2685 23.7052 25.0664 23.6663 24.8721 23.706L21.1363 24.471C20.942 24.5108 20.7712 24.6259 20.6616 24.7913L19.2073 26.988C18.8776 27.4845 18.3646 27.8302 17.7806 27.9496C17.1967 28.0689 16.5892 27.9521 16.0911 27.6248C15.9249 27.514 15.809 27.3423 15.7686 27.1467C15.7281 26.9512 15.7664 26.7475 15.8751 26.58L18.6958 22.326C18.9377 21.9607 19.281 21.674 19.6836 21.501L26.4793 18.606C27.3777 18.2246 28.3643 18.0997 29.3293 18.2453L37.9168 19.5578C37.9971 19.5701 38.0788 19.5701 38.1591 19.5578L40.3791 19.1693L42.4873 31.1505L41.4658 31.3275ZM44.1658 32.0288L41.5611 17.2537L43.7773 16.863L46.3813 31.638L44.1658 32.0288Z" fill="#0454A7"/>
</g>
<defs>
<clipPath id="clip0_126_730">
<rect width="48" height="48" fill="white"/>
</clipPath>
</defs>
</svg>
