<svg width="48" height="48" viewBox="0 0 48 48" fill="none" xmlns="http://www.w3.org/2000/svg">
<path d="M1.9888 19.8026C1.00767 19.9618 0.248709 20.7484 0.124795 21.7346C-0.03995 23.2284 -0.0416086 24.7356 0.119977 26.2298C0.232598 27.2313 0.996221 28.0364 1.99038 28.2018L4.53595 28.6185C5.02465 30.7001 5.84964 32.6881 6.97829 34.5041L5.47995 36.5969C4.88289 37.4064 4.89734 38.5143 5.51518 39.3081C5.99204 39.8915 6.49946 40.4494 7.03516 40.9793C7.52639 41.4713 8.06951 41.9657 8.72154 42.5136C9.50902 43.1192 10.6017 43.1319 11.4031 42.5448L13.5063 41.0361C15.3204 42.1646 17.3064 42.9898 19.3862 43.4792L19.8038 46.0288C19.9626 47.0103 20.7493 47.7696 21.7358 47.8936C22.1918 47.9448 22.655 47.9808 23.1214 48H23.1894C23.6063 47.9997 24.0073 47.8393 24.3094 47.552C24.6235 47.2518 24.8007 46.836 24.7997 46.4016V39.9904C24.795 39.1338 24.1188 38.4315 23.2629 38.3945C15.6059 37.9947 9.60244 31.6696 9.60244 24.0022C9.60244 16.3348 15.6059 10.0097 23.2629 9.60991C24.1201 9.57232 24.7967 8.86801 24.7997 8.00993V1.60202C24.801 1.16709 24.6234 0.750887 24.3085 0.450856C23.9942 0.142453 23.5651 -0.0203177 23.1253 0.0020326C22.6597 0.0204341 22.1981 0.0539991 21.7245 0.102017C20.7385 0.22909 19.9556 0.993108 19.8045 1.97558L19.3877 4.52272C17.3079 5.01254 15.3219 5.838 13.5078 6.96673L11.4046 5.46112C10.5958 4.86967 9.49251 4.88728 8.70306 5.50432C8.12306 5.97913 7.56793 6.48347 7.0399 7.01554C6.49567 7.54752 5.98335 8.11118 5.50554 8.7035C4.89513 9.492 4.87949 10.5891 5.46716 11.3947L6.97513 13.5003C5.84743 15.3161 5.02355 17.3039 4.53595 19.3851L1.9888 19.8026ZM5.98319 20.249C6.44828 17.9895 7.34056 15.8396 8.612 13.9147C8.7942 13.6379 8.78685 13.2774 8.5936 13.0083L6.76885 10.4603C6.60015 10.2377 6.59526 9.93143 6.75684 9.7035C7.19532 9.16006 7.66578 8.64316 8.16563 8.15548C8.65117 7.66504 9.16112 7.19932 9.69358 6.76029C9.92277 6.58559 10.2404 6.58559 10.4696 6.76029L13.0136 8.58591C13.2831 8.77869 13.6435 8.78532 13.92 8.60273C15.8432 7.33081 17.992 6.43822 20.2504 5.97313C20.575 5.90623 20.8248 5.64593 20.8784 5.31873L21.3815 2.23794C21.4177 1.9616 21.6299 1.74125 21.9048 1.69474C22.3279 1.65075 22.7568 1.61955 23.2 1.60194L23.1824 8.01064C14.6653 8.44564 7.98414 15.4806 7.98888 24.0088C7.99354 32.537 14.6824 39.5647 23.2 39.9903L23.1888 46.4014C22.7591 46.3838 22.3336 46.3502 21.9136 46.303C21.6375 46.2627 21.4211 46.045 21.3824 45.7686L20.8784 42.6862C20.8248 42.359 20.5751 42.0988 20.2504 42.0318C17.992 41.5663 15.8432 40.6736 13.92 39.4014C13.6434 39.219 13.283 39.226 13.0136 39.419L10.4672 41.2462C10.2501 41.4151 9.94836 41.4232 9.72241 41.2662C9.13443 40.771 8.62479 40.3063 8.16563 39.8478C7.6751 39.3631 7.20969 38.8537 6.77122 38.3214C6.59865 38.091 6.59865 37.7743 6.77122 37.5438L8.59439 34.9982C8.78741 34.7289 8.79444 34.3685 8.612 34.0918C7.34048 32.1673 6.4482 30.0176 5.98319 27.7583C5.91638 27.4339 5.65646 27.1842 5.32958 27.1303L2.24958 26.6255C1.96289 26.5781 1.74279 26.3456 1.7112 26.0567C1.56138 24.6807 1.56296 23.2924 1.71601 21.9167C1.75582 21.6404 1.97316 21.4234 2.24958 21.384L5.32871 20.8799C5.65686 20.8262 5.9174 20.575 5.98319 20.249Z" fill="#0454A7"/>
<path d="M45.5996 21.6016C44.5862 21.6058 43.6847 22.2462 43.3468 23.2016H24.7998V20.8016H37.5997C38.9252 20.8016 39.9996 19.7271 39.9996 18.4017V14.2545C41.1017 13.8649 41.7627 12.738 41.565 11.586C41.3674 10.434 40.3685 9.59184 39.1996 9.59184C38.0308 9.59184 37.0319 10.434 36.8342 11.586C36.6365 12.738 37.2975 13.8649 38.3996 14.2545V18.4017C38.3996 18.8435 38.0414 19.2017 37.5996 19.2017H24.7998V16.8017H33.5997C34.0415 16.8017 34.3997 16.4435 34.3997 16.0016C34.3997 15.5598 34.0415 15.2016 33.5997 15.2016H24.7998V13.6016H29.5998C30.9252 13.6016 31.9998 12.5272 31.9998 11.2016V6.25461C33.1018 5.86502 33.7629 4.7381 33.5652 3.58607C33.3675 2.43404 32.3686 1.59192 31.1998 1.59192C30.0309 1.59192 29.032 2.43404 28.8343 3.58607C28.6367 4.7381 29.2977 5.86502 30.3997 6.25461V11.2018C30.3997 11.6436 30.0416 12.0018 29.5997 12.0018H24.5886C24.3133 11.4903 23.7641 11.1873 23.1846 11.2274C16.4431 11.6545 11.1938 17.2467 11.1938 24.0017C11.1938 30.7567 16.4431 36.349 23.1846 36.776H23.2782C23.8247 36.7806 24.329 36.4825 24.5886 36.0016H29.5997C30.0415 36.0016 30.3997 36.3598 30.3997 36.8017V41.7488C29.2977 42.1384 28.6367 43.2653 28.8343 44.4174C29.032 45.5694 30.0309 46.4115 31.1998 46.4115C32.3686 46.4115 33.3675 45.5694 33.5652 44.4174C33.7629 43.2653 33.1018 42.1384 31.9998 41.7488V36.8017C31.9998 35.4762 30.9253 34.4017 29.5998 34.4017H24.7998V32.8017H33.5997C34.0415 32.8017 34.3997 32.4435 34.3997 32.0017C34.3997 31.5599 34.0415 31.2017 33.5997 31.2017H24.7998V28.8018H37.5997C38.0415 28.8018 38.3997 29.1599 38.3997 29.6017V33.7488C37.2977 34.1384 36.6367 35.2653 36.8343 36.4174C37.032 37.5694 38.0309 38.4115 39.1998 38.4115C40.3686 38.4115 41.3675 37.5694 41.5652 36.4174C41.7629 35.2653 41.1018 34.1384 39.9998 33.7488V29.6017C39.9998 28.2762 38.9253 27.2018 37.5999 27.2018H24.7998V24.8016H43.3468C43.7556 25.9493 44.9606 26.6074 46.1472 26.3311C47.3337 26.0549 48.1241 24.9322 47.984 23.722C47.8438 22.5119 46.8178 21.5995 45.5996 21.6016ZM39.1997 11.2018C39.6415 11.2018 39.9996 11.5599 39.9996 12.0018C39.9996 12.4437 39.6415 12.8018 39.1997 12.8018C38.7579 12.8018 38.3997 12.4437 38.3997 12.0018C38.3997 11.5599 38.7578 11.2018 39.1997 11.2018ZM31.1998 3.20185C31.6416 3.20185 31.9998 3.56001 31.9998 4.00189C31.9998 4.44376 31.6416 4.80184 31.1998 4.80184C30.7579 4.80184 30.3998 4.44368 30.3998 4.00189C30.3998 3.56009 30.7579 3.20185 31.1998 3.20185ZM31.1998 44.8014C30.758 44.8014 30.3998 44.4433 30.3998 44.0014C30.3998 43.5595 30.758 43.2014 31.1998 43.2014C31.6416 43.2014 31.9998 43.5595 31.9998 44.0014C31.9998 44.4433 31.6416 44.8014 31.1998 44.8014ZM39.1997 36.8015C38.7579 36.8015 38.3997 36.4434 38.3997 36.0015C38.3997 35.5596 38.7579 35.2015 39.1997 35.2015C39.6415 35.2015 39.9996 35.5597 39.9996 36.0015C39.9996 36.4433 39.6415 36.8015 39.1997 36.8015ZM12.7999 24.0016C12.8066 18.1292 17.3429 13.2567 23.1999 12.8306V35.1728C17.3429 34.7466 12.8066 29.874 12.7999 24.0016ZM45.5996 24.8016C45.1578 24.8016 44.7996 24.4434 44.7996 24.0016C44.7996 23.5597 45.1578 23.2016 45.5996 23.2016C46.0415 23.2016 46.3997 23.5598 46.3997 24.0016C46.3997 24.4434 46.0414 24.8016 45.5996 24.8016Z" fill="#0454A7"/>
</svg>
