<svg width="48" height="48" viewBox="0 0 48 48" fill="none" xmlns="http://www.w3.org/2000/svg">
<path fill-rule="evenodd" clip-rule="evenodd" d="M28.9956 29.5031C29.1061 29.7597 29.3501 29.9336 29.6287 29.9543C29.6474 29.9557 29.666 29.9563 29.6847 29.9563C29.9427 29.9563 30.1843 29.8233 30.3218 29.6018L32.1389 26.6735L35.5151 27.3649C35.7891 27.4208 36.071 27.3202 36.2473 27.1035C36.4237 26.8869 36.4649 26.5901 36.3545 26.3335L33.8472 20.512C33.9238 20.4794 34.0023 20.446 34.085 20.4106C35.378 19.8569 36.1345 18.5465 35.9676 17.1499C35.9366 16.8905 35.9076 16.6597 35.8816 16.4525C35.7775 15.6214 35.7251 15.2042 35.7813 14.8855C35.8376 14.5667 36.0294 14.1926 36.4116 13.4472C36.5069 13.2613 36.6131 13.0544 36.7309 12.8212C37.3655 11.5659 37.1027 10.0757 36.0771 9.11328C35.8867 8.9345 35.7161 8.77634 35.5631 8.63421C34.9489 8.06459 34.6407 7.77865 34.4789 7.49834C34.317 7.21803 34.2236 6.80815 34.0373 5.99159C33.9908 5.78796 33.939 5.56109 33.8794 5.30665C33.5586 3.93715 32.3995 2.96459 30.9951 2.8865C30.7343 2.87196 30.502 2.86043 30.2934 2.85003C29.4568 2.8084 29.0368 2.7875 28.7327 2.67678C28.4286 2.56606 28.0935 2.31218 27.4258 1.80631C27.2594 1.68012 27.0739 1.53968 26.8648 1.38312C25.7387 0.540309 24.2258 0.540215 23.0997 1.38312C22.8906 1.53968 22.7051 1.68012 22.5387 1.80631C21.871 2.31218 21.5359 2.56606 21.2318 2.67678C20.9277 2.7875 20.5077 2.8084 19.6711 2.85003C19.4624 2.86043 19.2302 2.87196 18.9694 2.8865C17.565 2.96459 16.4058 3.93725 16.0851 5.30665C16.0255 5.56109 15.9737 5.78787 15.9272 5.99159C15.7409 6.80815 15.6475 7.21812 15.4856 7.49834C15.3237 7.77865 15.0155 8.06459 14.4014 8.63421C14.2483 8.77634 14.0778 8.9345 13.8874 9.11328C12.8619 10.0758 12.599 11.566 13.2335 12.8213C13.3513 13.0543 13.4575 13.2612 13.5527 13.4471C13.9349 14.1925 14.1268 14.5666 14.1831 14.8854C14.2393 15.204 14.1869 15.6212 14.0828 16.4522C14.0568 16.6595 14.0278 16.8904 13.9968 17.1499C13.8299 18.5465 14.5864 19.8569 15.8794 20.4106C16.1196 20.5135 16.3339 20.6038 16.5264 20.6849C16.5849 20.7096 16.6404 20.733 16.6946 20.7559L13.6189 27.3619C13.501 27.6152 13.5337 27.913 13.7036 28.1348C13.8735 28.3565 14.1526 28.4657 14.428 28.4172L17.8229 27.8241L19.5544 30.8037C19.6891 31.0354 19.9364 31.1769 20.2028 31.1769C20.214 31.1769 20.2255 31.1766 20.2368 31.1761C20.516 31.1635 20.7649 30.9967 20.8828 30.7435L23.9437 24.1689C24.4347 24.0213 24.7324 23.947 24.9824 23.947C25.3061 23.947 25.7079 24.0709 26.5083 24.3179C26.6009 24.3465 26.699 24.3768 26.8018 24.4083L28.9956 29.5031ZM31.9277 25.0991C31.62 25.0362 31.3056 25.1715 31.1399 25.4383L29.8048 27.5899L28.5302 24.6303C29.4051 24.5089 30.2058 24.0187 30.7177 23.2359C30.8607 23.0172 30.9868 22.8218 31.1002 22.6463C31.5546 21.9426 31.7826 21.5894 32.0306 21.3813C32.1418 21.2879 32.2816 21.2036 32.4712 21.1095L34.4082 25.607L31.9277 25.0991ZM20.1288 28.8077L18.8567 26.6185C18.6988 26.3469 18.3885 26.2026 18.0792 26.2565L15.5848 26.6922L18.0203 21.4614C18.2379 21.6776 18.4627 22.0254 18.8637 22.6464C18.977 22.8219 19.1032 23.0172 19.2462 23.2359C19.879 24.2037 20.9527 24.725 22.0627 24.6539L20.1288 28.8077ZM24.9819 22.4462C24.4715 22.4462 23.9609 22.5924 23.0137 22.8847C22.8165 22.9455 22.5972 23.0132 22.3502 23.0878C21.6361 23.3035 20.9101 23.0397 20.5015 22.4149C20.3602 22.199 20.2356 22.006 20.1237 21.8327C19.0482 20.1672 18.9355 20.0727 17.1084 19.3027C16.9183 19.2226 16.7067 19.1334 16.4695 19.0317C15.7833 18.7378 15.3972 18.069 15.4857 17.3278C15.5164 17.0716 15.545 16.8435 15.5707 16.6389C15.8173 14.6718 15.7917 14.5269 14.887 12.7625C14.7928 12.5789 14.6881 12.3747 14.5718 12.1445C14.235 11.4783 14.3692 10.7178 14.9135 10.207C15.1017 10.0304 15.27 9.87425 15.4212 9.7339C16.8748 8.3855 16.9483 8.25809 17.3893 6.32525C17.4352 6.12406 17.4863 5.90009 17.5452 5.64875C17.7153 4.922 18.307 4.42559 19.0523 4.38415C19.3099 4.36981 19.5393 4.35837 19.7454 4.34815C21.7256 4.24953 21.8639 4.19918 23.4442 3.0019C23.6086 2.87731 23.7917 2.73856 23.9982 2.58396C24.5959 2.13668 25.368 2.13668 25.9657 2.58396C26.1722 2.73856 26.3553 2.87731 26.5197 3.0019C28.1 4.19918 28.2384 4.24953 30.2186 4.34815C30.4245 4.35837 30.654 4.36981 30.9117 4.38415C31.657 4.42559 32.2485 4.922 32.4188 5.64875C32.4777 5.9 32.5287 6.12397 32.5746 6.32515C33.0156 8.258 33.0891 8.3855 34.5427 9.73381C34.6939 9.87415 34.8623 10.0303 35.0504 10.2069C35.5947 10.7177 35.7287 11.4782 35.3921 12.1444C35.2757 12.3747 35.1709 12.5791 35.0767 12.7627C34.1721 14.5269 34.1465 14.6718 34.3932 16.6391C34.4188 16.8437 34.4475 17.0716 34.4781 17.3277C34.5667 18.0689 34.1805 18.7378 33.4944 19.0317C33.2572 19.1332 33.0455 19.2224 32.8555 19.3026C31.0285 20.0726 30.9158 20.1672 29.8402 21.8326C29.7283 22.006 29.6038 22.1989 29.4625 22.4149C29.054 23.0396 28.3286 23.3038 27.6137 23.0878C27.3668 23.0132 27.1473 22.9454 26.9502 22.8847C26.0028 22.5924 25.4922 22.4462 24.9819 22.4462ZM32.4253 12.7054C32.4253 8.60103 29.0863 5.26193 24.9819 5.26193C20.8776 5.26193 17.5385 8.60103 17.5385 12.7054C17.5385 16.8098 20.8776 20.149 24.9819 20.149C29.0862 20.149 32.4253 16.8099 32.4253 12.7054ZM24.9818 18.649C21.7046 18.649 19.0384 15.9827 19.0384 12.7054C19.0384 9.42818 21.7046 6.76193 24.9818 6.76193C28.259 6.76193 30.9252 9.42818 30.9252 12.7054C30.9253 15.9827 28.259 18.649 24.9818 18.649ZM29.101 10.937L23.9795 15.5848C23.8362 15.7149 23.6558 15.7795 23.4756 15.7795C23.2832 15.7795 23.0912 15.7059 22.9452 15.5598L20.8365 13.4512C20.5437 13.1583 20.5437 12.6835 20.8365 12.3906C21.1295 12.0977 21.6042 12.0977 21.8972 12.3906L23.5006 13.994L28.093 9.82634C28.3996 9.54809 28.874 9.57096 29.1523 9.87772C29.4307 10.1843 29.4077 10.6587 29.101 10.937ZM43.3392 35.5104C44.3278 34.522 44.8299 33.275 44.7912 31.9043L44.4259 19.0106C44.3899 17.7373 43.1241 16.5965 41.7592 16.5965C41.7461 16.5965 41.733 16.5966 41.72 16.5968C41.0541 16.6075 38.8829 16.9662 38.8987 21.1336L38.9254 28.1376C38.9261 28.2977 38.9159 28.4532 38.8951 28.6048C38.8422 28.5417 38.7856 28.4799 38.7253 28.4195C37.7996 27.4939 36.2836 27.4822 35.2739 28.3928C35.2488 28.4154 35.2252 28.4397 35.2034 28.4654C34.0737 29.8012 32.6855 30.9712 31.57 31.9112C31.1787 32.2409 30.8094 32.5523 30.506 32.8257C29.2339 33.9722 29.0641 35.552 29.0658 36.9461L29.0718 41.9341L28.425 41.9286C27.9871 41.9246 27.5744 42.0923 27.2613 42.4C26.9482 42.7077 26.7736 43.1182 26.7699 43.5555L26.7531 45.5067C26.7493 45.944 26.9168 46.3573 27.2246 46.6705C27.5322 46.9836 27.9427 47.1581 28.38 47.1618L38.5159 47.2489C38.5207 47.2489 38.5255 47.249 38.5303 47.249C38.9622 47.249 39.37 47.0818 39.6796 46.7774C39.9927 46.4697 40.1672 46.0593 40.171 45.622L40.1877 43.6708C40.1915 43.2335 40.0241 42.8202 39.7163 42.507C39.4086 42.1939 38.9982 42.0194 38.5608 42.0157L37.7269 42.0086V41.1227L43.3392 35.5104ZM38.6877 43.658L38.671 45.6091C38.6706 45.6562 38.6474 45.6888 38.628 45.7078C38.6087 45.727 38.5785 45.7493 38.5287 45.7491L28.3928 45.662C28.3458 45.6616 28.3132 45.6385 28.2942 45.6191C28.2751 45.5997 28.2525 45.5667 28.253 45.5197L28.2698 43.5686C28.2702 43.5215 28.2933 43.4889 28.3127 43.4698C28.3318 43.451 28.3645 43.4286 28.4107 43.4286H28.412H28.4121L38.548 43.5157C38.6245 43.5164 38.6885 43.5815 38.6877 43.658ZM30.5718 41.9472L30.5658 36.9444C30.5639 35.4167 30.8376 34.5463 31.5103 33.94C31.7951 33.6833 32.1387 33.3937 32.5365 33.0584C33.6833 32.0919 35.1078 30.8914 36.3117 29.4779C36.7327 29.1248 37.3075 29.1232 37.6646 29.4803C38.0446 29.8602 38.0451 30.3123 37.6677 30.824C37.0714 31.4943 36.4444 32.1015 35.7809 32.7435C35.4625 33.0518 35.133 33.3705 34.8008 33.7029C34.5079 33.9957 34.5079 34.4706 34.8009 34.7635C34.9473 34.9099 35.1391 34.9831 35.3311 34.9831C35.5231 34.9831 35.7151 34.9099 35.8615 34.7634C36.185 34.4398 36.5098 34.1254 36.8241 33.8214C37.5173 33.1506 38.1719 32.517 38.8133 31.7935C38.8167 31.7896 39.3156 31.1793 39.3156 31.1793C40.0666 30.2547 40.4296 29.2579 40.4254 28.1321L40.3987 21.128C40.3917 19.2717 40.9072 18.1101 41.744 18.0967C41.7492 18.0966 41.7541 18.0966 41.7592 18.0966C42.3162 18.0966 42.9132 18.5836 42.9265 19.0531L43.2917 31.9468C43.3189 32.9083 42.978 33.7505 42.2786 34.4498L36.4466 40.2818C36.3059 40.4224 36.2269 40.6132 36.2269 40.812V41.9957L30.5718 41.9472ZM28.9913 44.3313C29.1149 44.0202 29.4675 43.8682 29.7787 43.9919C30.0898 44.1156 30.2418 44.4682 30.1182 44.7793C29.9944 45.0905 29.6419 45.2425 29.3307 45.1187C29.0195 44.995 28.8675 44.6425 28.9913 44.3313ZM20.7384 42.4002C20.4252 42.0923 20.0116 41.9254 19.5746 41.9288L18.9279 41.9343L18.9339 36.9462C18.9356 35.5521 18.7658 33.9723 17.4937 32.8258C17.1905 32.5524 16.8209 32.2411 16.4298 31.9115C15.3144 30.9714 13.9261 29.8014 12.7963 28.4656C12.7746 28.4398 12.7511 28.4156 12.7259 28.393C11.7158 27.4824 10.1997 27.4942 9.27453 28.4197C9.21406 28.4801 9.15753 28.5418 9.10466 28.605C9.08375 28.4534 9.07372 28.298 9.07437 28.1379L9.10109 21.1337C9.11684 16.9662 6.94569 16.6077 6.27978 16.5969C6.26666 16.5967 6.25381 16.5966 6.24059 16.5966C4.87569 16.5966 3.60978 17.7375 3.57387 19.0107L3.20862 31.9045C3.16991 33.2752 3.67194 34.5221 4.66044 35.5105L10.2728 41.1229V42.0087L9.43887 42.0159C9.00153 42.0196 8.59109 42.1941 8.28341 42.5072C7.97562 42.8203 7.80819 43.2337 7.81194 43.671L7.82872 45.6222C7.83247 46.0595 8.00694 46.4698 8.32006 46.7776C8.62972 47.082 9.03734 47.2492 9.46944 47.2492C9.47422 47.2492 9.47909 47.2492 9.48378 47.2491L19.6197 47.162C20.057 47.1582 20.4674 46.9838 20.7751 46.6707C21.0829 46.3575 21.2503 45.9442 21.2466 45.5068L21.2298 43.5557C21.2262 43.1184 21.0515 42.7079 20.7384 42.4002ZM11.7728 40.812C11.7728 40.6131 11.6937 40.4224 11.5531 40.2818L5.72103 34.4497C5.02166 33.7504 4.68078 32.9083 4.70797 31.9468L5.07322 19.053C5.08662 18.5792 5.69834 18.0885 6.25569 18.0967C7.0925 18.1101 7.60803 19.2717 7.601 21.1279L7.57428 28.1321C7.57006 29.2579 7.93306 30.2547 8.68541 31.1809L9.16691 31.7704C9.17019 31.7744 9.18312 31.7896 9.1865 31.7935C9.82784 32.517 10.4825 33.1506 11.1757 33.8214C11.4899 34.1255 11.8147 34.4398 12.1383 34.7634C12.2847 34.9098 12.4767 34.9831 12.6687 34.9831C12.8606 34.9831 13.0526 34.9099 13.1989 34.7635C13.4919 34.4706 13.4919 33.9957 13.199 33.7029C12.8667 33.3706 12.5373 33.0518 12.2188 32.7435C11.5554 32.1014 10.9284 31.4943 10.332 30.824C9.95478 30.3124 9.95516 29.8603 10.3352 29.4804C10.6925 29.1232 11.2671 29.1248 11.6882 29.4779C12.892 30.8915 14.3164 32.092 15.4633 33.0585C15.8611 33.3939 16.2047 33.6834 16.4895 33.9402C17.1622 34.5463 17.4358 35.4168 17.434 36.9445L17.428 41.9472L11.7729 41.9958L11.7728 40.812ZM19.7054 45.6192C19.6864 45.6386 19.6538 45.6617 19.6068 45.6621L9.47094 45.7492C9.42303 45.7493 9.39087 45.7271 9.37156 45.7079C9.35216 45.6889 9.329 45.6564 9.32862 45.6092L9.31184 43.6581C9.31137 43.611 9.33397 43.578 9.353 43.5587C9.37203 43.5394 9.40466 43.5162 9.45162 43.5158L19.5874 43.4287H19.5888C19.6351 43.4287 19.6677 43.4511 19.6869 43.4699C19.7063 43.489 19.7294 43.5216 19.7298 43.5686L19.7466 45.5198C19.7471 45.5668 19.7245 45.5997 19.7054 45.6192ZM19.0084 44.3313C19.1322 44.6425 18.9802 44.995 18.669 45.1187C18.3579 45.2425 18.0053 45.0905 17.8816 44.7793C17.7579 44.4682 17.9098 44.1157 18.221 43.9919C18.5322 43.8682 18.8847 44.0202 19.0084 44.3313Z" fill="#0454A7"/>
</svg>
