<svg width="48" height="48" viewBox="0 0 48 48" fill="none" xmlns="http://www.w3.org/2000/svg">
<g clip-path="url(#clip0_126_838)">
<path d="M29.4292 19.5412L22.2172 26.353L18.756 22.7922C18.3722 22.3971 17.7404 22.3881 17.3458 22.7719C16.9507 23.156 16.9417 23.7874 17.3254 24.1824L21.4767 28.4439C21.8624 28.8319 22.4856 28.8452 22.8873 28.4736L30.8199 20.9916C31.0125 20.8099 31.1251 20.5591 31.1325 20.2945C31.1399 20.03 31.0418 19.7733 30.8597 19.581C30.4737 19.1797 29.8372 19.1621 29.4292 19.5412Z" fill="#0454A7"/>
<path d="M24.0773 9.05786C15.8349 9.05786 9.13281 15.76 9.13281 24.0024C9.13281 32.2452 15.8349 38.9473 24.0773 38.9473C32.3201 38.9473 39.0222 32.2452 39.0222 24.0024C39.0222 15.76 32.3201 9.05786 24.0773 9.05786ZM24.0773 36.9467C16.9353 36.9467 11.1334 31.1347 11.1334 24.0024C11.1334 16.8701 16.9353 11.0585 24.0773 11.0585C31.2264 11.0585 37.0216 16.8537 37.0216 24.0024C37.0216 31.1511 31.2264 36.9467 24.0773 36.9467Z" fill="#0454A7"/>
<path d="M44.6439 18.5008L44.9741 12.5689C44.9971 12.1707 44.7807 11.7968 44.4239 11.6186L39.1422 8.94782L36.4714 3.66609C36.2897 3.31246 35.9181 3.09716 35.5211 3.11592L29.579 3.43633L24.6275 0.164993C24.2938 -0.0549977 23.8612 -0.0549977 23.5271 0.164993L18.5756 3.43633L12.6441 3.10615C12.2455 3.0827 11.8719 3.29918 11.6938 3.65632L9.02262 8.93805L3.74128 11.6088C3.38726 11.7901 3.17235 12.1617 3.19111 12.5591L3.5209 18.491L0.249954 23.4426C0.0299633 23.7763 0.0299633 24.2088 0.249954 24.5429L3.51113 29.5042L3.18095 35.4362C3.15789 35.8343 3.37398 36.2083 3.73112 36.3865L9.01285 39.0572L11.6836 44.339C11.8649 44.693 12.2365 44.9079 12.6339 44.8891L18.5658 44.5589L23.5174 47.8299C23.8491 48.0569 24.286 48.0569 24.6177 47.8299L29.5693 44.5589L35.5012 44.8891C35.8994 44.9122 36.2729 44.6957 36.4515 44.339L39.1223 39.0572L44.404 36.3865C44.7576 36.2048 44.9729 35.8336 44.9542 35.4362L44.624 29.5042L47.8949 24.5527C48.1149 24.219 48.1149 23.786 47.8949 23.4524L44.6439 18.5008ZM42.7832 28.6841C42.6613 28.863 42.6046 29.0783 42.6234 29.2944L42.9332 34.9059L37.9418 37.4266C37.7515 37.522 37.5972 37.6767 37.5018 37.867L34.9807 42.8584L29.3692 42.5486C29.1543 42.5407 28.9421 42.5962 28.7589 42.7084L24.0773 45.7996L19.3962 42.7084C19.2336 42.5986 19.0422 42.5392 18.846 42.5384H18.796L13.1841 42.8486L10.6634 37.8569C10.568 37.6666 10.4137 37.5122 10.223 37.4169L5.22143 34.9059L5.53168 29.2944C5.5395 29.0795 5.48362 28.8673 5.37148 28.6841L2.28067 24.0025L5.37148 19.321C5.49378 19.1424 5.55044 18.9267 5.53168 18.711L5.22143 13.0991L10.2132 10.5784C10.4035 10.4831 10.5579 10.3287 10.6532 10.1384L13.1739 5.14663L18.7858 5.45688C19.0003 5.46431 19.2125 5.40882 19.3962 5.29668L24.0773 2.20587L28.7589 5.29668C28.9378 5.41898 29.1535 5.47564 29.3692 5.45688L34.9807 5.14663L37.5018 10.1384C37.5972 10.3287 37.7515 10.4831 37.9418 10.5784L42.9332 13.0991L42.6234 18.711C42.6155 18.9255 42.6714 19.1377 42.7832 19.321L45.8744 24.0025L42.7832 28.6841Z" fill="#0454A7"/>
</g>
<defs>
<clipPath id="clip0_126_838">
<rect width="48" height="48" fill="white"/>
</clipPath>
</defs>
</svg>
