<svg width="48" height="48" viewBox="0 0 48 48" fill="none" xmlns="http://www.w3.org/2000/svg">
<path d="M23.9723 6.98792e-10C23.1119 6.98792e-10 22.2521 0.0462533 21.3966 0.13846C20.6125 0.218552 19.838 0.349903 19.0739 0.509287C18.926 0.540222 18.7781 0.57286 18.6302 0.606999C14.1283 1.63198 10.0176 3.93373 6.79096 7.23624C6.49091 7.54379 6.19717 7.86046 5.90994 8.18613C-2.8061 18.1925 -1.76009 33.3699 8.24634 42.086C17.8262 50.4305 32.2463 49.8753 41.1562 40.8189C41.4568 40.5114 41.7504 40.1947 42.0372 39.869C45.8837 35.4886 48.0034 29.8572 48 24.0276C48 10.7574 37.2424 -0.000100115 23.9723 6.98792e-10ZM7.85859 8.43762C7.98513 8.30627 8.11649 8.18052 8.24543 8.05318C8.39441 7.90661 8.54258 7.75924 8.69475 7.61748C8.82851 7.49253 8.96626 7.37239 9.10322 7.25065C9.2578 7.1137 9.41158 6.97674 9.57016 6.84459C9.70952 6.72685 9.85289 6.61392 9.99545 6.50019C10.1556 6.37204 10.3158 6.24389 10.4808 6.12055C10.6266 6.01083 10.7747 5.9043 10.9237 5.80018C11.0895 5.68165 11.2561 5.55991 11.4251 5.44938C11.5765 5.34686 11.7294 5.24755 11.8832 5.14903C12.0546 5.03931 12.2268 4.93118 12.4006 4.82866C12.5571 4.73526 12.7146 4.64335 12.8732 4.55315C13.0505 4.45223 13.2285 4.35372 13.4074 4.25761C13.5676 4.17221 13.7277 4.08861 13.8879 4.00692C14.0705 3.91481 14.2548 3.82591 14.4398 3.73861C14.6 3.66252 14.7665 3.58643 14.9315 3.51435C15.1198 3.43426 15.3104 3.35416 15.501 3.27407C15.6668 3.20599 15.8318 3.13952 15.9992 3.07544C16.193 3.00176 16.3892 2.93288 16.5854 2.864C16.7528 2.80553 16.9202 2.74707 17.09 2.6918C17.2895 2.62773 17.4905 2.56846 17.6923 2.50999C17.8613 2.46114 18.0287 2.41068 18.1985 2.36502C18.2634 2.34821 18.3282 2.33459 18.3931 2.31777C16.0224 4.61972 14.2631 7.47661 13.2744 10.6297C11.3734 10.1284 9.53312 9.42015 7.78651 8.51771C7.81294 8.48968 7.83536 8.46165 7.85859 8.43762ZM6.70686 9.72711C8.63078 10.7695 10.6709 11.5814 12.7851 12.1459C11.7487 15.7496 11.2046 19.477 11.168 23.2267H1.56494C1.73944 18.2821 3.54762 13.5348 6.70686 9.72711ZM6.70686 38.3281C3.54782 34.5203 1.73964 29.773 1.56494 24.8285H11.168C11.2046 28.5781 11.7486 32.3055 12.7851 35.9093C10.671 36.4739 8.63088 37.2858 6.70686 38.3281ZM18.1937 45.6933C18.0319 45.6525 17.8645 45.5996 17.6979 45.5508C17.4953 45.4915 17.2919 45.4322 17.0916 45.3674C16.9226 45.3129 16.756 45.2544 16.5894 45.196C16.3924 45.1279 16.1954 45.0582 16.0008 44.9837C15.8342 44.9205 15.67 44.854 15.505 44.7867C15.3136 44.7066 15.1222 44.6265 14.9323 44.5464C14.7689 44.4743 14.6064 44.4002 14.4446 44.3238C14.258 44.2357 14.0721 44.146 13.8839 44.0531C13.7237 43.973 13.5636 43.8929 13.4034 43.8056C13.2224 43.7087 13.043 43.6093 12.8636 43.5068C12.7034 43.4179 12.5512 43.3266 12.3966 43.2337C12.2204 43.128 12.0474 43.0191 11.8744 42.9077C11.7222 42.8108 11.5701 42.7123 11.4203 42.6114C11.2497 42.4961 11.0807 42.3759 10.9133 42.2558C10.7667 42.1509 10.6202 42.0459 10.476 41.9354C10.3102 41.8105 10.1476 41.6815 9.98584 41.5518C9.84408 41.4388 9.70311 41.3267 9.56455 41.2106C9.40437 41.0776 9.24979 40.9391 9.09441 40.8013C8.95825 40.6804 8.8213 40.561 8.68834 40.4377C8.53537 40.2951 8.3872 40.147 8.23823 40.0004C8.10928 39.873 7.97793 39.7473 7.85138 39.6167C7.82815 39.5919 7.80573 39.5663 7.7825 39.5423C9.52901 38.6394 11.3693 37.9309 13.2704 37.4294C14.2593 40.5825 16.0185 43.4392 18.3891 45.7414C18.3242 45.7246 18.2586 45.711 18.1937 45.6933ZM23.1714 46.3901C19.7443 45.9032 16.74 42.3263 14.8498 37.0442C17.5826 36.4323 20.3713 36.104 23.1714 36.0646V46.3901ZM23.1714 34.4628C20.201 34.5019 17.2431 34.8547 14.3469 35.5152C13.3412 32.0405 12.8107 28.4456 12.7698 24.8285H23.1714V34.4628ZM23.1714 23.2267H12.7698C12.8106 19.6096 13.3411 16.0147 14.3469 12.5399C17.2431 13.2004 20.2011 13.5532 23.1714 13.5924V23.2267ZM23.1714 11.9905C20.3712 11.9515 17.5826 11.6232 14.8498 11.011C16.74 5.7289 19.7443 2.15198 23.1714 1.66502V11.9905ZM41.2378 9.72711C44.3969 13.5349 46.2051 18.2822 46.3798 23.2267H36.7767C36.7401 19.477 36.1961 15.7496 35.1596 12.1459C37.2737 11.5811 39.3138 10.7693 41.2378 9.72711ZM29.7446 2.36102C29.9128 2.40267 30.0802 2.45553 30.2468 2.50439C30.4494 2.56365 30.6528 2.62292 30.8531 2.6878C31.0221 2.74226 31.1887 2.80073 31.3553 2.85919C31.5523 2.92727 31.7493 2.99695 31.9439 3.07144C32.1105 3.13471 32.2747 3.20119 32.4397 3.26847C32.6311 3.34856 32.8226 3.42865 33.0124 3.50874C33.1758 3.58083 33.3383 3.65501 33.5001 3.7314C33.6867 3.8195 33.8726 3.9092 34.0608 4.00211C34.221 4.0822 34.3811 4.1623 34.5413 4.2496C34.7223 4.34651 34.9017 4.44582 35.0812 4.54834C35.2413 4.63724 35.3935 4.72855 35.5481 4.82146C35.7243 4.92718 35.8973 5.0361 36.0703 5.14743C36.2225 5.24434 36.3746 5.34286 36.5244 5.44377C36.695 5.5591 36.8632 5.67844 37.0306 5.79858C37.178 5.9035 37.3245 6.00922 37.4695 6.11895C37.6345 6.24309 37.7963 6.37204 37.9589 6.50179C38.0998 6.61392 38.2416 6.72605 38.3802 6.84298C38.5403 6.97594 38.6949 7.1145 38.8503 7.25225C38.9865 7.37319 39.1234 7.49253 39.2564 7.61587C39.4093 7.75844 39.5575 7.90661 39.7065 8.05318C39.8354 8.18052 39.9668 8.30627 40.0933 8.43682C40.1166 8.46165 40.139 8.48728 40.1622 8.51131C38.4157 9.41415 36.5754 10.1227 34.6743 10.6241C33.6835 7.47071 31.922 4.61412 29.5492 2.31296C29.6141 2.32978 29.6797 2.3434 29.7446 2.36102ZM24.7733 1.66502C28.2004 2.15198 31.2047 5.7289 33.0949 11.011C30.3621 11.6229 27.5734 11.9512 24.7733 11.9905V1.66502ZM24.7733 13.5924C27.7437 13.5533 30.7016 13.2005 33.5978 12.5399C34.6035 16.0147 35.134 19.6096 35.1749 23.2267H24.7733V13.5924ZM24.7733 24.8285H35.1749C35.1341 28.4456 34.6036 32.0405 33.5978 35.5152C30.7016 34.8548 27.7437 34.5019 24.7733 34.4628V24.8285ZM24.7733 46.3901V36.0646C27.5735 36.1037 30.3621 36.432 33.0949 37.0442C31.2047 42.3263 28.2004 45.9032 24.7733 46.3901ZM40.0861 39.6175C39.9596 39.7481 39.829 39.8738 39.7001 40.0012C39.5511 40.1478 39.4021 40.2959 39.2492 40.4385C39.1162 40.5626 38.9792 40.6788 38.8431 40.8029C38.6877 40.9407 38.5331 41.0784 38.3745 41.2114C38.2344 41.3283 38.0918 41.4412 37.9493 41.555C37.7891 41.6831 37.6289 41.8113 37.4639 41.9346C37.3181 42.0443 37.17 42.1509 37.021 42.255C36.8552 42.3735 36.6886 42.4953 36.5196 42.6058C36.3682 42.7083 36.2153 42.8076 36.0615 42.9053C35.8901 43.0159 35.7174 43.1227 35.5433 43.2257C35.3831 43.3194 35.2301 43.4107 35.0723 43.5012C34.895 43.6021 34.7167 43.7006 34.5373 43.7968C34.3771 43.8822 34.217 43.9658 34.0568 44.0474C33.8742 44.1396 33.6899 44.2285 33.5049 44.3158C33.3447 44.3918 33.1782 44.4679 33.0132 44.54C32.825 44.6201 32.6343 44.7002 32.4437 44.7803C32.2779 44.8476 32.1129 44.9148 31.9463 44.9781C31.7509 45.0526 31.5547 45.1223 31.3577 45.1904C31.1911 45.2488 31.0245 45.3073 30.8555 45.3618C30.6553 45.4266 30.455 45.4859 30.2508 45.5444C30.0834 45.594 29.9152 45.6437 29.7462 45.6893C29.6813 45.7062 29.6165 45.7198 29.5516 45.7366C31.9223 43.4346 33.6816 40.5778 34.6703 37.4246C36.5713 37.926 38.4116 38.6342 40.1582 39.5367C40.1318 39.5655 40.1093 39.5935 40.0861 39.6175ZM41.2378 38.3281C39.3139 37.2857 37.2738 36.4737 35.1596 35.9093C36.196 32.3055 36.7401 28.5781 36.7767 24.8285H46.3798C46.2054 29.773 44.3971 34.5204 41.2378 38.3281Z" fill="#0454A7"/>
</svg>
