<svg width="48" height="48" viewBox="0 0 48 48" fill="none" xmlns="http://www.w3.org/2000/svg">
<path d="M36.75 10.9636L46.677 6.00012L36.75 1.03662V3.00012H22.5V4.50012H38.25V3.46362L43.323 6.00012L38.25 8.53662V7.50012H16.5V9.00012H36.75V10.9636Z" fill="#0454A7"/>
<path d="M19.5 3H21V4.5H19.5V3Z" fill="#0454A7"/>
<path d="M16.5 3H18V4.5H16.5V3Z" fill="#0454A7"/>
<path d="M26.9993 37.0366L17.0723 42.0001L26.9993 46.9636V45.0001H41.2493V43.5001H25.4993V44.5366L20.4263 42.0001L25.4993 39.4636V40.5001H47.2493V39.0001H26.9993V37.0366Z" fill="#0454A7"/>
<path d="M42.75 43.5H44.25V45H42.75V43.5Z" fill="#0454A7"/>
<path d="M45.75 43.5H47.25V45H45.75V43.5Z" fill="#0454A7"/>
<path d="M42.75 30H44.25V31.5H42.75V30Z" fill="#0454A7"/>
<path d="M39.75 30H41.25V31.5H39.75V30Z" fill="#0454A7"/>
<path d="M36.75 30H38.25V31.5H36.75V30Z" fill="#0454A7"/>
<path d="M36.75 27H44.25V28.5H36.75V27Z" fill="#0454A7"/>
<path d="M45 15H39.75H32.25H27.1357C24.276 11.661 20.151 9.75 15.75 9.75C7.479 9.75 0.75 16.479 0.75 24.75C0.75 33.021 7.479 39.75 15.75 39.75C20.151 39.75 24.276 37.839 27.1357 34.5H45C46.2405 34.5 47.25 33.4905 47.25 32.25V17.25C47.25 16.0095 46.2405 15 45 15ZM38.25 16.5V19.5H33.75V16.5H38.25ZM25.5855 15.5145C25.2705 15.7718 25.0275 16.1093 24.888 16.5H20.802C20.3032 14.5103 19.6117 12.789 18.7365 11.5822C21.3458 12.1717 23.7255 13.5315 25.5855 15.5145ZM24.75 31.5H21.1335C21.4965 29.6063 21.7013 27.5467 21.7418 25.5H24.75V31.5ZM15.75 38.25C14.4825 38.25 13.1318 36.2722 12.2445 33H19.2562C18.3682 36.2722 17.0175 38.25 15.75 38.25ZM11.886 31.5C11.5305 29.7555 11.307 27.7283 11.2642 25.5H20.2365C20.1938 27.7283 19.9695 29.7555 19.6147 31.5H11.886ZM2.28825 25.5H9.75825C9.79875 27.5467 10.0035 29.6063 10.3665 31.5H4.077C3.04125 29.7165 2.40825 27.6772 2.28825 25.5ZM15.75 11.25C17.0175 11.25 18.3682 13.2278 19.2555 16.5H12.2438C13.1318 13.2278 14.4825 11.25 15.75 11.25ZM19.614 18C19.9695 19.7445 20.193 21.7718 20.2358 24H11.2642C11.307 21.7718 11.5312 19.7445 11.886 18H19.614ZM9.75825 24H2.28825C2.409 21.8228 3.04125 19.7835 4.077 18H10.3665C10.0035 19.8938 9.79875 21.9532 9.75825 24ZM24.75 24H21.7418C21.7013 21.9532 21.4965 19.8938 21.1335 18H24.75V24ZM12.753 11.5965C11.883 12.8025 11.1945 14.5178 10.698 16.5H5.088C6.972 14.0707 9.6585 12.3022 12.753 11.5965ZM5.088 33H10.698C11.1945 34.9823 11.8822 36.6975 12.753 37.9027C9.6585 37.1977 6.972 35.4293 5.088 33ZM18.7365 37.9177C19.6117 36.711 20.3032 34.9897 20.802 33H24.888C25.0275 33.3908 25.2697 33.7282 25.5855 33.9855C23.7255 35.9685 21.3458 37.3282 18.7365 37.9177ZM45.75 32.25C45.75 32.664 45.4132 33 45 33H27C26.5868 33 26.25 32.664 26.25 32.25V17.25C26.25 16.8368 26.5868 16.5 27 16.5H32.25V21H39.75V16.5H45C45.4132 16.5 45.75 16.8368 45.75 17.25V32.25Z" fill="#0454A7"/>
<path d="M12.75 27H14.25V28.5H12.75V27Z" fill="#0454A7"/>
<path d="M15.75 27H17.25V28.5H15.75V27Z" fill="#0454A7"/>
<path d="M17.25 21H18.75V22.5H17.25V21Z" fill="#0454A7"/>
<path d="M14.25 21H15.75V22.5H14.25V21Z" fill="#0454A7"/>
</svg>
