<svg width="48" height="48" viewBox="0 0 48 48" fill="none" xmlns="http://www.w3.org/2000/svg">
<path d="M35.9935 33.759C35.8375 33.759 35.6785 33.7095 35.5435 33.6075C35.212 33.3585 35.146 32.889 35.395 32.5575C37.2625 30.075 38.2495 27.1155 38.2495 24C38.2495 23.022 38.149 22.0425 37.951 21.09C37.867 20.6835 38.128 20.2875 38.533 20.2035C38.9365 20.1195 39.3355 20.3805 39.4195 20.7855C39.6385 21.8385 39.7495 22.92 39.7495 24C39.7495 27.4425 38.6575 30.7155 36.5935 33.4605C36.445 33.657 36.22 33.759 35.9935 33.759Z" fill="#0454A7"/>
<path d="M9.324 27.876C8.9775 27.876 8.6655 27.633 8.5905 27.2805C8.3655 26.205 8.25 25.101 8.25 24C8.25 20.5725 9.3315 17.313 11.379 14.577C11.6265 14.244 12.0975 14.175 12.429 14.4255C12.7605 14.6745 12.8295 15.144 12.5805 15.4755C10.728 17.9505 9.75 20.898 9.75 24C9.75 24.9975 9.8535 25.998 10.059 26.9715C10.1445 27.3765 9.885 27.774 9.48 27.8595C9.4275 27.8715 9.375 27.876 9.324 27.876Z" fill="#0454A7"/>
<path d="M26.25 31.5H21.75C21.336 31.5 21 31.164 21 30.75V27H17.25C16.836 27 16.5 26.664 16.5 26.25V21.75C16.5 21.336 16.836 21 17.25 21H21V17.25C21 16.836 21.336 16.5 21.75 16.5H26.25C26.664 16.5 27 16.836 27 17.25V21H30.75C31.164 21 31.5 21.336 31.5 21.75V26.25C31.5 26.664 31.164 27 30.75 27H27V30.75C27 31.164 26.664 31.5 26.25 31.5ZM22.5 30H25.5V26.25C25.5 25.836 25.836 25.5 26.25 25.5H30V22.5H26.25C25.836 22.5 25.5 22.164 25.5 21.75V18H22.5V21.75C22.5 22.164 22.164 22.5 21.75 22.5H18V25.5H21.75C22.164 25.5 22.5 25.836 22.5 26.25V30Z" fill="#0454A7"/>
<path d="M27.2115 44.9999H19.35C17.8845 44.9999 16.4535 44.6729 15.096 44.0279L9.8415 41.4749C8.4945 40.8284 7.059 40.4999 5.5815 40.4999H2.25C1.836 40.4999 1.5 40.1639 1.5 39.7499C1.5 39.3359 1.836 38.9999 2.25 38.9999H5.5815C7.2855 38.9999 8.9385 39.3779 10.494 40.1249L15.747 42.6764C16.896 43.2209 18.1095 43.4999 19.35 43.4999H27.0615L33.612 40.7969C33.612 40.7339 33.7005 40.1534 33.4125 39.6599C32.973 38.9039 31.9575 38.8799 31.188 38.9924C30.0705 39.1649 29.1465 39.4754 28.332 39.7499L28.023 39.8534C27.6285 39.9809 27.2055 39.7724 27.075 39.3779C26.9445 38.9849 27.1575 38.5604 27.5505 38.4299L27.8535 38.3294C28.7265 38.0354 29.715 37.7024 30.966 37.5104C34.059 37.0604 34.8315 38.9924 34.998 39.5939C35.2725 40.5854 35.0445 41.8259 34.188 42.1844L27.4965 44.9459C27.4065 44.9804 27.309 44.9999 27.2115 44.9999Z" fill="#0454A7"/>
<path d="M17.4525 34.3155C17.1705 34.3155 16.899 34.155 16.7715 33.882C15.3015 30.7185 11.4825 30.2655 8.643 31.443C8.5515 31.4805 8.454 31.5 8.355 31.5H2.25C1.836 31.5 1.5 31.164 1.5 30.75C1.5 30.336 1.836 30 2.25 30H8.2095C12.27 28.3875 16.5135 29.772 18.1335 33.2505C18.3075 33.6255 18.1455 34.0725 17.769 34.248C17.6655 34.293 17.559 34.3155 17.4525 34.3155Z" fill="#0454A7"/>
<path d="M24.5608 41.4344C24.4633 41.4344 24.3658 41.4149 24.2743 41.3774L15.6853 37.8119C15.3028 37.6529 15.1213 37.2149 15.2803 36.8309C15.4393 36.4484 15.8788 36.2684 16.2613 36.4259L24.0958 39.6779C24.4243 38.1314 23.5783 36.9284 21.5683 36.0959L17.1538 34.2629C16.7713 34.1039 16.5898 33.6644 16.7488 33.2819C16.9078 32.8994 17.3473 32.7179 17.7298 32.8769L22.1428 34.7099C25.2343 35.9909 26.3683 38.2724 25.2538 40.9679C25.1773 41.1524 25.0318 41.2994 24.8473 41.3744C24.7558 41.4149 24.6583 41.4344 24.5608 41.4344Z" fill="#0454A7"/>
<path d="M16.1571 10.5585C13.7976 10.5585 13.1526 8.9475 13.0026 8.4075C12.7281 7.416 12.9561 6.1755 13.8126 5.817L20.5041 3.0555C20.5941 3.0195 20.6916 3 20.7891 3H28.6491C30.1146 3 31.5456 3.327 32.9031 3.972L38.1576 6.525C39.5061 7.1715 40.9416 7.5 42.4191 7.5H45.7506C46.1646 7.5 46.5006 7.836 46.5006 8.25C46.5006 8.664 46.1646 9 45.7506 9H42.4191C40.7151 9 39.0621 8.622 37.5066 7.875L32.2536 5.325C31.1046 4.779 29.8911 4.5 28.6506 4.5H20.9391L14.3871 7.203C14.3871 7.266 14.2986 7.8465 14.5866 8.34C15.0276 9.096 16.0401 9.12 16.8111 9.0075C17.9286 8.835 18.8526 8.5245 19.6671 8.25L19.9761 8.1465C20.3706 8.0175 20.7936 8.2275 20.9241 8.622C21.0546 9.015 20.8416 9.4395 20.4486 9.57L20.1456 9.6705C19.2726 9.9645 18.2841 10.2975 17.0331 10.4895C16.7181 10.5375 16.4256 10.5585 16.1571 10.5585Z" fill="#0454A7"/>
<path d="M36.3887 18.6675C33.5537 18.6675 31.0307 17.2515 29.8667 14.7495C29.6927 14.3745 29.8547 13.9275 30.2312 13.752C30.6077 13.578 31.0532 13.7415 31.2287 14.1165C32.6972 17.2785 36.5147 17.73 39.3572 16.5555C39.4487 16.5195 39.5462 16.5 39.6452 16.5H45.7502C46.1642 16.5 46.5002 16.836 46.5002 17.25C46.5002 17.664 46.1642 18 45.7502 18H39.7907C38.6507 18.4515 37.4957 18.6675 36.3887 18.6675Z" fill="#0454A7"/>
<path d="M30.559 15.1799C30.463 15.1799 30.3655 15.1619 30.271 15.1229L25.858 13.2899C22.7665 12.0089 21.6325 9.72742 22.747 7.03192C22.8235 6.84742 22.969 6.70042 23.1535 6.62542C23.338 6.55042 23.5435 6.54892 23.728 6.62542L32.317 10.1909C32.6995 10.3499 32.881 10.7879 32.722 11.1719C32.563 11.5559 32.1265 11.7344 31.741 11.5769L23.9065 8.32492C23.578 9.87142 24.424 11.0744 26.434 11.9069L30.8485 13.7399C31.231 13.8989 31.4125 14.3384 31.2535 14.7209C31.132 15.0059 30.853 15.1799 30.559 15.1799Z" fill="#0454A7"/>
<path d="M33.7719 36.0525C33.5799 36.0525 33.3879 35.979 33.2409 35.8335C32.9484 35.541 32.9484 35.0655 33.2409 34.773C33.5349 34.4805 34.0614 34.428 34.3539 34.7205C34.6464 35.013 34.6989 35.436 34.4064 35.7285L34.3014 35.8335C34.1559 35.979 33.9639 36.0525 33.7719 36.0525Z" fill="#0454A7"/>
<path d="M14.2717 13.5525C14.0782 13.5525 13.8847 13.4775 13.7377 13.329C13.4467 13.0335 13.4497 12.5595 13.7452 12.2685L13.8517 12.1635C14.1457 11.8725 14.6212 11.8755 14.9122 12.171C15.2032 12.4665 15.2002 12.9405 14.9047 13.2315L14.7982 13.3365C14.6527 13.4805 14.4622 13.5525 14.2717 13.5525Z" fill="#0454A7"/>
</svg>
