<svg width="48" height="48" viewBox="0 0 48 48" fill="none" xmlns="http://www.w3.org/2000/svg">
<g clip-path="url(#clip0_149_1457)">
<path d="M1.9888 19.8029C1.00767 19.962 0.248709 20.7486 0.124795 21.7349C-0.03995 23.2286 -0.0416086 24.7359 0.119977 26.23C0.232598 27.2315 0.996221 28.0366 1.99038 28.202L4.53595 28.6188C5.02465 30.7003 5.84964 32.6883 6.97829 34.5043L5.47995 36.5971C4.88289 37.4066 4.89734 38.5145 5.51518 39.3083C5.99204 39.8917 6.49946 40.4496 7.03516 40.9795C7.52639 41.4716 8.06951 41.966 8.72154 42.5139C9.50902 43.1195 10.6017 43.1321 11.4031 42.5451L13.5063 41.0363C15.3204 42.1648 17.3064 42.99 19.3862 43.4795L19.8038 46.0291C19.9626 47.0105 20.7493 47.7699 21.7358 47.8938C22.1918 47.945 22.655 47.981 23.1214 48.0002H23.1894C23.6063 47.9999 24.0073 47.8395 24.3094 47.5522C24.6235 47.2521 24.8007 46.8363 24.7997 46.4018V39.9907C24.795 39.134 24.1188 38.4318 23.2629 38.3947C15.6059 37.9949 9.60244 31.6699 9.60244 24.0024C9.60244 16.335 15.6059 10.0099 23.2629 9.61016C24.1201 9.57257 24.7967 8.86825 24.7997 8.01017V1.60226C24.801 1.16734 24.6234 0.751132 24.3085 0.4511C23.9942 0.142697 23.5651 -0.0200736 23.1253 0.00227674C22.6597 0.0206783 22.1981 0.0542433 21.7245 0.102261C20.7385 0.229334 19.9556 0.993352 19.8045 1.97582L19.3877 4.52297C17.3079 5.01278 15.3219 5.83824 13.5078 6.96697L11.4046 5.46137C10.5958 4.86991 9.49251 4.88752 8.70306 5.50457C8.12306 5.97937 7.56793 6.48372 7.0399 7.01578C6.49567 7.54777 5.98335 8.11142 5.50554 8.70375C4.89513 9.49225 4.87949 10.5893 5.46716 11.3949L6.97513 13.5005C5.84743 15.3164 5.02355 17.3041 4.53595 19.3853L1.9888 19.8029ZM5.98319 20.2492C6.44828 17.9897 7.34056 15.8398 8.612 13.9149C8.7942 13.6381 8.78685 13.2777 8.5936 13.0085L6.76885 10.4606C6.60015 10.2379 6.59526 9.93167 6.75684 9.70375C7.19532 9.16031 7.66578 8.64341 8.16563 8.15573C8.65117 7.66528 9.16112 7.19956 9.69358 6.76053C9.92277 6.58583 10.2404 6.58583 10.4696 6.76053L13.0136 8.58615C13.2831 8.77893 13.6435 8.78557 13.92 8.60297C15.8432 7.33106 17.992 6.43846 20.2504 5.97337C20.575 5.90648 20.8248 5.64617 20.8784 5.31897L21.3815 2.23818C21.4177 1.96184 21.6299 1.7415 21.9048 1.69498C22.3279 1.65099 22.7568 1.61979 23.2 1.60218L23.1824 8.01089C14.6653 8.44589 7.98414 15.4809 7.98888 24.0091C7.99354 32.5373 14.6824 39.5649 23.2 39.9905L23.1888 46.4017C22.7591 46.384 22.3336 46.3505 21.9136 46.3033C21.6375 46.2629 21.4211 46.0452 21.3824 45.7688L20.8784 42.6865C20.8248 42.3593 20.5751 42.099 20.2504 42.0321C17.992 41.5666 15.8432 40.6738 13.92 39.4017C13.6434 39.2192 13.283 39.2263 13.0136 39.4193L10.4672 41.2465C10.2501 41.4153 9.94836 41.4235 9.72241 41.2665C9.13443 40.7713 8.62479 40.3065 8.16563 39.848C7.6751 39.3634 7.20969 38.854 6.77122 38.3217C6.59865 38.0912 6.59865 37.7746 6.77122 37.5441L8.59439 34.9985C8.78741 34.7292 8.79444 34.3687 8.612 34.0921C7.34048 32.1676 6.4482 30.0178 5.98319 27.7586C5.91638 27.4341 5.65646 27.1844 5.32958 27.1305L2.24958 26.6257C1.96289 26.5783 1.74279 26.3458 1.7112 26.0569C1.56138 24.6809 1.56296 23.2926 1.71601 21.917C1.75582 21.6406 1.97316 21.4236 2.24958 21.3842L5.32871 20.8802C5.65686 20.8265 5.9174 20.5753 5.98319 20.2492Z" fill="#0454A7"/>
<path d="M45.5991 21.6018C44.5857 21.6059 43.6842 22.2463 43.3463 23.2017H24.7993V20.8017H37.5992C38.9247 20.8017 39.9992 19.7272 39.9992 18.4018V14.2547C41.1012 13.8651 41.7622 12.7381 41.5646 11.5861C41.3669 10.4341 40.368 9.59196 39.1991 9.59196C38.0303 9.59196 37.0314 10.4341 36.8337 11.5861C36.636 12.7381 37.2971 13.8651 38.3991 14.2547V18.4018C38.3991 18.8436 38.0409 19.2018 37.5991 19.2018H24.7993V16.8018H33.5992C34.041 16.8018 34.3992 16.4436 34.3992 16.0018C34.3992 15.5599 34.041 15.2017 33.5992 15.2017H24.7993V13.6018H29.5993C30.9248 13.6018 31.9993 12.5273 31.9993 11.2017V6.25473C33.1014 5.86514 33.7624 4.73823 33.5647 3.5862C33.367 2.43417 32.3681 1.59204 31.1993 1.59204C30.0304 1.59204 29.0315 2.43417 28.8339 3.5862C28.6362 4.73823 29.2972 5.86514 30.3993 6.25473V11.2019C30.3993 11.6437 30.0411 12.0019 29.5992 12.0019H24.5881C24.3129 11.4904 23.7636 11.1874 23.1841 11.2276C16.4426 11.6546 11.1934 17.2468 11.1934 24.0018C11.1934 30.7569 16.4426 36.3491 23.1841 36.7761H23.2777C23.8242 36.7807 24.3285 36.4827 24.5881 36.0018H29.5992C30.041 36.0018 30.3993 36.3599 30.3993 36.8018V41.749C29.2972 42.1386 28.6362 43.2655 28.8339 44.4175C29.0315 45.5695 30.0304 46.4117 31.1993 46.4117C32.3681 46.4117 33.367 45.5695 33.5647 44.4175C33.7624 43.2655 33.1014 42.1386 31.9993 41.749V36.8018C31.9993 35.4763 30.9248 34.4018 29.5993 34.4018H24.7993V32.8018H33.5992C34.041 32.8018 34.3992 32.4436 34.3992 32.0018C34.3992 31.5601 34.041 31.2018 33.5992 31.2018H24.7993V28.8019H37.5992C38.041 28.8019 38.3993 29.16 38.3993 29.6018V33.749C37.2972 34.1386 36.6362 35.2655 36.8339 36.4175C37.0315 37.5695 38.0304 38.4117 39.1993 38.4117C40.3681 38.4117 41.367 37.5695 41.5647 36.4175C41.7624 35.2655 41.1014 34.1386 39.9993 33.749V29.6018C39.9993 28.2764 38.9248 27.2019 37.5994 27.2019H24.7993V24.8017H43.3463C43.7551 25.9494 44.9601 26.6075 46.1467 26.3313C47.3332 26.055 48.1236 24.9323 47.9835 23.7221C47.8433 22.512 46.8174 21.5996 45.5991 21.6018ZM39.1992 11.2019C39.641 11.2019 39.9992 11.5601 39.9992 12.0019C39.9992 12.4438 39.641 12.802 39.1992 12.802C38.7574 12.802 38.3993 12.4438 38.3993 12.0019C38.3993 11.5601 38.7573 11.2019 39.1992 11.2019ZM31.1993 3.20198C31.6411 3.20198 31.9993 3.56013 31.9993 4.00201C31.9993 4.44388 31.6412 4.80196 31.1993 4.80196C30.7574 4.80196 30.3993 4.4438 30.3993 4.00201C30.3993 3.56021 30.7574 3.20198 31.1993 3.20198ZM31.1993 44.8016C30.7575 44.8016 30.3993 44.4434 30.3993 44.0015C30.3993 43.5597 30.7575 43.2015 31.1993 43.2015C31.6411 43.2015 31.9993 43.5597 31.9993 44.0015C31.9993 44.4434 31.6411 44.8016 31.1993 44.8016ZM39.1992 36.8016C38.7574 36.8016 38.3993 36.4435 38.3993 36.0016C38.3993 35.5597 38.7574 35.2017 39.1992 35.2017C39.641 35.2017 39.9992 35.5598 39.9992 36.0016C39.9992 36.4434 39.641 36.8016 39.1992 36.8016ZM12.7994 24.0018C12.8061 18.1293 17.3424 13.2568 23.1994 12.8307V35.1729C17.3424 34.7468 12.8061 29.8741 12.7994 24.0018ZM45.5991 24.8017C45.1573 24.8017 44.7991 24.4436 44.7991 24.0017C44.7991 23.5598 45.1573 23.2017 45.5991 23.2017C46.041 23.2017 46.3992 23.5599 46.3992 24.0017C46.3992 24.4435 46.0409 24.8017 45.5991 24.8017Z" fill="#0454A7"/>
</g>
<defs>
<clipPath id="clip0_149_1457">
<rect width="48" height="48" fill="white"/>
</clipPath>
</defs>
</svg>
