<svg width="48" height="48" viewBox="0 0 48 48" fill="none" xmlns="http://www.w3.org/2000/svg">
<path d="M48 30.0244C48 27.9694 46.3266 27.1054 44.8502 26.3431C44.6534 26.2416 44.4549 26.1391 44.258 26.033L42.7617 25.2272L42.6171 23.7825C44.0055 22.8616 44.9233 21.2852 44.9233 19.4978V18.1317H46.0322V16.7255H44.9233V16.6539C44.9233 14.0591 42.9896 11.9085 40.4878 11.5646V10.4787H39.0816V11.5646C36.5798 11.9086 34.6461 14.0591 34.6461 16.6539V16.7255H33.5372V18.1317H34.6461V19.4978C34.6461 21.2851 35.5639 22.8615 36.9523 23.7825L36.8077 25.2272L35.3114 26.033C35.1148 26.1388 34.9167 26.2412 34.7203 26.3426C34.3117 26.5536 33.8926 26.7702 33.5033 27.0111C33.4982 27.0086 33.493 27.0059 33.488 27.0033C33.3097 26.9137 33.1304 26.8236 32.9518 26.7317L28.0066 24.1841L27.7627 21.7485C29.7727 20.4903 31.113 18.2575 31.113 15.7163V14.0819H32.7892V9.86318H31.3829C31.3829 6.57003 29.1598 3.66199 26.0317 2.76603C25.7836 1.87709 24.967 1.2229 24.0001 1.2229C23.0337 1.2229 22.2176 1.87634 21.969 2.76453C20.7741 3.10549 19.6843 3.74365 18.7943 4.62865L19.7859 5.62578C20.3894 5.02568 21.106 4.56603 21.8907 4.27024V9.86328H18.0235C18.0235 8.71409 18.3506 7.59818 18.9695 6.63603L17.7867 5.87534C17.0217 7.06484 16.6173 8.44381 16.6173 9.86328H15.211V14.082H16.8873V15.7164C16.8873 18.2575 18.2276 20.4903 20.2375 21.7486L19.9937 24.1841L15.0485 26.7318C14.8697 26.8239 14.6902 26.9141 14.5117 27.0038C14.5067 27.0062 14.5017 27.0087 14.4968 27.0113C14.1076 26.7704 13.6885 26.5538 13.2799 26.3427C13.0835 26.2413 12.8854 26.139 12.6887 26.0331L11.1924 25.2273L11.0478 23.7826C12.4363 22.8617 13.354 21.2852 13.354 19.4979V18.1318H14.4629V16.7256H13.354V16.654C13.354 14.0591 11.4203 11.9086 8.91844 11.5647V10.4788H7.51219V11.5647C5.01037 11.9087 3.07669 14.0591 3.07669 16.654V16.7256H1.96781V18.1318H3.07669V19.4979C3.07669 21.2852 3.99441 22.8616 5.38294 23.7826L5.23828 25.2273L3.74203 26.0331C3.54506 26.1391 3.34659 26.2416 3.14991 26.3432C1.67344 27.1054 0 27.9693 0 30.0244V38.194H11.3122L24.0001 46.7771L30.0478 42.6859L29.2599 41.5211L24.7033 44.6036V28.3109L27.4403 30.2936L30.4384 27.0189L32.3078 27.982C32.4906 28.0761 32.6741 28.1683 32.8567 28.26C34.6627 29.1675 35.7696 29.795 35.7696 31.1996L35.7695 37.1176L30.4249 40.7332L31.2127 41.8979L36.6881 38.1941H48V30.0244ZM29.9767 9.86328H26.1095V4.27184C28.3943 5.13734 29.9767 7.36315 29.9767 9.86328ZM23.2969 3.33237C23.2969 2.94462 23.6122 2.62924 24 2.62924C24.3878 2.62924 24.7031 2.94462 24.7031 3.33237V9.86328H23.2969V3.33237ZM16.6172 11.2695H31.3828V12.6758H16.6172V11.2695ZM18.2934 15.7164V14.082H29.7067V15.7164C29.7067 18.863 27.1467 21.423 24.0001 21.423C20.8535 21.423 18.2934 18.8631 18.2934 15.7164ZM24.0001 22.8293C24.8477 22.8293 25.6608 22.6796 26.4153 22.4065L26.6039 24.2905L24.0001 26.0802L21.3963 24.2905L21.5849 22.4065C22.3394 22.6796 23.1525 22.8293 24.0001 22.8293ZM22.7807 26.9485L20.7504 28.4191L18.8573 26.3515L20.6033 25.4519L22.7807 26.9485ZM4.48294 16.654C4.48294 14.8363 5.78925 13.3188 7.51219 12.9889V14.6976H8.91844V12.9888C10.6415 13.3187 11.9478 14.8362 11.9478 16.6539V16.7255H4.48294V16.654ZM4.48294 19.4979V18.1318H11.9478V19.4979C11.9478 21.556 10.2734 23.2303 8.21531 23.2303C6.15731 23.2303 4.48294 21.556 4.48294 19.4979ZM8.21531 24.6366C8.73075 24.6366 9.22828 24.5594 9.69806 24.4176L9.79922 25.4282L8.21531 27.1736L6.63141 25.4282L6.73256 24.4176C7.20234 24.5594 7.69997 24.6366 8.21531 24.6366ZM3.795 27.5927C3.99891 27.4874 4.20469 27.3811 4.40878 27.2712L5.74969 26.5491L7.51219 28.4912V30.4964H1.40625V30.0243C1.40625 28.8838 2.31394 28.3573 3.795 27.5927ZM10.8245 31.9028V33.309H8.91844V31.9028H10.8245ZM7.51219 33.309H1.40625V31.9028H7.51219V33.309ZM1.40625 36.7877V34.7154H7.51219V36.7877H1.40625ZM8.91844 34.7153H10.8245V36.7876H8.91844V34.7153ZM10.8897 30.4965H8.91844V28.4913L10.6809 26.5492L12.0218 27.2713C12.2256 27.381 12.431 27.4871 12.6346 27.5922C12.7702 27.6623 12.9035 27.7312 13.0341 27.8C12.0083 28.4304 11.129 29.2359 10.8897 30.4965ZM12.2307 31.1996C12.2307 29.7947 13.3373 29.1674 15.1429 28.2603C15.3256 28.1685 15.5093 28.0762 15.6923 27.9819L17.5618 27.0188L20.5598 30.2935L23.2969 28.3108V44.6036L12.2308 37.1175L12.2307 31.1996ZM27.2498 28.4191L25.2195 26.9485L27.3967 25.4518L29.1427 26.3514L27.2498 28.4191ZM36.0522 16.654C36.0522 14.8363 37.3585 13.3188 39.0815 12.9889V14.6976H40.4877V12.9889C42.2107 13.3188 43.517 14.8363 43.517 16.654V16.7256H36.0521V16.654H36.0522ZM36.0522 19.4979V18.1318H43.5171V19.4979C43.5171 21.556 41.8427 23.2303 39.7847 23.2303C37.7267 23.2303 36.0522 21.556 36.0522 19.4979ZM39.7847 24.6366C40.3001 24.6366 40.7977 24.5594 41.2674 24.4176L41.3948 25.6895C41.3787 26.3008 40.6486 26.8136 39.7847 26.8136C38.9208 26.8136 38.1907 26.3008 38.1747 25.6895L38.302 24.4177C38.7717 24.5594 39.2692 24.6366 39.7847 24.6366ZM46.5938 36.7877H37.1756L37.1757 31.1996C37.1757 29.5218 36.1711 28.5407 34.9659 27.7999C35.0965 27.7311 35.2299 27.6622 35.3654 27.5922C35.5689 27.487 35.7743 27.3809 35.9781 27.2712L37.0282 26.7057C37.4992 27.5969 38.5571 28.2199 39.7846 28.2199C41.0121 28.2199 42.07 27.5969 42.5409 26.7057L43.5911 27.2712C43.7952 27.3812 44.001 27.4875 44.205 27.5928C45.6861 28.3573 46.5938 28.8838 46.5938 30.0244V36.7877Z" fill="#0454A7"/>
<path d="M32.957 34.0122H34.3633V35.4185H32.957V34.0122Z" fill="#0454A7"/>
<path d="M32.957 31.1997H34.3633V32.606H32.957V31.1997Z" fill="#0454A7"/>
</svg>
