<svg width="64" height="64" viewBox="0 0 64 64" fill="none" xmlns="http://www.w3.org/2000/svg">
<path d="M7.8096 37.7004L0.9741 18.6987C0.856725 18.3676 1.0311 18.001 1.36222 17.88C4.97922 16.5807 8.75297 15.3099 12.5623 14.0285M48.815 51.1666L26.9772 59.0157L17.3933 62.4615C17.0623 62.5826 16.6956 62.4081 16.5746 62.0771L9.24785 41.6979" stroke="#0454A7" stroke-width="2" stroke-miterlimit="10" stroke-linecap="round" stroke-linejoin="round"/>
<path d="M53.1335 50.4263L30.4556 54.3136L20.416 56.0364C20.0707 56.0933 19.7361 55.8584 19.6755 55.5131L15.9695 33.8881L11.886 10.0808C11.8255 9.73206 12.0605 9.40093 12.4057 9.34043L23.848 7.37906" stroke="#0454A7" stroke-width="2" stroke-miterlimit="10" stroke-linecap="round" stroke-linejoin="round"/>
<path d="M23.8479 26.8683V1.66564C23.8479 1.29902 24.147 1.00002 24.5137 1.00002H54.2798H54.7782C54.981 1.00002 55.038 1.08189 55.3834 1.40939L62.6852 8.37215C62.9807 8.66052 63.0625 8.69252 63.0625 8.88477V9.29765V39.0033V49.757C63.0625 50.1236 62.7635 50.4263 62.3969 50.4263H35.1407H24.5137C24.147 50.4263 23.8479 50.1236 23.8479 49.757V31.2181" stroke="#0454A7" stroke-width="2" stroke-miterlimit="10" stroke-linecap="round" stroke-linejoin="round"/>
<path d="M54.2798 0.999989L54.294 7.60324C54.294 9.08049 55.6469 8.98786 56.2983 8.98786H63.0625" stroke="#0454A7" stroke-width="2" stroke-miterlimit="10" stroke-linecap="round" stroke-linejoin="round"/>
<path d="M57.0458 14.6194H30.2417" stroke="#0454A7" stroke-width="2" stroke-miterlimit="10" stroke-linecap="round" stroke-linejoin="round"/>
<path d="M57.0458 21.2795H30.2417" stroke="#0454A7" stroke-width="2" stroke-miterlimit="10" stroke-linecap="round" stroke-linejoin="round"/>
<path d="M57.0458 27.9397H30.2417" stroke="#0454A7" stroke-width="2" stroke-miterlimit="10" stroke-linecap="round" stroke-linejoin="round"/>
<path d="M57.0458 34.5999H30.2417" stroke="#0454A7" stroke-width="2" stroke-miterlimit="10" stroke-linecap="round" stroke-linejoin="round"/>
<path d="M57.0458 41.26H30.2417" stroke="#0454A7" stroke-width="2" stroke-miterlimit="10" stroke-linecap="round" stroke-linejoin="round"/>
</svg>
