<svg width="62" height="64" viewBox="0 0 62 64" fill="none" xmlns="http://www.w3.org/2000/svg">
<path d="M43.1458 18.9118C39.9188 15.766 35.5234 14.0334 30.7693 14.0334C26.0153 14.0334 21.6198 15.766 18.3928 18.9118C15.1666 22.057 13.3899 26.3333 13.3899 30.9532C13.3899 35.884 15.5822 40.5888 19.4047 43.8616C21.4077 45.5763 22.6719 47.9478 23.0941 50.7529C22.0667 51.3558 21.3758 52.4654 21.3758 53.7326V54.7696C21.3758 56.3454 22.4441 57.6778 23.9 58.0943C23.7057 58.5249 23.5967 59.0012 23.5967 59.5027V60.5397C23.5967 62.4478 25.1623 64.0002 27.0867 64.0002H34.452C36.3764 64.0002 37.9421 62.4478 37.9421 60.5397V59.5027C37.9421 59.0012 37.8331 58.5248 37.6388 58.0943C39.0946 57.6778 40.163 56.3455 40.163 54.7696V53.7326C40.163 52.4654 39.4721 51.3558 38.4447 50.7529C38.867 47.9478 40.1312 45.5763 42.1341 43.8616C45.9566 40.5889 48.1489 35.8841 48.1489 30.9532C48.1489 26.3333 46.372 22.057 43.1458 18.9118ZM35.7541 60.5396C35.7541 61.2412 35.17 61.812 34.452 61.812H27.0866C26.3686 61.812 25.7846 61.2412 25.7846 60.5396V59.5026C25.7846 58.8009 26.3686 58.23 27.0866 58.23H34.4519C35.1699 58.23 35.7539 58.8008 35.7539 59.5026L35.7541 60.5396ZM37.9748 54.7695C37.9748 55.4711 37.3907 56.0419 36.6728 56.0419H34.4519H27.0866H24.8657C24.1478 56.0419 23.5637 55.4711 23.5637 54.7695V53.7325C23.5637 53.0308 24.1478 52.46 24.8657 52.46H36.6728C37.3907 52.46 37.9748 53.0308 37.9748 53.7325V54.7695ZM27.3764 36.5467H25.2064C24.3288 36.5467 23.615 35.8475 23.615 34.9881C23.615 34.1288 24.3288 33.4294 25.2064 33.4294H25.785C26.6625 33.4294 27.3764 34.1286 27.3764 34.9881V36.5467ZM32.0526 50.2719H29.5644V38.7347H32.0526V50.2719ZM40.7111 42.1993C38.3369 44.2319 36.8291 47.0078 36.3056 50.2719H34.2405V38.7347H36.4462C38.5301 38.7347 40.2256 37.0539 40.2256 34.9881C40.2256 32.9222 38.5301 31.2414 36.4462 31.2414H35.8319C33.7479 31.2414 32.0525 32.9222 32.0525 34.9881V36.5467H29.5643V34.9881C29.5643 32.9222 27.8688 31.2414 25.7848 31.2414H25.2062C23.1223 31.2414 21.4268 32.9222 21.4268 34.9881C21.4268 37.054 23.1223 38.7347 25.2062 38.7347H27.3762V50.2719H25.2328C24.7093 47.0078 23.2014 44.2319 20.8273 42.1993C17.4911 39.343 15.5775 35.2438 15.5775 30.9532C15.5775 22.5547 22.1084 16.2215 30.769 16.2215C39.4297 16.2215 45.9606 22.5547 45.9606 30.9532C45.9608 35.2438 44.0474 39.3428 40.7111 42.1993ZM34.2406 36.5467V34.9881C34.2406 34.1286 34.9545 33.4294 35.832 33.4294H36.4463C37.3238 33.4294 38.0377 34.1286 38.0377 34.9881C38.0377 35.8476 37.3238 36.5467 36.4463 36.5467H34.2406Z" fill="#0454A7"/>
<path d="M48.2901 55.321C47.4783 55.321 46.691 55.014 46.0842 54.4089L43.0077 51.3409L44.5528 49.7916L47.6293 52.8596C48.0469 53.276 48.606 53.1539 48.9841 52.9105L52.7553 49.2751C53.1613 48.8644 53.0438 48.3177 52.8052 47.9445L49.8017 44.9492C49.4281 44.5767 49.3737 43.9907 49.6721 43.5557C51.3091 41.1696 52.4919 38.3888 53.0925 35.5138C53.1985 35.0068 53.6454 34.6436 54.1634 34.6436H58.4427C58.8044 34.5807 59.3506 34.3214 59.3506 33.6922V28.4026C59.3034 28.1313 59.1029 27.4996 58.2654 27.4996H53.907C53.3724 27.4996 52.9161 27.1133 52.8279 26.586C52.374 23.87 51.2334 21.0524 49.5294 18.438C49.2468 18.0042 49.3068 17.4317 49.6734 17.066L52.75 13.9979C53.1647 13.5843 53.0434 13.0302 52.8008 12.6553L49.1554 8.89463C48.7411 8.48711 48.1893 8.60513 47.8129 8.84486L44.8093 11.8401C44.4373 12.2111 43.8541 12.2652 43.4202 11.9692C41.027 10.3363 38.2378 9.15638 35.354 8.55727C34.8464 8.45183 34.4825 8.00451 34.4825 7.48609V3.13942C34.4825 2.57039 34.0539 2.18803 33.6536 2.18803H28.3487C27.987 2.2508 27.4408 2.51022 27.4408 3.13942V7.61368C27.4408 8.14865 27.054 8.60513 26.5262 8.69292C23.8017 9.14585 20.9756 10.2836 18.3534 11.9833C17.9207 12.2638 17.3508 12.204 16.9858 11.84L13.9093 8.77197C13.4917 8.35569 12.9327 8.47768 12.5545 8.72109L8.78318 12.3567C8.3773 12.7672 8.49491 13.3139 8.73354 13.687L11.737 16.6823C12.1106 17.0548 12.1651 17.6409 11.8667 18.0758C10.2296 20.4618 9.04684 23.2427 8.44622 26.1177C8.34024 26.6248 7.89333 26.988 7.37532 26.988H3.09607C2.73436 27.0508 2.18803 27.3102 2.18803 27.9394V33.2287C2.25121 33.5888 2.51186 34.132 3.14503 34.132H7.50332C8.03788 34.132 8.49422 34.5183 8.58243 35.0456C9.03631 37.7618 10.177 40.5793 11.881 43.1936C12.1637 43.6274 12.1037 44.1999 11.737 44.5656L8.66051 47.6336C8.24574 48.0473 8.36704 48.6014 8.60978 48.9763L12.2552 52.7371C12.6697 53.1445 13.2213 53.0265 13.5977 52.7869L16.6013 49.7915L18.1463 51.3407L15.0698 54.4088C15.0271 54.4513 14.9812 54.4903 14.9321 54.5251C13.5643 55.4995 11.8259 55.3991 10.7047 54.2809C10.7003 54.2765 10.6961 54.2721 10.6917 54.2676L6.97422 50.4328C6.93662 50.394 6.90188 50.3524 6.87029 50.3085C5.89128 48.9417 5.99207 47.2047 7.11535 46.0844L9.57333 43.6332C8.14509 41.2751 7.12957 38.7777 6.59938 36.32H3.14503C1.53641 36.32 0.217299 35.1107 0.00847867 33.4445C0.00287183 33.3994 0 33.354 0 33.3084V27.9394C0 26.3334 1.21176 25.0166 2.8815 24.8083C2.92636 24.8027 2.97162 24.7999 3.01689 24.7999H6.50297C7.1334 22.2544 8.1775 19.796 9.56021 17.6014L7.11549 15.1634C7.07268 15.1208 7.03371 15.0747 6.99856 15.0258C6.01956 13.6589 6.12034 11.9219 7.24362 10.8018C7.248 10.7974 7.25238 10.7932 7.25689 10.7888L11.1025 7.08157C11.1415 7.0441 11.183 7.0095 11.2271 6.97819C12.5947 6.00383 14.3333 6.10421 15.4545 7.22256L17.9156 9.67686C20.2816 8.25108 22.7874 7.23761 25.2531 6.70865V3.13942C25.2531 1.53327 26.4648 0.216479 28.1346 0.00847863C28.1791 0.00287179 28.2244 0 28.2695 0H33.6535C35.3169 0 36.6704 1.40827 36.6704 3.13942V6.61251C39.2245 7.24144 41.6908 8.28349 43.8925 9.66386L46.3407 7.22256C46.3833 7.18003 46.4293 7.14106 46.4784 7.10619C47.846 6.13183 49.5844 6.23221 50.7058 7.35043C50.7102 7.3548 50.7145 7.35918 50.7188 7.36369L54.4362 11.1988C54.4739 11.2376 54.5086 11.2792 54.5402 11.3232C55.5192 12.6901 55.4183 14.4271 54.2951 15.5472L51.8373 17.9984C53.2654 20.3565 54.2809 22.8542 54.8112 25.3116H58.2656C59.9755 25.3116 61.318 26.4939 61.5303 28.1871C61.5359 28.2322 61.5387 28.2777 61.5387 28.3231V33.6922C61.5387 35.2982 60.327 36.615 58.6572 36.8232C58.6124 36.8289 58.5671 36.8317 58.5219 36.8317H55.0358C54.4053 39.3772 53.3612 41.8356 51.9785 44.0302L54.4233 46.4682C54.4661 46.5108 54.505 46.5569 54.5402 46.6058C55.5192 47.9727 55.4184 49.7097 54.2951 50.83C54.2907 50.8343 54.2864 50.8386 54.2818 50.8429L50.4362 54.5502C50.3973 54.5876 50.3557 54.6222 50.3117 54.6535C49.684 55.1002 48.9782 55.321 48.2901 55.321Z" fill="#0454A7"/>
</svg>
