<svg width="64" height="64" viewBox="0 0 64 64" fill="none" xmlns="http://www.w3.org/2000/svg">
<path d="M57.2525 38.7635C58.5725 37.5265 59.4031 35.7738 59.4031 33.8267C59.4031 30.348 56.7645 27.4761 53.3822 27.0971C52.5551 23.9118 50.076 21.4961 46.9532 20.701C48.2665 19.4645 49.0922 17.7163 49.0922 15.775C49.0922 12.0393 46.05 9 42.3109 9C38.5719 9 35.5302 12.0393 35.5302 15.775C35.5302 17.7162 36.3557 19.4644 37.6688 20.7008C35.2212 21.3244 33.1723 22.9462 32 25.1549C30.8273 22.9454 28.7773 21.3232 26.3286 20.7002C27.638 19.4656 28.4609 17.7212 28.4609 15.7844C28.4609 12.0529 25.4229 9.01665 21.6891 9.01665C17.9547 9.01665 14.9167 12.0529 14.9167 15.7844C14.9167 17.7215 15.7399 19.4662 17.0498 20.7008C13.924 21.4971 11.4421 23.9198 10.6159 27.1141C7.23971 27.494 4.60573 30.3622 4.60573 33.8361C4.60573 35.7787 5.43379 37.5277 6.75013 38.7629C2.87559 39.7584 0 43.2682 0 47.4464V53.9342C0 54.5233 0.477604 55 1.06667 55H62.9333C63.5224 55 64 54.5233 64 53.9342V47.4464C64 43.2691 61.1256 39.7599 57.2525 38.7635ZM57.2698 33.8267C57.2698 36.3872 55.1849 38.4711 52.6224 38.4711C50.0594 38.4711 47.9745 36.3872 47.9745 33.8267C47.9745 31.2662 50.0594 29.1834 52.6224 29.1834C55.1849 29.1834 57.2698 31.2662 57.2698 33.8267ZM42.3109 11.1317C44.874 11.1317 46.9589 13.2145 46.9589 15.775C46.9589 18.3214 44.8957 20.3924 42.3521 20.4152H42.2697C39.7266 20.3924 37.6635 18.3214 37.6635 15.775C37.6635 13.2145 39.7484 11.1317 42.3109 11.1317ZM39.9146 22.5469H42.2287C42.2564 22.5472 42.2832 22.551 42.3109 22.551C42.3387 22.551 42.3655 22.5472 42.3932 22.5469H44.7042C47.7072 22.5469 50.2725 24.4537 51.1844 27.2084C48.1342 27.8696 45.8411 30.5843 45.8411 33.8267C45.8411 35.7739 46.6719 37.5265 47.9921 38.7636C45.5387 39.3948 43.485 41.029 42.311 43.211C41.1367 41.0283 39.0824 39.3937 36.6278 38.763C37.9443 37.5278 38.7724 35.7788 38.7724 33.8361C38.7724 30.5962 36.481 27.8834 33.4331 27.2241C34.3439 24.4602 36.9102 22.5469 39.9146 22.5469ZM27.3609 33.8361C27.3609 31.2797 29.4422 29.2001 32 29.2001C34.5578 29.2001 36.6391 31.2797 36.6391 33.8361C36.6391 36.3914 34.5578 38.4711 32 38.4711C29.4422 38.4711 27.3609 36.3914 27.3609 33.8361ZM21.6891 11.1483C24.2469 11.1483 26.3276 13.228 26.3276 15.7844C26.3276 18.3256 24.2686 20.3924 21.7303 20.4152H21.6479C19.1095 20.3924 17.05 18.3256 17.05 15.7844C17.05 13.228 19.1313 11.1483 21.6891 11.1483ZM19.2958 22.5469H21.6068C21.6345 22.5472 21.6613 22.551 21.6891 22.551C21.7168 22.551 21.7436 22.5472 21.7713 22.5469H24.0854C27.0898 22.5469 29.6561 24.4602 30.5669 27.2241C27.519 27.8834 25.2276 30.5962 25.2276 33.8361C25.2276 35.7788 26.0557 37.5278 27.3722 38.763C24.9176 39.3937 22.8633 41.0283 21.689 43.211C20.5145 41.0283 18.46 39.3937 16.0054 38.763C17.3219 37.5278 18.15 35.7788 18.15 33.8361C18.15 30.5974 15.8602 27.8857 12.8141 27.225C13.7247 24.4606 16.2912 22.5469 19.2958 22.5469ZM11.3776 29.2001C13.9354 29.2001 16.0167 31.2797 16.0167 33.8361C16.0167 36.3914 13.9354 38.4711 11.3776 38.4711C8.81979 38.4711 6.73906 36.3914 6.73906 33.8361C6.73906 31.2797 8.81979 29.2001 11.3776 29.2001ZM2.13333 47.4464C2.13333 43.6733 5.20573 40.6028 8.98177 40.6028H13.7734C17.55 40.6028 20.6224 43.6733 20.6224 47.4464V52.8683H2.13333V47.4464ZM22.7557 47.4464C22.7557 43.6733 25.8281 40.6028 29.6042 40.6028H34.3958C38.1719 40.6028 41.2443 43.6733 41.2443 47.4464V52.8683H22.7557V47.4464ZM61.8667 52.8683H43.3776V47.4464C43.3776 43.6733 46.45 40.6028 50.2266 40.6028H55.0182C58.7943 40.6028 61.8667 43.6733 61.8667 47.4464V52.8683Z" fill="#0454A7"/>
</svg>
